<svg width="80" height="80" viewBox="0 0 80 80" fill="none" xmlns="http://www.w3.org/2000/svg">
<circle cx="40" cy="40" r="40" fill="#FFF7ED"/>
<path d="M45.9303 19.0879C45.1992 19.5026 44.3164 19.8461 43.532 19.7152C42.2952 19.5094 39.1072 19.523 36.9911 20.2923C34.8751 21.0615 31.0279 23.466 29.8738 23.8515C28.7192 24.2358 28.6233 25.7753 31.2201 26.0634C33.8174 26.3524 36.1256 24.7165 36.7026 24.4285C37.2797 24.1395 42.8586 25.0056 42.8586 25.0056L44.6138 25.4381L48.6605 30.9081C49.3706 30.2913 50.775 28.9822 51.1306 27.9873C51.2599 27.6249 51.4526 27.2919 51.6647 26.996L51.7092 27.0572C52.6617 24.9281 48.5773 18.1537 45.9303 19.0879Z" fill="#FF6900"/>
<path d="M43.5322 26.232L42.6818 26.1462C41.5659 25.9734 38.4104 25.524 37.2254 25.524C37.1736 25.524 37.1322 25.5246 37.1013 25.5261C37.0537 25.5534 36.9987 25.5848 36.9448 25.6162C36.1038 26.1058 34.1349 27.2521 31.8413 27.2521C31.5895 27.2521 31.3381 27.2379 31.0931 27.2107C30.7213 27.1694 30.3945 27.1054 30.1055 27.0248C30.3794 27.1447 30.6312 27.3164 30.8475 27.5369C31.1863 27.8836 31.3968 28.3088 31.48 28.7534C31.6775 28.7004 31.8822 28.6711 32.0917 28.6711C32.7336 28.6711 33.3337 28.9235 33.7825 29.3822C34.224 29.8336 34.4638 30.4305 34.457 31.0621C34.457 31.0683 34.4559 31.0747 34.4559 31.0809C35.0947 31.083 35.6928 31.3354 36.14 31.7921C36.5819 32.2434 36.8218 32.8404 36.815 33.4719C36.8123 33.6897 36.7788 33.9023 36.7202 34.1066C37.1736 34.2014 37.5889 34.427 37.9209 34.7664C38.8331 35.699 38.8168 37.1992 37.8848 38.1114L37.4177 38.568C37.4197 38.568 37.4224 38.568 37.4245 38.568C38.2084 38.5114 38.8692 38.0277 39.054 37.2987C39.3735 37.5505 39.7756 37.7019 40.2139 37.7019C41.2497 37.7019 42.0896 36.8625 42.0896 35.8262C42.0896 35.7173 42.0781 35.6115 42.0603 35.5078C42.3902 35.7953 42.8201 35.9707 43.2919 35.9707C44.3277 35.9707 45.1676 35.1308 45.1676 34.095C45.3896 34.1876 45.6331 34.2395 45.8886 34.2395C46.9244 34.2395 47.7643 33.3996 47.7643 32.3638C47.7643 31.5773 47.3795 31.0652 46.4657 30.0074L43.5322 26.232Z" fill="#FF6900"/>
<path d="M30.0229 28.3444C29.5548 27.8663 28.7882 27.8579 28.3101 28.3255L26.5795 30.0195C26.1014 30.4871 26.093 31.2537 26.5606 31.7318C27.0283 32.2099 27.7949 32.2183 28.273 31.7501L30.0042 30.0566C30.4822 29.5891 30.4906 28.8225 30.0229 28.3444Z" fill="#FF6900"/>
<path d="M32.9572 30.1897C32.4896 29.7111 31.723 29.7027 31.2448 30.1709L28.9366 32.4288C28.4585 32.897 28.4507 33.6636 28.9183 34.1411C29.3859 34.6197 30.1525 34.628 30.6311 34.16L32.9388 31.902C33.417 31.4344 33.4253 30.6678 32.9572 30.1897Z" fill="#FF6900"/>
<path d="M35.3152 32.5995C34.8476 32.1214 34.081 32.1125 33.603 32.5807L31.2947 34.8391C30.8166 35.3067 30.8083 36.0733 31.2764 36.5519C31.744 37.0295 32.5106 37.0379 32.9888 36.5697L35.297 34.3118C35.775 33.8437 35.7828 33.077 35.3152 32.5995Z" fill="#FF6900"/>
<path d="M37.0961 35.5738C36.628 35.0957 35.8614 35.0868 35.3838 35.5549L34.0375 36.8725C33.5594 37.34 33.551 38.1066 34.0186 38.5847C34.4862 39.0628 35.2534 39.0707 35.7315 38.6036L37.0778 37.2861C37.5553 36.8185 37.5637 36.0519 37.0961 35.5738Z" fill="#FF6900"/>
<path d="M29.1566 26.8258C29.3388 26.8258 29.5168 26.8489 29.6897 26.8881C28.2355 26.3304 27.9946 25.3104 27.9564 24.9506C27.8538 23.9818 28.4779 23.0995 29.5085 22.756C29.9232 22.6178 31.0108 22.025 32.0618 21.4522C33.1898 20.8368 34.4276 20.1619 35.5048 19.6654C34.1401 19.555 32.8614 19.6016 32.178 19.7152C31.4433 19.8377 30.6223 19.544 29.9201 19.1659C27.273 18.2312 23.1886 25.0056 24.1411 27.1353C24.3144 27.3955 24.47 27.6804 24.5795 27.9873C24.7412 28.4397 25.1203 28.9571 25.5524 29.4451C25.6199 29.3582 25.6917 29.2733 25.7718 29.1942L27.5025 27.5003C27.9475 27.0656 28.5345 26.8258 29.1566 26.8258Z" fill="#FF6900"/>
<path d="M11.4091 57V45.3636H15.3409C16.25 45.3636 16.9962 45.5189 17.5795 45.8295C18.1629 46.1364 18.5947 46.5587 18.875 47.0966C19.1553 47.6345 19.2955 48.2462 19.2955 48.9318C19.2955 49.6174 19.1553 50.2254 18.875 50.7557C18.5947 51.286 18.1648 51.7027 17.5852 52.0057C17.0057 52.3049 16.2652 52.4545 15.3636 52.4545H12.1818V51.1818H15.3182C15.9394 51.1818 16.4394 51.0909 16.8182 50.9091C17.2008 50.7273 17.4773 50.4697 17.6477 50.1364C17.822 49.7992 17.9091 49.3977 17.9091 48.9318C17.9091 48.4659 17.822 48.0587 17.6477 47.7102C17.4735 47.3617 17.1951 47.0928 16.8125 46.9034C16.4299 46.7102 15.9242 46.6136 15.2955 46.6136H12.8182V57H11.4091ZM16.8864 51.7727L19.75 57H18.1136L15.2955 51.7727H16.8864ZM25.027 57.1818C24.1861 57.1818 23.4607 56.9962 22.8509 56.625C22.2448 56.25 21.777 55.7273 21.4474 55.0568C21.1217 54.3826 20.9588 53.5985 20.9588 52.7045C20.9588 51.8106 21.1217 51.0227 21.4474 50.3409C21.777 49.6553 22.2353 49.1212 22.8224 48.7386C23.4134 48.3523 24.1027 48.1591 24.8906 48.1591C25.3452 48.1591 25.794 48.2348 26.2372 48.3864C26.6804 48.5379 27.0838 48.7841 27.4474 49.125C27.8111 49.4621 28.1009 49.9091 28.3168 50.4659C28.5327 51.0227 28.6406 51.7083 28.6406 52.5227V53.0909H21.9134V51.9318H27.277C27.277 51.4394 27.1785 51 26.9815 50.6136C26.7884 50.2273 26.5118 49.9223 26.152 49.6989C25.7959 49.4754 25.3755 49.3636 24.8906 49.3636C24.3565 49.3636 23.8944 49.4962 23.5043 49.7614C23.1179 50.0227 22.8205 50.3636 22.6122 50.7841C22.4039 51.2045 22.2997 51.6553 22.2997 52.1364V52.9091C22.2997 53.5682 22.4134 54.1269 22.6406 54.5852C22.8717 55.0398 23.1918 55.3864 23.6009 55.625C24.0099 55.8598 24.4853 55.9773 25.027 55.9773C25.3793 55.9773 25.6974 55.928 25.9815 55.8295C26.2694 55.7273 26.5175 55.5758 26.7259 55.375C26.9342 55.1705 27.0952 54.9167 27.2088 54.6136L28.5043 54.9773C28.3679 55.4167 28.1387 55.803 27.8168 56.1364C27.4948 56.4659 27.0971 56.7235 26.6236 56.9091C26.1501 57.0909 25.6179 57.1818 25.027 57.1818ZM32.0213 45.3636V57H30.6804V45.3636H32.0213ZM34.4773 57V48.2727H35.8182V57H34.4773ZM35.1591 46.8182C34.8977 46.8182 34.6723 46.7292 34.483 46.5511C34.2973 46.3731 34.2045 46.1591 34.2045 45.9091C34.2045 45.6591 34.2973 45.4451 34.483 45.267C34.6723 45.089 34.8977 45 35.1591 45C35.4205 45 35.6439 45.089 35.8295 45.267C36.0189 45.4451 36.1136 45.6591 36.1136 45.9091C36.1136 46.1591 36.0189 46.3731 35.8295 46.5511C35.6439 46.7292 35.4205 46.8182 35.1591 46.8182ZM40.8423 57.2045C40.2893 57.2045 39.7874 57.1004 39.3366 56.892C38.8859 56.6799 38.5279 56.375 38.2628 55.9773C37.9976 55.5758 37.8651 55.0909 37.8651 54.5227C37.8651 54.0227 37.9635 53.6174 38.1605 53.3068C38.3575 52.9924 38.6207 52.7462 38.9503 52.5682C39.2798 52.3902 39.6435 52.2576 40.0412 52.1705C40.4427 52.0795 40.8461 52.0076 41.2514 51.9545C41.7817 51.8864 42.2116 51.8352 42.5412 51.8011C42.8745 51.7633 43.117 51.7008 43.2685 51.6136C43.4238 51.5265 43.5014 51.375 43.5014 51.1591V51.1136C43.5014 50.553 43.348 50.1174 43.0412 49.8068C42.7382 49.4962 42.2779 49.3409 41.6605 49.3409C41.0204 49.3409 40.5185 49.4811 40.1548 49.7614C39.7912 50.0417 39.5355 50.3409 39.3878 50.6591L38.1151 50.2045C38.3423 49.6742 38.6454 49.2614 39.0241 48.9659C39.4067 48.6667 39.8234 48.4583 40.2741 48.3409C40.7287 48.2197 41.1757 48.1591 41.6151 48.1591C41.8954 48.1591 42.2173 48.1932 42.581 48.2614C42.9484 48.3258 43.3026 48.4602 43.6435 48.6648C43.9882 48.8693 44.2741 49.178 44.5014 49.5909C44.7287 50.0038 44.8423 50.5568 44.8423 51.25V57H43.5014V55.8182H43.4332C43.3423 56.0076 43.1908 56.2102 42.9787 56.4261C42.7666 56.642 42.4844 56.8258 42.1321 56.9773C41.7798 57.1288 41.3499 57.2045 40.8423 57.2045ZM41.0469 56C41.5772 56 42.0241 55.8958 42.3878 55.6875C42.7552 55.4792 43.0317 55.2102 43.2173 54.8807C43.4067 54.5511 43.5014 54.2045 43.5014 53.8409V52.6136C43.4446 52.6818 43.3196 52.7443 43.1264 52.8011C42.937 52.8542 42.7173 52.9015 42.4673 52.9432C42.2211 52.9811 41.9806 53.0152 41.7457 53.0455C41.5147 53.072 41.3272 53.0947 41.1832 53.1136C40.8348 53.1591 40.509 53.233 40.206 53.3352C39.9067 53.4337 39.6643 53.5833 39.4787 53.7841C39.2969 53.9811 39.206 54.25 39.206 54.5909C39.206 55.0568 39.3783 55.4091 39.723 55.6477C40.0715 55.8826 40.5128 56 41.0469 56ZM47.4716 57V45.3636H48.8125V49.6591H48.9261C49.0246 49.5076 49.161 49.3144 49.3352 49.0795C49.5133 48.8409 49.767 48.6288 50.0966 48.4432C50.4299 48.2538 50.8807 48.1591 51.4489 48.1591C52.1837 48.1591 52.8314 48.3428 53.392 48.7102C53.9527 49.0777 54.3902 49.5985 54.7045 50.2727C55.0189 50.947 55.1761 51.7424 55.1761 52.6591C55.1761 53.5833 55.0189 54.3845 54.7045 55.0625C54.3902 55.7367 53.9545 56.2595 53.3977 56.6307C52.8409 56.9981 52.1989 57.1818 51.4716 57.1818C50.911 57.1818 50.4621 57.089 50.125 56.9034C49.7879 56.714 49.5284 56.5 49.3466 56.2614C49.1648 56.0189 49.0246 55.8182 48.9261 55.6591H48.767V57H47.4716ZM48.7898 52.6364C48.7898 53.2955 48.8864 53.8769 49.0795 54.3807C49.2727 54.8807 49.5549 55.2727 49.9261 55.5568C50.2973 55.8371 50.7519 55.9773 51.2898 55.9773C51.8504 55.9773 52.3182 55.8295 52.6932 55.5341C53.072 55.2348 53.3561 54.8333 53.5455 54.3295C53.7386 53.822 53.8352 53.2576 53.8352 52.6364C53.8352 52.0227 53.7405 51.4697 53.5511 50.9773C53.3655 50.4811 53.0833 50.089 52.7045 49.8011C52.3295 49.5095 51.858 49.3636 51.2898 49.3636C50.7443 49.3636 50.286 49.5019 49.9148 49.7784C49.5436 50.0511 49.2633 50.4337 49.0739 50.9261C48.8845 51.4148 48.7898 51.9848 48.7898 52.6364ZM58.5682 45.3636V57H57.2273V45.3636H58.5682ZM64.6832 57.1818C63.8423 57.1818 63.117 56.9962 62.5071 56.625C61.901 56.25 61.4332 55.7273 61.1037 55.0568C60.7779 54.3826 60.6151 53.5985 60.6151 52.7045C60.6151 51.8106 60.7779 51.0227 61.1037 50.3409C61.4332 49.6553 61.8916 49.1212 62.4787 48.7386C63.0696 48.3523 63.759 48.1591 64.5469 48.1591C65.0014 48.1591 65.4503 48.2348 65.8935 48.3864C66.3366 48.5379 66.7401 48.7841 67.1037 49.125C67.4673 49.4621 67.7571 49.9091 67.973 50.4659C68.1889 51.0227 68.2969 51.7083 68.2969 52.5227V53.0909H61.5696V51.9318H66.9332C66.9332 51.4394 66.8348 51 66.6378 50.6136C66.4446 50.2273 66.1681 49.9223 65.8082 49.6989C65.4522 49.4754 65.0317 49.3636 64.5469 49.3636C64.0128 49.3636 63.5507 49.4962 63.1605 49.7614C62.7741 50.0227 62.4768 50.3636 62.2685 50.7841C62.0601 51.2045 61.956 51.6553 61.956 52.1364V52.9091C61.956 53.5682 62.0696 54.1269 62.2969 54.5852C62.5279 55.0398 62.848 55.3864 63.2571 55.625C63.6662 55.8598 64.1416 55.9773 64.6832 55.9773C65.0355 55.9773 65.3537 55.928 65.6378 55.8295C65.9257 55.7273 66.1738 55.5758 66.3821 55.375C66.5904 55.1705 66.7514 54.9167 66.8651 54.6136L68.1605 54.9773C68.0241 55.4167 67.795 55.803 67.473 56.1364C67.151 56.4659 66.7533 56.7235 66.2798 56.9091C65.8063 57.0909 65.2741 57.1818 64.6832 57.1818Z" fill="#FF6900"/>
</svg>
