<svg width="80" height="80" viewBox="0 0 80 80" fill="none" xmlns="http://www.w3.org/2000/svg">
<circle cx="40" cy="40" r="40" fill="#EEF2FF"/>
<path d="M9.05682 56V47.2727H12.0057C12.6903 47.2727 13.25 47.3963 13.6847 47.6435C14.1222 47.8878 14.446 48.2188 14.6562 48.6364C14.8665 49.054 14.9716 49.5199 14.9716 50.0341C14.9716 50.5483 14.8665 51.0156 14.6562 51.4361C14.4489 51.8565 14.1278 52.1918 13.6932 52.4418C13.2585 52.6889 12.7017 52.8125 12.0227 52.8125H9.90909V51.875H11.9886C12.4574 51.875 12.8338 51.794 13.1179 51.6321C13.402 51.4702 13.608 51.2514 13.7358 50.9759C13.8665 50.6974 13.9318 50.3835 13.9318 50.0341C13.9318 49.6847 13.8665 49.3722 13.7358 49.0966C13.608 48.821 13.4006 48.6051 13.1136 48.4489C12.8267 48.2898 12.446 48.2102 11.9716 48.2102H10.1136V56H9.05682ZM16.5376 56V49.4545H17.5092V50.4432H17.5774C17.6967 50.1193 17.9126 49.8565 18.2251 49.6548C18.5376 49.4531 18.8899 49.3523 19.282 49.3523C19.3558 49.3523 19.4482 49.3537 19.5589 49.3565C19.6697 49.3594 19.7536 49.3636 19.8104 49.3693V50.392C19.7763 50.3835 19.6982 50.3707 19.576 50.3537C19.4567 50.3338 19.3303 50.3239 19.1967 50.3239C18.8786 50.3239 18.5945 50.3906 18.3445 50.5241C18.0973 50.6548 17.9013 50.8366 17.7564 51.0696C17.6143 51.2997 17.5433 51.5625 17.5433 51.858V56H16.5376ZM23.4624 56.1364C22.8714 56.1364 22.353 55.9957 21.907 55.7145C21.4638 55.4332 21.1172 55.0398 20.8672 54.5341C20.62 54.0284 20.4964 53.4375 20.4964 52.7614C20.4964 52.0795 20.62 51.4844 20.8672 50.9759C21.1172 50.4673 21.4638 50.0724 21.907 49.7912C22.353 49.5099 22.8714 49.3693 23.4624 49.3693C24.0533 49.3693 24.5703 49.5099 25.0135 49.7912C25.4595 50.0724 25.8061 50.4673 26.0533 50.9759C26.3033 51.4844 26.4283 52.0795 26.4283 52.7614C26.4283 53.4375 26.3033 54.0284 26.0533 54.5341C25.8061 55.0398 25.4595 55.4332 25.0135 55.7145C24.5703 55.9957 24.0533 56.1364 23.4624 56.1364ZM23.4624 55.233C23.9112 55.233 24.2805 55.1179 24.5703 54.8878C24.8601 54.6577 25.0746 54.3551 25.2138 53.9801C25.353 53.6051 25.4226 53.1989 25.4226 52.7614C25.4226 52.3239 25.353 51.9162 25.2138 51.5384C25.0746 51.1605 24.8601 50.8551 24.5703 50.6222C24.2805 50.3892 23.9112 50.2727 23.4624 50.2727C23.0135 50.2727 22.6442 50.3892 22.3544 50.6222C22.0646 50.8551 21.8501 51.1605 21.7109 51.5384C21.5717 51.9162 21.5021 52.3239 21.5021 52.7614C21.5021 53.1989 21.5717 53.6051 21.7109 53.9801C21.8501 54.3551 22.0646 54.6577 22.3544 54.8878C22.6442 55.1179 23.0135 55.233 23.4624 55.233ZM30.8782 49.4545V50.3068H27.3498V49.4545H30.8782ZM28.4066 56V48.5511C28.4066 48.1761 28.4947 47.8636 28.6708 47.6136C28.8469 47.3636 29.0756 47.1761 29.3569 47.0511C29.6381 46.9261 29.935 46.8636 30.2475 46.8636C30.4947 46.8636 30.6964 46.8835 30.8526 46.9233C31.0089 46.9631 31.1254 47 31.2021 47.0341L30.9123 47.9034C30.8612 47.8864 30.7901 47.8651 30.6992 47.8395C30.6112 47.8139 30.4947 47.8011 30.3498 47.8011C30.0174 47.8011 29.7773 47.8849 29.6296 48.0526C29.4847 48.2202 29.4123 48.4659 29.4123 48.7898V56H28.4066ZM32.2876 56V49.4545H33.2933V56H32.2876ZM32.799 48.3636C32.603 48.3636 32.4339 48.2969 32.2919 48.1634C32.1527 48.0298 32.0831 47.8693 32.0831 47.6818C32.0831 47.4943 32.1527 47.3338 32.2919 47.2003C32.4339 47.0668 32.603 47 32.799 47C32.995 47 33.1626 47.0668 33.3018 47.2003C33.4439 47.3338 33.5149 47.4943 33.5149 47.6818C33.5149 47.8693 33.4439 48.0298 33.3018 48.1634C33.1626 48.2969 32.995 48.3636 32.799 48.3636ZM37.7944 56.1364C37.1808 56.1364 36.6523 55.9915 36.2092 55.7017C35.766 55.4119 35.4251 55.0128 35.1864 54.5043C34.9478 53.9957 34.8285 53.4148 34.8285 52.7614C34.8285 52.0966 34.9506 51.5099 35.195 51.0014C35.4421 50.4901 35.7859 50.0909 36.2262 49.804C36.6694 49.5142 37.1864 49.3693 37.7773 49.3693C38.2376 49.3693 38.6523 49.4545 39.0217 49.625C39.391 49.7955 39.6935 50.0341 39.9293 50.3409C40.1651 50.6477 40.3114 51.0057 40.3683 51.4148H39.3626C39.2859 51.1165 39.1154 50.8523 38.8512 50.6222C38.5898 50.3892 38.2376 50.2727 37.7944 50.2727C37.4023 50.2727 37.0586 50.375 36.7631 50.5795C36.4705 50.7812 36.2418 51.0668 36.0771 51.4361C35.9151 51.8026 35.8342 52.233 35.8342 52.7273C35.8342 53.233 35.9137 53.6733 36.0728 54.0483C36.2347 54.4233 36.462 54.7145 36.7546 54.9219C37.0501 55.1293 37.3967 55.233 37.7944 55.233C38.0558 55.233 38.293 55.1875 38.506 55.0966C38.7191 55.0057 38.8995 54.875 39.0472 54.7045C39.195 54.5341 39.3001 54.3295 39.3626 54.0909H40.3683C40.3114 54.4773 40.1708 54.8253 39.9464 55.1349C39.7248 55.4418 39.4308 55.6861 39.0643 55.8679C38.7006 56.0469 38.2773 56.1364 37.7944 56.1364ZM41.8384 56V49.4545H42.8441V56H41.8384ZM42.3498 48.3636C42.1538 48.3636 41.9847 48.2969 41.8427 48.1634C41.7035 48.0298 41.6339 47.8693 41.6339 47.6818C41.6339 47.4943 41.7035 47.3338 41.8427 47.2003C41.9847 47.0668 42.1538 47 42.3498 47C42.5458 47 42.7134 47.0668 42.8526 47.2003C42.9947 47.3338 43.0657 47.4943 43.0657 47.6818C43.0657 47.8693 42.9947 48.0298 42.8526 48.1634C42.7134 48.2969 42.5458 48.3636 42.3498 48.3636ZM47.4304 56.1364C46.7997 56.1364 46.2557 55.9972 45.7983 55.7188C45.3438 55.4375 44.9929 55.0455 44.7457 54.5426C44.5014 54.0369 44.3793 53.4489 44.3793 52.7784C44.3793 52.108 44.5014 51.517 44.7457 51.0057C44.9929 50.4915 45.3366 50.0909 45.777 49.804C46.2202 49.5142 46.7372 49.3693 47.3281 49.3693C47.669 49.3693 48.0057 49.4261 48.3381 49.5398C48.6705 49.6534 48.973 49.8381 49.2457 50.0938C49.5185 50.3466 49.7358 50.6818 49.8977 51.0994C50.0597 51.517 50.1406 52.0312 50.1406 52.642V53.0682H45.0952V52.1989H49.1179C49.1179 51.8295 49.044 51.5 48.8963 51.2102C48.7514 50.9205 48.544 50.6918 48.2741 50.5241C48.0071 50.3565 47.6918 50.2727 47.3281 50.2727C46.9276 50.2727 46.581 50.3722 46.2884 50.571C45.9986 50.767 45.7756 51.0227 45.6193 51.3381C45.4631 51.6534 45.3849 51.9915 45.3849 52.3523V52.9318C45.3849 53.4261 45.4702 53.8452 45.6406 54.1889C45.8139 54.5298 46.054 54.7898 46.3608 54.9688C46.6676 55.1449 47.0241 55.233 47.4304 55.233C47.6946 55.233 47.9332 55.196 48.1463 55.1222C48.3622 55.0455 48.5483 54.9318 48.7045 54.7812C48.8608 54.6278 48.9815 54.4375 49.0668 54.2102L50.0384 54.483C49.9361 54.8125 49.7642 55.1023 49.5227 55.3523C49.2813 55.5994 48.983 55.7926 48.6278 55.9318C48.2727 56.0682 47.8736 56.1364 47.4304 56.1364ZM52.6761 52.0625V56H51.6705V49.4545H52.642V50.4773H52.7273C52.8807 50.1449 53.1136 49.8778 53.4261 49.6761C53.7386 49.4716 54.142 49.3693 54.6364 49.3693C55.0795 49.3693 55.4673 49.4602 55.7997 49.642C56.1321 49.821 56.3906 50.0938 56.5753 50.4602C56.7599 50.8239 56.8523 51.2841 56.8523 51.8409V56H55.8466V51.9091C55.8466 51.3949 55.7131 50.9943 55.446 50.7074C55.179 50.4176 54.8125 50.2727 54.3466 50.2727C54.0256 50.2727 53.7386 50.3423 53.4858 50.4815C53.2358 50.6207 53.0384 50.8239 52.8935 51.0909C52.7486 51.358 52.6761 51.6818 52.6761 52.0625ZM61.3491 56.1364C60.7354 56.1364 60.207 55.9915 59.7638 55.7017C59.3207 55.4119 58.9798 55.0128 58.7411 54.5043C58.5025 53.9957 58.3832 53.4148 58.3832 52.7614C58.3832 52.0966 58.5053 51.5099 58.7496 51.0014C58.9968 50.4901 59.3406 50.0909 59.7809 49.804C60.2241 49.5142 60.7411 49.3693 61.332 49.3693C61.7923 49.3693 62.207 49.4545 62.5763 49.625C62.9457 49.7955 63.2482 50.0341 63.484 50.3409C63.7198 50.6477 63.8661 51.0057 63.9229 51.4148H62.9173C62.8406 51.1165 62.6701 50.8523 62.4059 50.6222C62.1445 50.3892 61.7923 50.2727 61.3491 50.2727C60.957 50.2727 60.6133 50.375 60.3178 50.5795C60.0252 50.7812 59.7965 51.0668 59.6317 51.4361C59.4698 51.8026 59.3888 52.233 59.3888 52.7273C59.3888 53.233 59.4684 53.6733 59.6275 54.0483C59.7894 54.4233 60.0167 54.7145 60.3093 54.9219C60.6048 55.1293 60.9513 55.233 61.3491 55.233C61.6104 55.233 61.8477 55.1875 62.0607 55.0966C62.2738 55.0057 62.4542 54.875 62.6019 54.7045C62.7496 54.5341 62.8548 54.3295 62.9173 54.0909H63.9229C63.8661 54.4773 63.7255 54.8253 63.5011 55.1349C63.2795 55.4418 62.9854 55.6861 62.619 55.8679C62.2553 56.0469 61.832 56.1364 61.3491 56.1364ZM66.0408 58.4545C65.8704 58.4545 65.7184 58.4403 65.5849 58.4119C65.4513 58.3864 65.359 58.3608 65.3079 58.3352L65.5636 57.4489C65.8079 57.5114 66.0238 57.5341 66.2113 57.517C66.3988 57.5 66.565 57.4162 66.7099 57.2656C66.8576 57.1179 66.9925 56.8778 67.1147 56.5455L67.3022 56.0341L64.8817 49.4545H65.9727L67.7795 54.6705H67.8477L69.6545 49.4545H70.7454L67.967 56.9545C67.842 57.2926 67.6871 57.5724 67.5025 57.794C67.3178 58.0185 67.1033 58.1847 66.859 58.2926C66.6175 58.4006 66.3448 58.4545 66.0408 58.4545Z" fill="#8E51FF"/>
<path d="M29.0983 25.1919C30.2341 24.8861 30.9081 23.7129 30.6038 22.5715C30.2995 21.4301 29.1321 20.7527 27.9964 21.0586C26.8606 21.3644 26.1866 22.5376 26.4909 23.679C26.7952 24.8204 27.9626 25.4978 29.0983 25.1919Z" fill="#8E51FF"/>
<path d="M32.4256 36.8703H29.8326C29.8326 36.8703 29.6961 36.8703 29.5869 36.8703C28.4132 36.7606 27.4033 35.9102 27.1031 34.7306L25.3289 28.0922C25.2197 27.7082 24.8376 27.5162 24.51 27.5985C24.1279 27.7082 23.9368 28.0922 24.0187 28.4214L25.7656 35.0598C26.2296 36.788 27.6763 38.0498 29.4504 38.187C29.6142 38.2144 29.8053 38.2144 29.8053 38.2144H32.3983C32.7805 38.2144 33.0534 37.9127 33.0807 37.5286C33.0807 37.1446 32.8078 36.8703 32.4256 36.8703Z" fill="#8E51FF"/>
<path d="M35.4829 33.1396H31.9346C31.8527 31.7955 31.6343 30.4514 31.3068 29.1072C31.2795 28.9975 31.1976 28.7232 31.1976 28.6957C30.7336 26.9676 29.0959 25.8703 27.3763 26.0349C27.3763 26.0349 27.1579 26.0623 27.1033 26.0623C26.4755 26.2269 26.0934 26.8853 26.2572 27.5436L28.0859 34.3741C28.277 35.1421 28.9321 35.7182 29.7509 35.7731H29.9147H34.1455V40.6559C34.1455 41.3965 34.7187 42 35.4829 42C36.2199 42 36.8204 41.4239 36.8204 40.6559V34.4838C36.8204 34.1272 36.6839 33.798 36.411 33.5511C36.1653 33.2768 35.8105 33.1396 35.4829 33.1396Z" fill="#8E51FF"/>
<path d="M52.7688 23.6961C53.0731 22.5547 52.3991 21.3815 51.2634 21.0756C50.1277 20.7698 48.9603 21.4472 48.656 22.5886C48.3517 23.73 49.0257 24.9032 50.1614 25.209C51.2971 25.5148 52.4645 24.8375 52.7688 23.6961Z" fill="#8E51FF"/>
<path d="M46.8377 36.8703H49.4307C49.4307 36.8703 49.5672 36.8703 49.6764 36.8703C50.8501 36.7606 51.86 35.9102 52.1603 34.7306L53.9344 28.0922C54.0436 27.7082 54.4258 27.5162 54.7533 27.5985C55.1354 27.7082 55.3265 28.0922 55.2446 28.4214L53.4977 35.0598C53.0337 36.788 51.5871 38.0498 49.8129 38.187C49.6491 38.2144 49.458 38.2144 49.458 38.2144H46.865C46.4829 38.2144 46.2099 37.9127 46.1826 37.5286C46.1826 37.1446 46.4829 36.8703 46.8377 36.8703Z" fill="#8E51FF"/>
<path d="M43.7808 33.1396H47.3292C47.4111 31.7955 47.6294 30.4514 47.957 29.1072C47.9843 28.9975 48.0662 28.7232 48.0662 28.6957C48.5302 26.9676 50.1679 25.8703 51.8875 26.0349C51.8875 26.0349 52.1058 26.0623 52.1604 26.0623C52.7882 26.2269 53.1704 26.8853 53.0066 27.5436L51.1505 34.3741C50.9594 35.1421 50.3044 35.7182 49.4855 35.7731H49.3217H45.1183V40.6559C45.1183 41.3965 44.5451 42 43.7808 42C43.0166 42 42.4434 41.4239 42.4434 40.6559V34.4838C42.4434 34.1272 42.5798 33.798 42.8528 33.5511C43.0984 33.2768 43.4533 33.1396 43.7808 33.1396Z" fill="#8E51FF"/>
<path d="M46.6195 29.5461H32.8081V31.192H46.6195V29.5461Z" fill="#8E51FF"/>
<path d="M39.7138 23.9501C40.7992 23.9501 41.679 23.0659 41.679 21.9751C41.679 20.8843 40.7992 20 39.7138 20C38.6284 20 37.7485 20.8843 37.7485 21.9751C37.7485 23.0659 38.6284 23.9501 39.7138 23.9501Z" fill="#8E51FF"/>
<path d="M36.5476 28.7506V27.5711H36.5203C36.5203 27.4339 36.6295 27.3242 36.766 27.3242C36.9025 27.3242 37.0116 27.4339 37.0116 27.5711V28.7506H42.4434V27.5711H42.4161C42.4161 27.4339 42.5253 27.3242 42.6617 27.3242C42.7982 27.3242 42.9074 27.4339 42.9074 27.5711V28.7506H44.5997V27.0773C44.5997 25.7057 43.5079 24.6085 42.1431 24.6085H37.23C35.8652 24.6085 34.7734 25.7057 34.7734 27.0773V28.7506H36.5476Z" fill="#8E51FF"/>
</svg>
