<svg width="80" height="80" viewBox="0 0 80 80" fill="none" xmlns="http://www.w3.org/2000/svg">
<circle cx="40" cy="40" r="40" fill="#F0FDF4"/>
<path d="M10.6506 58H9.35795L13.0966 47.8182H14.3693L18.108 58H16.8153L13.7727 49.429H13.6932L10.6506 58ZM11.1278 54.0227H16.3381V55.1165H11.1278V54.0227ZM22.6371 58.1591C21.9212 58.1591 21.3047 57.9901 20.7876 57.652C20.2706 57.3139 19.8729 56.8482 19.5945 56.255C19.3161 55.6617 19.1768 54.9839 19.1768 54.2216C19.1768 53.446 19.3194 52.7616 19.6044 52.1683C19.8928 51.5717 20.2938 51.1061 20.8075 50.7713C21.3246 50.4332 21.9278 50.2642 22.6172 50.2642C23.1541 50.2642 23.638 50.3636 24.0689 50.5625C24.4998 50.7614 24.8527 51.0398 25.1278 51.3977C25.4029 51.7557 25.5736 52.1733 25.6399 52.6506H24.4666C24.3771 52.3026 24.1783 51.9943 23.87 51.7259C23.5651 51.4541 23.1541 51.3182 22.6371 51.3182C22.1797 51.3182 21.7786 51.4375 21.4339 51.6761C21.0926 51.9115 20.8258 52.2446 20.6335 52.6754C20.4446 53.103 20.3501 53.6051 20.3501 54.1818C20.3501 54.7718 20.4429 55.2855 20.6286 55.723C20.8175 56.1605 21.0826 56.5002 21.424 56.7422C21.7687 56.9841 22.1731 57.1051 22.6371 57.1051C22.942 57.1051 23.2188 57.0521 23.4673 56.946C23.7159 56.84 23.9264 56.6875 24.0987 56.4886C24.2711 56.2898 24.3937 56.0511 24.4666 55.7727H25.6399C25.5736 56.2235 25.4096 56.6295 25.1477 56.9908C24.8892 57.3487 24.5462 57.6338 24.1186 57.8459C23.6944 58.0547 23.2005 58.1591 22.6371 58.1591ZM30.4574 58.1591C29.7415 58.1591 29.125 57.9901 28.608 57.652C28.0909 57.3139 27.6932 56.8482 27.4148 56.255C27.1364 55.6617 26.9972 54.9839 26.9972 54.2216C26.9972 53.446 27.1397 52.7616 27.4247 52.1683C27.7131 51.5717 28.1141 51.1061 28.6278 50.7713C29.1449 50.4332 29.7481 50.2642 30.4375 50.2642C30.9744 50.2642 31.4583 50.3636 31.8892 50.5625C32.3201 50.7614 32.6731 51.0398 32.9482 51.3977C33.2232 51.7557 33.3939 52.1733 33.4602 52.6506H32.2869C32.1974 52.3026 31.9986 51.9943 31.6903 51.7259C31.3854 51.4541 30.9744 51.3182 30.4574 51.3182C30 51.3182 29.599 51.4375 29.2543 51.6761C28.9129 51.9115 28.6461 52.2446 28.4538 52.6754C28.2649 53.103 28.1705 53.6051 28.1705 54.1818C28.1705 54.7718 28.2633 55.2855 28.4489 55.723C28.6378 56.1605 28.9029 56.5002 29.2443 56.7422C29.589 56.9841 29.9934 57.1051 30.4574 57.1051C30.7623 57.1051 31.0391 57.0521 31.2876 56.946C31.5362 56.84 31.7467 56.6875 31.919 56.4886C32.0914 56.2898 32.214 56.0511 32.2869 55.7727H33.4602C33.3939 56.2235 33.2299 56.6295 32.968 56.9908C32.7095 57.3487 32.3665 57.6338 31.9389 57.8459C31.5147 58.0547 31.0208 58.1591 30.4574 58.1591ZM39.9879 54.8778V50.3636H41.1612V58H39.9879V56.7074H39.9084C39.7294 57.0952 39.451 57.425 39.0732 57.6967C38.6953 57.9652 38.218 58.0994 37.6413 58.0994C37.1641 58.0994 36.7398 57.995 36.3686 57.7862C35.9974 57.5741 35.7057 57.2559 35.4936 56.8317C35.2815 56.4041 35.1754 55.8655 35.1754 55.2159V50.3636H36.3487V55.1364C36.3487 55.6932 36.5045 56.1373 36.8161 56.4688C37.1309 56.8002 37.532 56.9659 38.0192 56.9659C38.3108 56.9659 38.6075 56.8913 38.9091 56.7422C39.214 56.593 39.4692 56.3643 39.6747 56.0561C39.8835 55.7479 39.9879 55.3551 39.9879 54.8778ZM43.3102 58V50.3636H44.4437V51.517H44.5233C44.6625 51.1392 44.9144 50.8326 45.2789 50.5973C45.6435 50.362 46.0545 50.2443 46.5119 50.2443C46.5981 50.2443 46.7058 50.246 46.835 50.2493C46.9643 50.2526 47.0621 50.2576 47.1284 50.2642V51.4574C47.0886 51.4474 46.9975 51.4325 46.8549 51.4126C46.7157 51.3894 46.5682 51.3778 46.4125 51.3778C46.0413 51.3778 45.7098 51.4557 45.4181 51.6115C45.1298 51.764 44.9011 51.9761 44.7321 52.2479C44.5663 52.5163 44.4835 52.8229 44.4835 53.1676V58H43.3102ZM50.7663 58.179C50.2824 58.179 49.8433 58.0878 49.4489 57.9055C49.0545 57.7199 48.7412 57.4531 48.5092 57.1051C48.2772 56.7538 48.1612 56.3295 48.1612 55.8324C48.1612 55.3949 48.2474 55.0402 48.4197 54.7685C48.5921 54.4934 48.8224 54.2779 49.1108 54.1222C49.3991 53.9664 49.7173 53.8504 50.0653 53.7741C50.4167 53.6946 50.7696 53.6316 51.1243 53.5852C51.5883 53.5256 51.9645 53.4808 52.2528 53.451C52.5445 53.4179 52.7566 53.3632 52.8892 53.2869C53.0251 53.2107 53.093 53.0781 53.093 52.8892V52.8494C53.093 52.3589 52.9588 51.9777 52.6903 51.706C52.4252 51.4342 52.0225 51.2983 51.4822 51.2983C50.9221 51.2983 50.483 51.4209 50.1648 51.6662C49.8466 51.9115 49.6229 52.1733 49.4936 52.4517L48.38 52.054C48.5788 51.59 48.844 51.2287 49.1754 50.9702C49.5102 50.7083 49.8748 50.526 50.2692 50.4233C50.6669 50.3172 51.058 50.2642 51.4425 50.2642C51.6877 50.2642 51.9695 50.294 52.2876 50.3537C52.6091 50.41 52.919 50.5277 53.2173 50.7067C53.5189 50.8857 53.7692 51.1558 53.968 51.517C54.1669 51.8783 54.2663 52.3622 54.2663 52.9688V58H53.093V56.9659H53.0334C52.9538 57.1316 52.8213 57.3089 52.6357 57.4979C52.45 57.6868 52.2031 57.8475 51.8949 57.9801C51.5866 58.1127 51.2105 58.179 50.7663 58.179ZM50.9453 57.125C51.4093 57.125 51.8004 57.0339 52.1186 56.8516C52.4401 56.6693 52.6821 56.4339 52.8445 56.1456C53.0102 55.8572 53.093 55.554 53.093 55.2358V54.1619C53.0433 54.2216 52.9339 54.2763 52.7649 54.326C52.5992 54.3724 52.407 54.4138 52.1882 54.4503C51.9728 54.4834 51.7623 54.5133 51.5568 54.5398C51.3546 54.563 51.1906 54.5829 51.0646 54.5994C50.7597 54.6392 50.4747 54.7038 50.2095 54.7933C49.9477 54.8795 49.7356 55.0104 49.5732 55.1861C49.4141 55.3584 49.3345 55.5937 49.3345 55.892C49.3345 56.2997 49.4853 56.608 49.7869 56.8168C50.0919 57.0223 50.478 57.125 50.9453 57.125ZM59.5101 58.1591C58.7942 58.1591 58.1777 57.9901 57.6607 57.652C57.1436 57.3139 56.7459 56.8482 56.4675 56.255C56.1891 55.6617 56.0499 54.9839 56.0499 54.2216C56.0499 53.446 56.1924 52.7616 56.4775 52.1683C56.7658 51.5717 57.1668 51.1061 57.6806 50.7713C58.1976 50.4332 58.8008 50.2642 59.4902 50.2642C60.0272 50.2642 60.5111 50.3636 60.9419 50.5625C61.3728 50.7614 61.7258 51.0398 62.0009 51.3977C62.276 51.7557 62.4467 52.1733 62.513 52.6506H61.3397C61.2502 52.3026 61.0513 51.9943 60.7431 51.7259C60.4382 51.4541 60.0272 51.3182 59.5101 51.3182C59.0527 51.3182 58.6517 51.4375 58.307 51.6761C57.9656 51.9115 57.6988 52.2446 57.5066 52.6754C57.3176 53.103 57.2232 53.6051 57.2232 54.1818C57.2232 54.7718 57.316 55.2855 57.5016 55.723C57.6905 56.1605 57.9557 56.5002 58.2971 56.7422C58.6417 56.9841 59.0461 57.1051 59.5101 57.1051C59.815 57.1051 60.0918 57.0521 60.3404 56.946C60.589 56.84 60.7994 56.6875 60.9718 56.4886C61.1441 56.2898 61.2667 56.0511 61.3397 55.7727H62.513C62.4467 56.2235 62.2826 56.6295 62.0208 56.9908C61.7623 57.3487 61.4192 57.6338 60.9917 57.8459C60.5674 58.0547 60.0736 58.1591 59.5101 58.1591ZM64.9838 60.8636C64.785 60.8636 64.6077 60.8471 64.4519 60.8139C64.2961 60.7841 64.1884 60.7543 64.1287 60.7244L64.427 59.6903C64.7121 59.7633 64.964 59.7898 65.1827 59.7699C65.4015 59.75 65.5953 59.6522 65.7644 59.4766C65.9367 59.3042 66.0942 59.0241 66.2367 58.6364L66.4554 58.0398L63.6316 50.3636H64.9043L67.0123 56.4489H67.0918L69.1998 50.3636H70.4725L67.231 59.1136C67.0852 59.508 66.9045 59.8345 66.6891 60.093C66.4737 60.3549 66.2234 60.5488 65.9384 60.6747C65.6567 60.8007 65.3385 60.8636 64.9838 60.8636Z" fill="#05DF72"/>
<path d="M45.5 25.875H34.5C34.4088 25.875 34.3214 25.8388 34.2569 25.7743C34.1925 25.7099 34.1562 25.6224 34.1562 25.5312V22.0938C34.1562 22.0026 34.1925 21.9151 34.2569 21.8507C34.3214 21.7862 34.4088 21.75 34.5 21.75H45.5C45.5912 21.75 45.6786 21.7862 45.7431 21.8507C45.8075 21.9151 45.8438 22.0026 45.8438 22.0938V25.5312C45.8438 25.6224 45.8075 25.7099 45.7431 25.7743C45.6786 25.8388 45.5912 25.875 45.5 25.875ZM34.8438 25.1875H45.1562V22.4375H34.8438V25.1875Z" fill="#05DF72"/>
<path d="M46.875 39.9688H33.125C33.0338 39.9688 32.9464 39.9325 32.8819 39.8681C32.8175 39.8036 32.7812 39.7162 32.7812 39.625V20.375C32.7812 20.2838 32.8175 20.1964 32.8819 20.1319C32.9464 20.0675 33.0338 20.0312 33.125 20.0312H46.875C46.9662 20.0312 47.0536 20.0675 47.1181 20.1319C47.1825 20.1964 47.2188 20.2838 47.2188 20.375V39.625C47.2188 39.7162 47.1825 39.8036 47.1181 39.8681C47.0536 39.9325 46.9662 39.9688 46.875 39.9688ZM33.4688 39.2812H46.5312V20.7188H33.4688V39.2812Z" fill="#05DF72"/>
<path d="M37.4219 29.3125H34.8438C34.7526 29.3125 34.6651 29.2763 34.6007 29.2118C34.5362 29.1474 34.5 29.0599 34.5 28.9688V26.9062C34.5 26.8151 34.5362 26.7276 34.6007 26.6632C34.6651 26.5987 34.7526 26.5625 34.8438 26.5625H37.4219C37.513 26.5625 37.6005 26.5987 37.6649 26.6632C37.7294 26.7276 37.7656 26.8151 37.7656 26.9062V28.9688C37.7656 29.0599 37.7294 29.1474 37.6649 29.2118C37.6005 29.2763 37.513 29.3125 37.4219 29.3125ZM35.1875 28.625H37.0781V27.25H35.1875V28.625Z" fill="#05DF72"/>
<path d="M41.2891 29.3125H38.7109C38.6198 29.3125 38.5323 29.2763 38.4679 29.2118C38.4034 29.1474 38.3672 29.0599 38.3672 28.9688V26.9062C38.3672 26.8151 38.4034 26.7276 38.4679 26.6632C38.5323 26.5987 38.6198 26.5625 38.7109 26.5625H41.2891C41.3802 26.5625 41.4677 26.5987 41.5321 26.6632C41.5966 26.7276 41.6328 26.8151 41.6328 26.9062V28.9688C41.6328 29.0599 41.5966 29.1474 41.5321 29.2118C41.4677 29.2763 41.3802 29.3125 41.2891 29.3125ZM39.0547 28.625H40.9453V27.25H39.0547V28.625Z" fill="#05DF72"/>
<path d="M45.1562 29.3125H42.5781C42.487 29.3125 42.3995 29.2763 42.3351 29.2118C42.2706 29.1474 42.2344 29.0599 42.2344 28.9688V26.9062C42.2344 26.8151 42.2706 26.7276 42.3351 26.6632C42.3995 26.5987 42.487 26.5625 42.5781 26.5625H45.1562C45.2474 26.5625 45.3349 26.5987 45.3993 26.6632C45.4638 26.7276 45.5 26.8151 45.5 26.9062V28.9688C45.5 29.0599 45.4638 29.1474 45.3993 29.2118C45.3349 29.2763 45.2474 29.3125 45.1562 29.3125ZM42.9219 28.625H44.8125V27.25H42.9219V28.625Z" fill="#05DF72"/>
<path d="M37.4219 33.4375H34.8438C34.7526 33.4375 34.6651 33.4013 34.6007 33.3368C34.5362 33.2724 34.5 33.1849 34.5 33.0938V31.0312C34.5 30.9401 34.5362 30.8526 34.6007 30.7882C34.6651 30.7237 34.7526 30.6875 34.8438 30.6875H37.4219C37.513 30.6875 37.6005 30.7237 37.6649 30.7882C37.7294 30.8526 37.7656 30.9401 37.7656 31.0312V33.0938C37.7656 33.1849 37.7294 33.2724 37.6649 33.3368C37.6005 33.4013 37.513 33.4375 37.4219 33.4375ZM35.1875 32.75H37.0781V31.375H35.1875V32.75Z" fill="#05DF72"/>
<path d="M41.2891 33.4375H38.7109C38.6198 33.4375 38.5323 33.4013 38.4679 33.3368C38.4034 33.2724 38.3672 33.1849 38.3672 33.0938V31.0312C38.3672 30.9401 38.4034 30.8526 38.4679 30.7882C38.5323 30.7237 38.6198 30.6875 38.7109 30.6875H41.2891C41.3802 30.6875 41.4677 30.7237 41.5321 30.7882C41.5966 30.8526 41.6328 30.9401 41.6328 31.0312V33.0938C41.6328 33.1849 41.5966 33.2724 41.5321 33.3368C41.4677 33.4013 41.3802 33.4375 41.2891 33.4375ZM39.0547 32.75H40.9453V31.375H39.0547V32.75Z" fill="#05DF72"/>
<path d="M45.1562 33.4375H42.5781C42.487 33.4375 42.3995 33.4013 42.3351 33.3368C42.2706 33.2724 42.2344 33.1849 42.2344 33.0938V31.0312C42.2344 30.9401 42.2706 30.8526 42.3351 30.7882C42.3995 30.7237 42.487 30.6875 42.5781 30.6875H45.1562C45.2474 30.6875 45.3349 30.7237 45.3993 30.7882C45.4638 30.8526 45.5 30.9401 45.5 31.0312V33.0938C45.5 33.1849 45.4638 33.2724 45.3993 33.3368C45.3349 33.4013 45.2474 33.4375 45.1562 33.4375ZM42.9219 32.75H44.8125V31.375H42.9219V32.75Z" fill="#05DF72"/>
<path d="M37.4219 37.5625H34.8438C34.7526 37.5625 34.6651 37.5263 34.6007 37.4618C34.5362 37.3974 34.5 37.3099 34.5 37.2188V35.1562C34.5 35.0651 34.5362 34.9776 34.6007 34.9132C34.6651 34.8487 34.7526 34.8125 34.8438 34.8125H37.4219C37.513 34.8125 37.6005 34.8487 37.6649 34.9132C37.7294 34.9776 37.7656 35.0651 37.7656 35.1562V37.2188C37.7656 37.3099 37.7294 37.3974 37.6649 37.4618C37.6005 37.5263 37.513 37.5625 37.4219 37.5625ZM35.1875 36.875H37.0781V35.5H35.1875V36.875Z" fill="#05DF72"/>
<path d="M41.2891 37.5625H38.7109C38.6198 37.5625 38.5323 37.5263 38.4679 37.4618C38.4034 37.3974 38.3672 37.3099 38.3672 37.2188V35.1562C38.3672 35.0651 38.4034 34.9776 38.4679 34.9132C38.5323 34.8487 38.6198 34.8125 38.7109 34.8125H41.2891C41.3802 34.8125 41.4677 34.8487 41.5321 34.9132C41.5966 34.9776 41.6328 35.0651 41.6328 35.1562V37.2188C41.6328 37.3099 41.5966 37.3974 41.5321 37.4618C41.4677 37.5263 41.3802 37.5625 41.2891 37.5625ZM39.0547 36.875H40.9453V35.5H39.0547V36.875Z" fill="#05DF72"/>
<path d="M45.1562 37.5625H42.5781C42.487 37.5625 42.3995 37.5263 42.3351 37.4618C42.2706 37.3974 42.2344 37.3099 42.2344 37.2188V35.1562C42.2344 35.0651 42.2706 34.9776 42.3351 34.9132C42.3995 34.8487 42.487 34.8125 42.5781 34.8125H45.1562C45.2474 34.8125 45.3349 34.8487 45.3993 34.9132C45.4638 34.9776 45.5 35.0651 45.5 35.1562V37.2188C45.5 37.3099 45.4638 37.3974 45.3993 37.4618C45.3349 37.5263 45.2474 37.5625 45.1562 37.5625ZM42.9219 36.875H44.8125V35.5H42.9219V36.875Z" fill="#05DF72"/>
</svg>
