<svg width="80" height="80" viewBox="0 0 80 80" fill="none" xmlns="http://www.w3.org/2000/svg">
<circle cx="40" cy="40" r="40" fill="#FDF2F8"/>
<path d="M6.14489 57V47.5455H7.28977V52.2358H7.40057L11.6477 47.5455H13.1435L9.1733 51.8111L13.1435 57H11.7585L8.47159 52.6051L7.28977 53.9347V57H6.14489ZM15.5671 52.7344V57H14.4776V49.9091H15.5302V51.017H15.6225C15.7887 50.657 16.0411 50.3677 16.3796 50.1491C16.7182 49.9276 17.1552 49.8168 17.6907 49.8168C18.1708 49.8168 18.5909 49.9152 18.951 50.1122C19.3111 50.3061 19.5911 50.6016 19.7912 50.9986C19.9912 51.3925 20.0913 51.8911 20.0913 52.4943V57H19.0018V52.5682C19.0018 52.0111 18.8571 51.5772 18.5678 51.2663C18.2785 50.9524 17.8815 50.7955 17.3768 50.7955C17.029 50.7955 16.7182 50.8709 16.4442 51.0217C16.1734 51.1725 15.9595 51.3925 15.8026 51.6818C15.6456 51.9711 15.5671 52.322 15.5671 52.7344ZM24.9628 57.1477C24.3227 57.1477 23.761 56.9954 23.2778 56.6907C22.7977 56.386 22.4222 55.9598 22.1514 55.4119C21.8836 54.8641 21.7497 54.224 21.7497 53.4915C21.7497 52.7528 21.8836 52.1081 22.1514 51.5572C22.4222 51.0063 22.7977 50.5785 23.2778 50.2738C23.761 49.9691 24.3227 49.8168 24.9628 49.8168C25.603 49.8168 26.1631 49.9691 26.6432 50.2738C27.1264 50.5785 27.5019 51.0063 27.7696 51.5572C28.0405 52.1081 28.1759 52.7528 28.1759 53.4915C28.1759 54.224 28.0405 54.8641 27.7696 55.4119C27.5019 55.9598 27.1264 56.386 26.6432 56.6907C26.1631 56.9954 25.603 57.1477 24.9628 57.1477ZM24.9628 56.169C25.4491 56.169 25.8492 56.0444 26.1631 55.7951C26.477 55.5458 26.7094 55.218 26.8602 54.8118C27.011 54.4055 27.0864 53.9654 27.0864 53.4915C27.0864 53.0175 27.011 52.5759 26.8602 52.1665C26.7094 51.7572 26.477 51.4264 26.1631 51.174C25.8492 50.9216 25.4491 50.7955 24.9628 50.7955C24.4765 50.7955 24.0764 50.9216 23.7625 51.174C23.4486 51.4264 23.2162 51.7572 23.0654 52.1665C22.9146 52.5759 22.8392 53.0175 22.8392 53.4915C22.8392 53.9654 22.9146 54.4055 23.0654 54.8118C23.2162 55.218 23.4486 55.5458 23.7625 55.7951C24.0764 56.0444 24.4765 56.169 24.9628 56.169ZM31.2043 57L29.0438 49.9091H30.1887L31.7213 55.3381H31.7952L33.3094 49.9091H34.4727L35.9685 55.3196H36.0423L37.575 49.9091H38.7199L36.5594 57H35.4884L33.9372 51.5526H33.8264L32.2753 57H31.2043ZM41.2497 47.5455V57H40.1602V47.5455H41.2497ZM46.2182 57.1477C45.535 57.1477 44.9456 56.9969 44.4501 56.6953C43.9577 56.3906 43.5776 55.9659 43.3098 55.4212C43.0452 54.8733 42.9128 54.2363 42.9128 53.5099C42.9128 52.7836 43.0452 52.1435 43.3098 51.5895C43.5776 51.0324 43.95 50.5985 44.427 50.2876C44.9071 49.9737 45.4673 49.8168 46.1074 49.8168C46.4767 49.8168 46.8414 49.8783 47.2015 50.0014C47.5616 50.1245 47.8894 50.3246 48.1848 50.6016C48.4803 50.8755 48.7157 51.2386 48.8912 51.6911C49.0666 52.1435 49.1543 52.7005 49.1543 53.3622V53.8239H43.6884V52.8821H48.0463C48.0463 52.482 47.9663 52.125 47.8063 51.8111C47.6493 51.4972 47.4247 51.2494 47.1323 51.0678C46.843 50.8862 46.5014 50.7955 46.1074 50.7955C45.6735 50.7955 45.298 50.9032 44.981 51.1186C44.6671 51.331 44.4255 51.608 44.2562 51.9496C44.0869 52.2912 44.0023 52.6574 44.0023 53.0483V53.6761C44.0023 54.2116 44.0946 54.6656 44.2793 55.038C44.467 55.4073 44.7271 55.6889 45.0595 55.8828C45.3919 56.0736 45.7781 56.169 46.2182 56.169C46.5044 56.169 46.763 56.129 46.9938 56.049C47.2277 55.9659 47.4293 55.8428 47.5985 55.6797C47.7678 55.5135 47.8986 55.3073 47.9909 55.0611L49.0435 55.3565C48.9327 55.7135 48.7465 56.0275 48.4849 56.2983C48.2233 56.5661 47.9002 56.7753 47.5154 56.9261C47.1307 57.0739 46.6983 57.1477 46.2182 57.1477ZM53.4892 57.1477C52.8983 57.1477 52.3766 56.9985 51.9242 56.6999C51.4718 56.3983 51.1178 55.9736 50.8624 55.4258C50.6069 54.8749 50.4792 54.224 50.4792 53.473C50.4792 52.7282 50.6069 52.0819 50.8624 51.5341C51.1178 50.9863 51.4733 50.5631 51.9288 50.2646C52.3843 49.966 52.9106 49.8168 53.5076 49.8168C53.9693 49.8168 54.334 49.8937 54.6017 50.0476C54.8726 50.1984 55.0788 50.3707 55.2203 50.5646C55.365 50.7554 55.4773 50.9124 55.5574 51.0355H55.6497V47.5455H56.7392V57H55.6866V55.9105H55.5574C55.4773 56.0398 55.3635 56.2029 55.2157 56.3999C55.068 56.5937 54.8572 56.7676 54.5833 56.9215C54.3094 57.0723 53.9447 57.1477 53.4892 57.1477ZM53.6369 56.169C54.0739 56.169 54.4432 56.0552 54.7449 55.8274C55.0465 55.5966 55.2757 55.2781 55.4327 54.8718C55.5897 54.4625 55.6681 53.9901 55.6681 53.4545C55.6681 52.9252 55.5912 52.462 55.4373 52.065C55.2834 51.6649 55.0557 51.354 54.7541 51.1325C54.4525 50.9078 54.0801 50.7955 53.6369 50.7955C53.1752 50.7955 52.7905 50.9139 52.4828 51.1509C52.1781 51.3848 51.9488 51.7034 51.7949 52.1065C51.6441 52.5066 51.5687 52.956 51.5687 53.4545C51.5687 53.9593 51.6457 54.4179 51.7995 54.8303C51.9565 55.2396 52.1873 55.5658 52.492 55.8089C52.7998 56.049 53.1814 56.169 53.6369 56.169ZM61.748 59.8068C61.2218 59.8068 60.7694 59.7391 60.3908 59.6037C60.0123 59.4714 59.6968 59.2959 59.4444 59.0774C59.1951 58.862 58.9966 58.6312 58.8489 58.3849L59.7168 57.7756C59.8153 57.9048 59.9399 58.0526 60.0907 58.2188C60.2415 58.388 60.4477 58.5342 60.7093 58.6573C60.974 58.7835 61.3203 58.8466 61.748 58.8466C62.3205 58.8466 62.7929 58.7081 63.1653 58.4311C63.5377 58.1541 63.7239 57.7202 63.7239 57.1293V55.6889H63.6316C63.5516 55.8182 63.4377 55.9782 63.29 56.169C63.1453 56.3568 62.936 56.5245 62.6621 56.6722C62.3913 56.8169 62.025 56.8892 61.5634 56.8892C60.9909 56.8892 60.477 56.7538 60.0215 56.483C59.5691 56.2121 59.2105 55.8182 58.9458 55.3011C58.6842 54.7841 58.5534 54.1562 58.5534 53.4176C58.5534 52.6913 58.6812 52.0588 58.9366 51.5202C59.1921 50.9786 59.5475 50.56 60.003 50.2646C60.4585 49.966 60.9848 49.8168 61.5819 49.8168C62.0435 49.8168 62.4097 49.8937 62.6806 50.0476C62.9545 50.1984 63.1638 50.3707 63.3084 50.5646C63.4561 50.7554 63.57 50.9124 63.65 51.0355H63.7608V49.9091H64.8134V57.2031C64.8134 57.8125 64.6749 58.308 64.3979 58.6896C64.124 59.0743 63.7547 59.3559 63.29 59.5344C62.8283 59.716 62.3143 59.8068 61.748 59.8068ZM61.7111 55.9105C62.1481 55.9105 62.5175 55.8105 62.8191 55.6104C63.1207 55.4104 63.35 55.1226 63.5069 54.7472C63.6639 54.3717 63.7424 53.9223 63.7424 53.3991C63.7424 52.8883 63.6654 52.4374 63.5115 52.0465C63.3577 51.6557 63.1299 51.3494 62.8283 51.1278C62.5267 50.9062 62.1543 50.7955 61.7111 50.7955C61.2495 50.7955 60.8648 50.9124 60.557 51.1463C60.2523 51.3802 60.023 51.6941 59.8691 52.0881C59.7183 52.482 59.6429 52.919 59.6429 53.3991C59.6429 53.8916 59.7199 54.3271 59.8738 54.7056C60.0307 55.0811 60.2615 55.3765 60.5662 55.592C60.874 55.8043 61.2556 55.9105 61.7111 55.9105ZM69.7807 57.1477C69.0975 57.1477 68.5081 56.9969 68.0126 56.6953C67.5202 56.3906 67.1401 55.9659 66.8723 55.4212C66.6077 54.8733 66.4753 54.2363 66.4753 53.5099C66.4753 52.7836 66.6077 52.1435 66.8723 51.5895C67.1401 51.0324 67.5125 50.5985 67.9895 50.2876C68.4696 49.9737 69.0298 49.8168 69.6699 49.8168C70.0392 49.8168 70.4039 49.8783 70.764 50.0014C71.1241 50.1245 71.4519 50.3246 71.7473 50.6016C72.0428 50.8755 72.2782 51.2386 72.4537 51.6911C72.6291 52.1435 72.7168 52.7005 72.7168 53.3622V53.8239H67.2509V52.8821H71.6088C71.6088 52.482 71.5288 52.125 71.3688 51.8111C71.2118 51.4972 70.9872 51.2494 70.6948 51.0678C70.4055 50.8862 70.0639 50.7955 69.6699 50.7955C69.236 50.7955 68.8605 50.9032 68.5435 51.1186C68.2296 51.331 67.988 51.608 67.8187 51.9496C67.6494 52.2912 67.5648 52.6574 67.5648 53.0483V53.6761C67.5648 54.2116 67.6571 54.6656 67.8418 55.038C68.0295 55.4073 68.2896 55.6889 68.622 55.8828C68.9544 56.0736 69.3406 56.169 69.7807 56.169C70.0669 56.169 70.3255 56.129 70.5563 56.049C70.7902 55.9659 70.9918 55.8428 71.161 55.6797C71.3303 55.5135 71.4611 55.3073 71.5534 55.0611L72.606 55.3565C72.4952 55.7135 72.309 56.0275 72.0474 56.2983C71.7858 56.5661 71.4627 56.7753 71.0779 56.9261C70.6932 57.0739 70.2608 57.1477 69.7807 57.1477Z" fill="#F6339A"/>
<g clip-path="url(#clip0_620_130)">
<path d="M50.5722 33.9563V29.8371H50.1164C48.1862 29.8375 46.4678 30.1714 45.0506 30.6013C44.7728 30.0394 44.452 29.4593 44.1771 28.982C45.3956 27.9422 46.1692 26.3963 46.1692 24.6692C46.1692 21.538 43.6309 19 40.5 19C37.3692 19 34.8309 21.538 34.8309 24.6692C34.8309 26.3963 35.6045 27.9422 36.823 28.982C36.5481 29.4593 36.2273 30.0394 35.9495 30.6013C34.5323 30.1714 32.8139 29.8374 30.884 29.8371H30.4283V33.9563C29.0526 33.9833 28.5269 35.1175 28.5269 36.5136C28.5269 37.9097 29.0526 39.0439 30.4283 39.0706V42.3495L30.868 42.3648L30.8808 42.3652C31.0175 42.3707 32.2713 42.4243 33.9697 42.6517C35.6676 42.8785 37.8111 43.2814 39.7146 43.9727L39.7901 44H41.2099L41.2854 43.9727C43.2506 43.2588 45.4709 42.853 47.1937 42.6302C48.0549 42.5186 48.7921 42.4519 49.3128 42.4136C49.5731 42.3943 49.7787 42.3819 49.9195 42.3746C49.9895 42.3709 50.0434 42.3684 50.0791 42.3669C50.0974 42.3662 50.1105 42.3654 50.1192 42.3651L50.1324 42.3647L50.5721 42.3494V39.0705C51.9474 39.0439 52.4731 37.9097 52.4731 36.5136C52.4731 35.1175 51.9474 33.9833 50.5722 33.9563ZM39.2669 42.8588C37.4166 42.2703 35.4733 41.928 33.9237 41.7267C32.7811 41.5783 31.8535 41.508 31.3394 41.477V38.9226C32.3282 38.5689 33.0359 37.6242 33.0359 36.5137C33.0359 35.4031 32.3282 34.4584 31.3394 34.1044V30.7552C33.7133 30.8233 35.7369 31.414 37.1895 32.0054C37.9613 32.3196 38.5716 32.6336 38.9862 32.8677C39.0934 32.9278 39.1867 32.9825 39.2669 33.031V42.8588ZM41.1257 43.0633C41.1013 43.0717 41.0769 43.0801 41.0524 43.0888H39.9477C39.9232 43.0801 39.8988 43.0717 39.8744 43.0633V33.3296H41.1257V43.0633ZM49.6606 34.1043C48.6719 34.4583 47.9645 35.403 47.9645 36.5136C47.9645 37.6242 48.6718 38.5689 49.6606 38.9225V41.4769C49.1465 41.5079 48.219 41.5783 47.0764 41.7267C45.5268 41.9279 43.5838 42.2703 41.7332 42.8587V33.031C42.1294 32.7929 42.8561 32.3915 43.8471 31.9907C45.2968 31.4041 47.3068 30.8226 49.6607 30.7551L49.6606 34.1043Z" fill="#F6339A"/>
</g>
<defs>
<clipPath id="clip0_620_130">
<rect width="25" height="25" fill="white" transform="translate(28 19)"/>
</clipPath>
</defs>
</svg>
