<svg width="80" height="80" viewBox="0 0 80 80" fill="none" xmlns="http://www.w3.org/2000/svg">
<circle cx="40" cy="40" r="40" fill="#FFF1F2"/>
<path d="M8.41477 55H7.30682L10.5114 46.2727H11.6023L14.8068 55H13.6989L11.0909 47.6534H11.0227L8.41477 55ZM8.82386 51.5909H13.2898V52.5284H8.82386V51.5909ZM20.1548 52.3239V48.4545H21.1605V55H20.1548V53.892H20.0866C19.9332 54.2244 19.6946 54.5071 19.3707 54.7401C19.0469 54.9702 18.6378 55.0852 18.1435 55.0852C17.7344 55.0852 17.3707 54.9957 17.0526 54.8168C16.7344 54.6349 16.4844 54.3622 16.3026 53.9986C16.1207 53.6321 16.0298 53.1705 16.0298 52.6136V48.4545H17.0355V52.5455C17.0355 53.0227 17.169 53.4034 17.4361 53.6875C17.706 53.9716 18.0497 54.1136 18.4673 54.1136C18.7173 54.1136 18.9716 54.0497 19.2301 53.9219C19.4915 53.794 19.7102 53.598 19.8864 53.3338C20.0653 53.0696 20.1548 52.733 20.1548 52.3239ZM25.8491 48.4545V49.3068H22.457V48.4545H25.8491ZM23.4457 46.8864H24.4513V53.125C24.4513 53.4091 24.4925 53.6222 24.5749 53.7642C24.6602 53.9034 24.7681 53.9972 24.8988 54.0455C25.0323 54.0909 25.1729 54.1136 25.3207 54.1136C25.4315 54.1136 25.5224 54.108 25.5934 54.0966C25.6644 54.0824 25.7212 54.071 25.7638 54.0625L25.9684 54.9659C25.9002 54.9915 25.805 55.017 25.6829 55.0426C25.5607 55.071 25.4059 55.0852 25.2184 55.0852C24.9343 55.0852 24.6559 55.0241 24.3832 54.902C24.1133 54.7798 23.8888 54.5938 23.7099 54.3438C23.5337 54.0938 23.4457 53.7784 23.4457 53.3977V46.8864ZM29.9506 55.1364C29.3597 55.1364 28.8413 54.9957 28.3952 54.7145C27.9521 54.4332 27.6055 54.0398 27.3555 53.5341C27.1083 53.0284 26.9847 52.4375 26.9847 51.7614C26.9847 51.0795 27.1083 50.4844 27.3555 49.9759C27.6055 49.4673 27.9521 49.0724 28.3952 48.7912C28.8413 48.5099 29.3597 48.3693 29.9506 48.3693C30.5415 48.3693 31.0586 48.5099 31.5018 48.7912C31.9478 49.0724 32.2944 49.4673 32.5415 49.9759C32.7915 50.4844 32.9165 51.0795 32.9165 51.7614C32.9165 52.4375 32.7915 53.0284 32.5415 53.5341C32.2944 54.0398 31.9478 54.4332 31.5018 54.7145C31.0586 54.9957 30.5415 55.1364 29.9506 55.1364ZM29.9506 54.233C30.3995 54.233 30.7688 54.1179 31.0586 53.8878C31.3484 53.6577 31.5629 53.3551 31.7021 52.9801C31.8413 52.6051 31.9109 52.1989 31.9109 51.7614C31.9109 51.3239 31.8413 50.9162 31.7021 50.5384C31.5629 50.1605 31.3484 49.8551 31.0586 49.6222C30.7688 49.3892 30.3995 49.2727 29.9506 49.2727C29.5018 49.2727 29.1325 49.3892 28.8427 49.6222C28.5529 49.8551 28.3384 50.1605 28.1992 50.5384C28.06 50.9162 27.9904 51.3239 27.9904 51.7614C27.9904 52.1989 28.06 52.6051 28.1992 52.9801C28.3384 53.3551 28.5529 53.6577 28.8427 53.8878C29.1325 54.1179 29.5018 54.233 29.9506 54.233ZM34.4517 55V48.4545H35.4233V49.4773H35.5085C35.6449 49.1278 35.8651 48.8565 36.169 48.6634C36.473 48.4673 36.8381 48.3693 37.2642 48.3693C37.696 48.3693 38.0554 48.4673 38.3423 48.6634C38.6321 48.8565 38.858 49.1278 39.0199 49.4773H39.0881C39.2557 49.1392 39.5071 48.8707 39.8423 48.6719C40.1776 48.4702 40.5795 48.3693 41.0483 48.3693C41.6335 48.3693 42.1122 48.5526 42.4844 48.919C42.8565 49.2827 43.0426 49.8494 43.0426 50.6193V55H42.0369V50.6193C42.0369 50.1364 41.9048 49.7912 41.6406 49.5838C41.3764 49.3764 41.0653 49.2727 40.7074 49.2727C40.2472 49.2727 39.8906 49.4119 39.6378 49.6903C39.3849 49.9659 39.2585 50.3153 39.2585 50.7386V55H38.2358V50.517C38.2358 50.1449 38.1151 49.8452 37.8736 49.6179C37.6321 49.3878 37.321 49.2727 36.9403 49.2727C36.679 49.2727 36.4347 49.3423 36.2074 49.4815C35.983 49.6207 35.8011 49.8139 35.6619 50.0611C35.5256 50.3054 35.4574 50.5881 35.4574 50.9091V55H34.4517ZM46.8075 55.1534C46.3928 55.1534 46.0163 55.0753 45.6783 54.919C45.3402 54.7599 45.0717 54.5312 44.8729 54.233C44.674 53.9318 44.5746 53.5682 44.5746 53.142C44.5746 52.767 44.6484 52.4631 44.7962 52.2301C44.9439 51.9943 45.1413 51.8097 45.3885 51.6761C45.6357 51.5426 45.9084 51.4432 46.2067 51.3778C46.5078 51.3097 46.8104 51.2557 47.1143 51.2159C47.5121 51.1648 47.8345 51.1264 48.0817 51.1009C48.3317 51.0724 48.5135 51.0256 48.6271 50.9602C48.7436 50.8949 48.8018 50.7812 48.8018 50.6193V50.5852C48.8018 50.1648 48.6868 49.8381 48.4567 49.6051C48.2294 49.3722 47.8842 49.2557 47.4212 49.2557C46.9411 49.2557 46.5646 49.3608 46.2919 49.571C46.0192 49.7812 45.8274 50.0057 45.7166 50.2443L44.7621 49.9034C44.9325 49.5057 45.1598 49.196 45.4439 48.9744C45.7308 48.75 46.0433 48.5937 46.3814 48.5057C46.7223 48.4148 47.0575 48.3693 47.3871 48.3693C47.5973 48.3693 47.8388 48.3949 48.1115 48.446C48.3871 48.4943 48.6527 48.5952 48.9084 48.7486C49.1669 48.902 49.3814 49.1335 49.5518 49.4432C49.7223 49.7528 49.8075 50.1676 49.8075 50.6875V55H48.8018V54.1136H48.7507C48.6825 54.2557 48.5689 54.4077 48.4098 54.5696C48.2507 54.7315 48.0391 54.8693 47.7749 54.983C47.5107 55.0966 47.1882 55.1534 46.8075 55.1534ZM46.9609 54.25C47.3587 54.25 47.6939 54.1719 47.9666 54.0156C48.2422 53.8594 48.4496 53.6577 48.5888 53.4105C48.7308 53.1634 48.8018 52.9034 48.8018 52.6307V51.7102C48.7592 51.7614 48.6655 51.8082 48.5206 51.8509C48.3786 51.8906 48.2138 51.9261 48.0263 51.9574C47.8416 51.9858 47.6612 52.0114 47.4851 52.0341C47.3118 52.054 47.1712 52.071 47.0632 52.0852C46.8018 52.1193 46.5575 52.1747 46.3303 52.2514C46.1058 52.3253 45.924 52.4375 45.7848 52.5881C45.6484 52.7358 45.5803 52.9375 45.5803 53.1932C45.5803 53.5426 45.7095 53.8068 45.968 53.9858C46.2294 54.1619 46.5604 54.25 46.9609 54.25ZM54.4897 48.4545V49.3068H51.0977V48.4545H54.4897ZM52.0863 46.8864H53.092V53.125C53.092 53.4091 53.1332 53.6222 53.2156 53.7642C53.3008 53.9034 53.4087 53.9972 53.5394 54.0455C53.6729 54.0909 53.8136 54.1136 53.9613 54.1136C54.0721 54.1136 54.163 54.108 54.234 54.0966C54.305 54.0824 54.3619 54.071 54.4045 54.0625L54.609 54.9659C54.5408 54.9915 54.4457 55.017 54.3235 55.0426C54.2013 55.071 54.0465 55.0852 53.859 55.0852C53.5749 55.0852 53.2965 55.0241 53.0238 54.902C52.7539 54.7798 52.5295 54.5938 52.3505 54.3438C52.1744 54.0938 52.0863 53.7784 52.0863 53.3977V46.8864ZM56.0025 55V48.4545H57.0082V55H56.0025ZM56.5138 47.3636C56.3178 47.3636 56.1488 47.2969 56.0067 47.1634C55.8675 47.0298 55.7979 46.8693 55.7979 46.6818C55.7979 46.4943 55.8675 46.3338 56.0067 46.2003C56.1488 46.0668 56.3178 46 56.5138 46C56.7099 46 56.8775 46.0668 57.0167 46.2003C57.1587 46.3338 57.2298 46.4943 57.2298 46.6818C57.2298 46.8693 57.1587 47.0298 57.0167 47.1634C56.8775 47.2969 56.7099 47.3636 56.5138 47.3636ZM61.5092 55.1364C60.9183 55.1364 60.3999 54.9957 59.9538 54.7145C59.5107 54.4332 59.1641 54.0398 58.9141 53.5341C58.6669 53.0284 58.5433 52.4375 58.5433 51.7614C58.5433 51.0795 58.6669 50.4844 58.9141 49.9759C59.1641 49.4673 59.5107 49.0724 59.9538 48.7912C60.3999 48.5099 60.9183 48.3693 61.5092 48.3693C62.1001 48.3693 62.6172 48.5099 63.0604 48.7912C63.5064 49.0724 63.853 49.4673 64.1001 49.9759C64.3501 50.4844 64.4751 51.0795 64.4751 51.7614C64.4751 52.4375 64.3501 53.0284 64.1001 53.5341C63.853 54.0398 63.5064 54.4332 63.0604 54.7145C62.6172 54.9957 62.1001 55.1364 61.5092 55.1364ZM61.5092 54.233C61.9581 54.233 62.3274 54.1179 62.6172 53.8878C62.907 53.6577 63.1214 53.3551 63.2607 52.9801C63.3999 52.6051 63.4695 52.1989 63.4695 51.7614C63.4695 51.3239 63.3999 50.9162 63.2607 50.5384C63.1214 50.1605 62.907 49.8551 62.6172 49.6222C62.3274 49.3892 61.9581 49.2727 61.5092 49.2727C61.0604 49.2727 60.6911 49.3892 60.4013 49.6222C60.1115 49.8551 59.897 50.1605 59.7578 50.5384C59.6186 50.9162 59.549 51.3239 59.549 51.7614C59.549 52.1989 59.6186 52.6051 59.7578 52.9801C59.897 53.3551 60.1115 53.6577 60.4013 53.8878C60.6911 54.1179 61.0604 54.233 61.5092 54.233ZM67.016 51.0625V55H66.0103V48.4545H66.9819V49.4773H67.0671C67.2205 49.1449 67.4535 48.8778 67.766 48.6761C68.0785 48.4716 68.4819 48.3693 68.9762 48.3693C69.4194 48.3693 69.8072 48.4602 70.1396 48.642C70.4719 48.821 70.7305 49.0938 70.9151 49.4602C71.0998 49.8239 71.1921 50.2841 71.1921 50.8409V55H70.1864V50.9091C70.1864 50.3949 70.0529 49.9943 69.7859 49.7074C69.5188 49.4176 69.1523 49.2727 68.6864 49.2727C68.3654 49.2727 68.0785 49.3423 67.8256 49.4815C67.5756 49.6207 67.3782 49.8239 67.2333 50.0909C67.0884 50.358 67.016 50.6818 67.016 51.0625Z" fill="#FF637E"/>
<path fill-rule="evenodd" clip-rule="evenodd" d="M47.9998 34.927C49.0429 36.9384 48.5309 39.4057 46.7735 40.8359C45.0161 42.266 42.4961 42.266 40.7387 40.8359C38.9813 39.4057 38.4692 36.9384 39.5124 34.927L36.0841 31.4987C34.7754 31.8475 33.38 31.6185 32.2515 30.8698L28.0488 35.0732L26 33.0244L30.4233 28.6011C29.5832 26.4336 30.4241 23.976 32.4159 22.7774C34.4077 21.5788 36.9729 21.9868 38.4946 23.7441C40.0163 25.5015 40.0533 28.0987 38.5822 29.8987L41.5619 32.8783C42.9376 32.1627 44.5759 32.1627 45.9517 32.8783L51.9512 26.8781L54 28.9268L47.9998 34.927Z" fill="#FF637E"/>
<path fill-rule="evenodd" clip-rule="evenodd" d="M34.8779 24.8293C36.0094 24.8293 36.9267 25.7466 36.9267 26.8781C36.9267 28.0096 36.0094 28.9268 34.8779 28.9268C33.7464 28.9268 32.8291 28.0096 32.8291 26.8781C32.8291 25.7466 33.7464 24.8293 34.8779 24.8293ZM43.7559 35.0732C44.8874 35.0732 45.8047 35.9905 45.8047 37.122C45.8047 38.2535 44.8874 39.1707 43.7559 39.1707C42.6244 39.1707 41.7072 38.2535 41.7072 37.122C41.7072 35.9905 42.6244 35.0732 43.7559 35.0732Z" fill="#0C0058"/>
</svg>
