<svg width="80" height="80" viewBox="0 0 80 80" fill="none" xmlns="http://www.w3.org/2000/svg">
<circle cx="40" cy="40" r="40" fill="#EFF6FF"/>
<path d="M16.4659 46.8182V57H15.233V46.8182H16.4659ZM19.9522 52.4062V57H18.7789V49.3636H19.9125V50.5568H20.0119C20.1909 50.169 20.4627 49.8575 20.8272 49.6222C21.1918 49.3835 21.6625 49.2642 22.2392 49.2642C22.7562 49.2642 23.2086 49.3703 23.5964 49.5824C23.9842 49.7912 24.2858 50.1094 24.5012 50.5369C24.7167 50.9612 24.8244 51.4981 24.8244 52.1477V57H23.6511V52.2273C23.6511 51.6274 23.4953 51.16 23.1838 50.8253C22.8722 50.4872 22.4447 50.3182 21.9011 50.3182C21.5266 50.3182 21.1918 50.3994 20.8968 50.5618C20.6052 50.7242 20.3748 50.9612 20.2058 51.2727C20.0368 51.5843 19.9522 51.9621 19.9522 52.4062ZM32.3775 51.0739L31.3235 51.3722C31.2572 51.1965 31.1594 51.0258 31.0302 50.8601C30.9042 50.6911 30.7319 50.5518 30.5131 50.4425C30.2944 50.3331 30.0143 50.2784 29.6729 50.2784C29.2056 50.2784 28.8162 50.3861 28.5046 50.6016C28.1964 50.8137 28.0423 51.0838 28.0423 51.4119C28.0423 51.7036 28.1483 51.9339 28.3604 52.103C28.5726 52.272 28.904 52.4129 29.3548 52.5256L30.4883 52.804C31.171 52.9697 31.6798 53.2232 32.0146 53.5646C32.3493 53.9027 32.5167 54.3385 32.5167 54.8722C32.5167 55.3097 32.3907 55.7008 32.1388 56.0455C31.8903 56.3902 31.5423 56.6619 31.0948 56.8608C30.6474 57.0597 30.127 57.1591 29.5337 57.1591C28.7549 57.1591 28.1102 56.9901 27.5998 56.652C27.0894 56.3139 26.7662 55.8201 26.6303 55.1705L27.744 54.892C27.85 55.303 28.0505 55.6113 28.3455 55.8168C28.6438 56.0223 29.0333 56.125 29.5138 56.125C30.0607 56.125 30.4949 56.009 30.8164 55.777C31.1412 55.5417 31.3036 55.2599 31.3036 54.9318C31.3036 54.6667 31.2108 54.4446 31.0252 54.2656C30.8396 54.0833 30.5546 53.9474 30.1701 53.858L28.8974 53.5597C28.198 53.3939 27.6843 53.1371 27.3562 52.7891C27.0314 52.4377 26.869 51.9986 26.869 51.4716C26.869 51.0407 26.9899 50.6596 27.2319 50.3281C27.4772 49.9967 27.8103 49.7365 28.2312 49.5476C28.6554 49.3587 29.136 49.2642 29.6729 49.2642C30.4286 49.2642 31.0219 49.4299 31.4528 49.7614C31.887 50.0928 32.1952 50.5303 32.3775 51.0739ZM34.2828 57V49.3636H35.4561V57H34.2828ZM34.8794 48.0909C34.6507 48.0909 34.4535 48.013 34.2878 47.8572C34.1254 47.7015 34.0442 47.5142 34.0442 47.2955C34.0442 47.0767 34.1254 46.8894 34.2878 46.7337C34.4535 46.5779 34.6507 46.5 34.8794 46.5C35.1081 46.5 35.3037 46.5779 35.4661 46.7337C35.6318 46.8894 35.7147 47.0767 35.7147 47.2955C35.7147 47.5142 35.6318 47.7015 35.4661 47.8572C35.3037 48.013 35.1081 48.0909 34.8794 48.0909ZM40.6875 60.0227C40.1207 60.0227 39.6335 59.9498 39.2259 59.804C38.8182 59.6615 38.4785 59.4725 38.2067 59.2372C37.9382 59.0052 37.7244 58.7566 37.5653 58.4915L38.5 57.8352C38.6061 57.9744 38.7403 58.1335 38.9027 58.3125C39.0651 58.4948 39.2872 58.6522 39.5689 58.7848C39.8539 58.9207 40.2268 58.9886 40.6875 58.9886C41.304 58.9886 41.8127 58.8395 42.2138 58.5412C42.6148 58.2429 42.8153 57.7756 42.8153 57.1392V55.5881H42.7159C42.6297 55.7273 42.5071 55.8996 42.348 56.1051C42.1922 56.3073 41.9669 56.4879 41.6719 56.647C41.3802 56.8028 40.9858 56.8807 40.4886 56.8807C39.8722 56.8807 39.3187 56.7348 38.8281 56.4432C38.3409 56.1515 37.9548 55.7273 37.6697 55.1705C37.388 54.6136 37.2472 53.9375 37.2472 53.142C37.2472 52.3598 37.3847 51.6787 37.6598 51.0987C37.9349 50.5154 38.3177 50.0646 38.8082 49.7464C39.2988 49.425 39.8655 49.2642 40.5085 49.2642C41.0057 49.2642 41.4001 49.3471 41.6918 49.5128C41.9867 49.6752 42.2121 49.8608 42.3679 50.0696C42.527 50.2751 42.6496 50.4441 42.7358 50.5767H42.8551V49.3636H43.9886V57.2188C43.9886 57.875 43.8395 58.4086 43.5412 58.8196C43.2462 59.2339 42.8485 59.5372 42.348 59.7294C41.8509 59.925 41.2973 60.0227 40.6875 60.0227ZM40.6477 55.8267C41.1184 55.8267 41.5161 55.719 41.8409 55.5036C42.1657 55.2881 42.4126 54.9782 42.5817 54.5739C42.7507 54.1695 42.8352 53.6856 42.8352 53.1222C42.8352 52.572 42.7524 52.0864 42.5866 51.6655C42.4209 51.2446 42.1757 50.9148 41.8509 50.6761C41.526 50.4375 41.125 50.3182 40.6477 50.3182C40.1506 50.3182 39.7363 50.4441 39.4048 50.696C39.0767 50.9479 38.8298 51.286 38.6641 51.7102C38.5017 52.1345 38.4205 52.6051 38.4205 53.1222C38.4205 53.6525 38.5033 54.1214 38.669 54.5291C38.8381 54.9335 39.0866 55.2517 39.4148 55.4837C39.7462 55.7124 40.1572 55.8267 40.6477 55.8267ZM47.3097 52.4062V57H46.1364V46.8182H47.3097V50.5568H47.4091C47.5881 50.1624 47.8565 49.8492 48.2145 49.6172C48.5758 49.3819 49.0563 49.2642 49.6562 49.2642C50.1766 49.2642 50.6323 49.3686 51.0234 49.5774C51.4145 49.7829 51.7178 50.0994 51.9332 50.527C52.152 50.9512 52.2614 51.4915 52.2614 52.1477V57H51.0881V52.2273C51.0881 51.6207 50.9306 51.1518 50.6158 50.8203C50.3042 50.4856 49.8717 50.3182 49.3182 50.3182C48.9337 50.3182 48.589 50.3994 48.2841 50.5618C47.9825 50.7242 47.7438 50.9612 47.5682 51.2727C47.3958 51.5843 47.3097 51.9621 47.3097 52.4062ZM57.7289 49.3636V50.358H53.7715V49.3636H57.7289ZM54.9249 47.5341H56.0982V54.8125C56.0982 55.1439 56.1462 55.3925 56.2424 55.5582C56.3418 55.7206 56.4677 55.83 56.6202 55.8864C56.776 55.9394 56.94 55.9659 57.1124 55.9659C57.2417 55.9659 57.3477 55.9593 57.4306 55.946C57.5134 55.9295 57.5797 55.9162 57.6294 55.9062L57.8681 56.9602C57.7885 56.9901 57.6775 57.0199 57.535 57.0497C57.3925 57.0829 57.2118 57.0994 56.9931 57.0994C56.6616 57.0994 56.3368 57.0282 56.0186 56.8857C55.7038 56.7431 55.4419 56.526 55.2331 56.2344C55.0276 55.9427 54.9249 55.5748 54.9249 55.1307V47.5341ZM64.7662 51.0739L63.7122 51.3722C63.6459 51.1965 63.5481 51.0258 63.4189 50.8601C63.2929 50.6911 63.1206 50.5518 62.9018 50.4425C62.6831 50.3331 62.403 50.2784 62.0616 50.2784C61.5943 50.2784 61.2048 50.3861 60.8933 50.6016C60.585 50.8137 60.4309 51.0838 60.4309 51.4119C60.4309 51.7036 60.537 51.9339 60.7491 52.103C60.9612 52.272 61.2927 52.4129 61.7434 52.5256L62.877 52.804C63.5597 52.9697 64.0685 53.2232 64.4032 53.5646C64.738 53.9027 64.9054 54.3385 64.9054 54.8722C64.9054 55.3097 64.7794 55.7008 64.5275 56.0455C64.2789 56.3902 63.9309 56.6619 63.4835 56.8608C63.036 57.0597 62.5157 57.1591 61.9224 57.1591C61.1435 57.1591 60.4989 56.9901 59.9885 56.652C59.478 56.3139 59.1549 55.8201 59.019 55.1705L60.1326 54.892C60.2387 55.303 60.4392 55.6113 60.7342 55.8168C61.0325 56.0223 61.4219 56.125 61.9025 56.125C62.4494 56.125 62.8836 56.009 63.2051 55.777C63.5299 55.5417 63.6923 55.2599 63.6923 54.9318C63.6923 54.6667 63.5995 54.4446 63.4139 54.2656C63.2283 54.0833 62.9432 53.9474 62.5588 53.858L61.286 53.5597C60.5867 53.3939 60.073 53.1371 59.7449 52.7891C59.42 52.4377 59.2576 51.9986 59.2576 51.4716C59.2576 51.0407 59.3786 50.6596 59.6206 50.3281C59.8658 49.9967 60.1989 49.7365 60.6199 49.5476C61.0441 49.3587 61.5247 49.2642 62.0616 49.2642C62.8173 49.2642 63.4106 49.4299 63.8414 49.7614C64.2756 50.0928 64.5839 50.5303 64.7662 51.0739Z" fill="#47B5FF"/>
<path d="M33.4832 27.0325C33.559 27.0325 33.6361 27.0184 33.7108 26.9887L43.5399 23.0722L43.0905 24.1171C42.9563 24.4293 43.1005 24.7911 43.4127 24.9254C43.4919 24.9594 43.5744 24.9756 43.6555 24.9756C43.8939 24.9756 44.1208 24.8361 44.221 24.6032L45.257 22.194C45.2578 22.1921 45.2583 22.1902 45.2591 22.1884C45.2661 22.1716 45.2726 22.1545 45.2781 22.1371C45.2811 22.1279 45.2832 22.1185 45.2857 22.1092C45.2883 22.0991 45.2914 22.0892 45.2935 22.079C45.2958 22.0684 45.2972 22.0577 45.2989 22.047C45.3003 22.0379 45.3021 22.0288 45.3032 22.0196C45.3044 22.009 45.3048 21.9985 45.3054 21.9879C45.306 21.9783 45.3069 21.9689 45.3069 21.9593C45.3071 21.9493 45.3065 21.9393 45.3061 21.9293C45.3058 21.9192 45.3056 21.9091 45.3048 21.899C45.3039 21.8892 45.3023 21.8795 45.3011 21.8698C45.2997 21.8597 45.2987 21.8495 45.2967 21.8393C45.2948 21.8284 45.2918 21.8176 45.2892 21.8068C45.2871 21.7981 45.2855 21.7894 45.2829 21.7807C45.2774 21.7612 45.2709 21.7421 45.2633 21.7233V21.7232C45.2558 21.7044 45.2473 21.686 45.238 21.6679C45.2338 21.6597 45.2288 21.6521 45.2243 21.6441C45.2189 21.6347 45.2137 21.6251 45.2078 21.616C45.202 21.607 45.1955 21.5986 45.1893 21.59C45.1838 21.5824 45.1785 21.5746 45.1726 21.5672C45.166 21.5589 45.1589 21.5512 45.1519 21.5433C45.1455 21.5361 45.1394 21.5288 45.1327 21.5219C45.1257 21.5147 45.1182 21.5081 45.1108 21.5012C45.1035 21.4944 45.0963 21.4873 45.0885 21.4808C45.0809 21.4744 45.0729 21.4686 45.065 21.4626C45.057 21.4565 45.0491 21.4501 45.0407 21.4443C45.0313 21.4378 45.0214 21.4321 45.0116 21.4261C45.0042 21.4216 44.9972 21.4168 44.9895 21.4126C44.9717 21.4028 44.9534 21.3937 44.9347 21.3857L42.5256 20.3497C42.2136 20.2155 41.8516 20.3597 41.7173 20.6718C41.5831 20.984 41.7273 21.3458 42.0395 21.4801L43.0841 21.9293L33.2553 25.8456C32.9397 25.9714 32.7858 26.3292 32.9115 26.6449C33.0075 26.8858 33.2388 27.0325 33.4832 27.0325Z" fill="#47B5FF"/>
<path d="M31.2305 33.2655C31.2305 32.8625 31.5583 32.5346 31.9614 32.5346C32.3644 32.5346 32.6923 32.8625 32.6923 33.2655V37.47H31.2305V33.2655ZM36.923 30.677C36.923 30.4814 36.9989 30.2979 37.1373 30.1597C37.2749 30.022 37.4583 29.9461 37.6539 29.9461C37.8493 29.9461 38.0326 30.022 38.1708 30.1604C38.3088 30.2982 38.3848 30.4817 38.3848 30.677V37.47H36.923V30.677ZM42.6152 28.5081C42.6152 28.1051 42.9431 27.7772 43.3461 27.7772C43.7491 27.7772 44.077 28.1051 44.077 28.5081V37.47H42.6152V28.5081ZM48.3077 25.486C48.3077 25.083 48.6356 24.7552 49.0386 24.7552C49.4417 24.7552 49.7695 25.083 49.7695 25.486V37.47H48.3077V25.486ZM49.0386 23.5247C47.9571 23.5247 47.0773 24.4046 47.0773 25.486V37.47H45.3074V28.5081C45.3074 27.4266 44.4276 26.5467 43.3461 26.5467C42.2646 26.5467 41.3847 27.4266 41.3847 28.5081V37.47H39.6153V30.677C39.6153 30.1526 39.411 29.6599 39.0409 29.2904C38.6709 28.9198 38.1784 28.7156 37.6539 28.7156C37.1293 28.7156 36.6365 28.9198 36.2673 29.2896C35.8967 29.6597 35.6926 30.1524 35.6926 30.677V37.47H33.9227V33.2655C33.9227 32.184 33.0429 31.3042 31.9614 31.3042C30.8799 31.3042 30 32.184 30 33.2655V38.0853C30 38.425 30.2755 38.7005 30.6152 38.7005H50.3848C50.7245 38.7005 51 38.425 51 38.0853V25.486C51 24.4046 50.1201 23.5247 49.0386 23.5247Z" fill="#47B5FF"/>
</svg>
