<svg width="132" height="133" viewBox="0 0 132 133" fill="none" xmlns="http://www.w3.org/2000/svg">
<mask id="mask0_624_9" style="mask-type:luminance" maskUnits="userSpaceOnUse" x="0" y="0" width="132" height="133">
<path d="M0 0H132V133H0V0Z" fill="white"/>
</mask>
<g mask="url(#mask0_624_9)">
<path d="M121.347 103.913C121.347 104.268 121.222 104.57 120.971 104.821C120.721 105.071 120.418 105.197 120.064 105.197C119.71 105.197 119.407 105.071 119.157 104.821C118.906 104.57 118.781 104.268 118.781 103.913C118.781 103.559 118.906 103.257 119.157 103.006C119.407 102.756 119.71 102.63 120.064 102.63C120.418 102.63 120.721 102.756 120.971 103.006C121.222 103.257 121.347 103.559 121.347 103.913Z" fill="#1363DF"/>
<path d="M104.71 118.378C104.851 118.519 104.96 118.682 105.036 118.866C105.113 119.051 105.151 119.243 105.151 119.442C105.151 119.642 105.113 119.834 105.036 120.019C104.96 120.203 104.851 120.366 104.71 120.507C104.569 120.648 104.406 120.757 104.221 120.834C104.037 120.91 103.845 120.948 103.645 120.948C103.445 120.948 103.253 120.91 103.069 120.834C102.884 120.757 102.722 120.648 102.58 120.507C102.439 120.366 102.33 120.203 102.254 120.019C102.178 119.834 102.139 119.642 102.139 119.442C102.139 119.243 102.178 119.051 102.254 118.866C102.33 118.682 102.439 118.519 102.58 118.378C102.722 118.236 102.884 118.128 103.069 118.051C103.253 117.975 103.445 117.937 103.645 117.937C103.845 117.937 104.037 117.975 104.221 118.051C104.406 118.128 104.569 118.236 104.71 118.378Z" fill="#1363DF"/>
<path d="M91.6769 111.992C91.7199 112.175 91.7264 112.358 91.6964 112.543C91.6663 112.728 91.6021 112.901 91.5036 113.06C91.405 113.219 91.2798 113.354 91.1278 113.463C90.9757 113.573 90.8086 113.649 90.6262 113.692C90.4438 113.735 90.2602 113.742 90.0752 113.712C89.8902 113.682 89.7181 113.617 89.5587 113.519C89.3993 113.42 89.2648 113.295 89.1553 113.143C89.0457 112.991 88.9694 112.824 88.9264 112.642C88.8833 112.459 88.8768 112.276 88.9069 112.091C88.9369 111.906 89.0011 111.733 89.0997 111.574C89.1982 111.415 89.3234 111.28 89.4755 111.171C89.6275 111.061 89.7947 110.985 89.977 110.942C90.1594 110.899 90.343 110.892 90.528 110.922C90.713 110.952 90.8851 111.017 91.0445 111.115C91.2039 111.214 91.3384 111.339 91.4479 111.491C91.5575 111.643 91.6338 111.81 91.6769 111.992Z" fill="#1363DF"/>
<path d="M71.0642 122.86C71.0642 123.21 70.9405 123.509 70.693 123.757C70.4456 124.004 70.1469 124.128 69.797 124.128C69.4471 124.128 69.1484 124.004 68.9009 123.757C68.6535 123.509 68.5298 123.21 68.5298 122.86C68.5298 122.511 68.6535 122.212 68.9009 121.964C69.1484 121.717 69.4471 121.593 69.797 121.593C70.1469 121.593 70.4456 121.717 70.693 121.964C70.9405 122.212 71.0642 122.511 71.0642 122.86Z" fill="#1363DF"/>
<path d="M83.475 91.0372C83.6725 91.119 83.8468 91.2355 83.9979 91.3866C84.149 91.5378 84.2655 91.7121 84.3473 91.9095C84.4291 92.107 84.47 92.3126 84.47 92.5264C84.47 92.7401 84.4291 92.9457 84.3473 93.1432C84.2655 93.3407 84.149 93.515 83.9979 93.6661C83.8468 93.8173 83.6725 93.9337 83.475 94.0155C83.2775 94.0973 83.0719 94.1382 82.8582 94.1382C82.6444 94.1382 82.4388 94.0973 82.2414 94.0155C82.0439 93.9337 81.8696 93.8173 81.7184 93.6661C81.5673 93.515 81.4508 93.3407 81.369 93.1432C81.2872 92.9457 81.2463 92.7401 81.2463 92.5264C81.2463 92.3126 81.2872 92.107 81.369 91.9095C81.4508 91.7121 81.5673 91.5378 81.7184 91.3866C81.8696 91.2355 82.0439 91.119 82.2413 91.0372C82.4388 90.9554 82.6444 90.9145 82.8582 90.9145C83.0719 90.9145 83.2775 90.9554 83.475 91.0372Z" fill="#1363DF"/>
<path d="M117.288 19.2757C117.288 19.5795 117.181 19.8389 116.966 20.0537C116.751 20.2685 116.492 20.3759 116.188 20.3759C115.884 20.3759 115.625 20.2685 115.41 20.0537C115.195 19.8389 115.088 19.5795 115.088 19.2757C115.088 18.9719 115.195 18.7126 115.41 18.4978C115.625 18.2829 115.884 18.1755 116.188 18.1755C116.492 18.1755 116.751 18.2829 116.966 18.4978C117.181 18.7126 117.288 18.9719 117.288 19.2757Z" fill="#1363DF"/>
<path d="M127.715 38.6549C128.293 38.6549 128.762 38.1856 128.762 37.6077C128.762 37.0298 128.293 36.5605 127.715 36.5605C127.137 36.5605 126.668 37.0298 126.668 37.6077C126.668 38.1856 127.137 38.6549 127.715 38.6549Z" fill="#1363DF"/>
<path d="M86.8899 33.7508C87.0176 33.8786 87.1161 34.026 87.1852 34.1929C87.2544 34.3598 87.289 34.5337 87.289 34.7144C87.289 34.8951 87.2544 35.0689 87.1852 35.2358C87.1161 35.4028 87.0176 35.5501 86.8899 35.6779C86.7621 35.8057 86.6147 35.9041 86.4478 35.9733C86.2808 36.0424 86.107 36.077 85.9263 36.077C85.7456 36.077 85.5718 36.0424 85.4049 35.9733C85.2379 35.9041 85.0906 35.8057 84.9628 35.6779C84.835 35.5501 84.7366 35.4028 84.6674 35.2358C84.5983 35.0689 84.5637 34.8951 84.5637 34.7144C84.5637 34.5337 84.5983 34.3598 84.6674 34.1929C84.7366 34.026 84.835 33.8786 84.9628 33.7508C85.0906 33.6231 85.2379 33.5246 85.4049 33.4554C85.5718 33.3863 85.7456 33.3517 85.9263 33.3517C86.107 33.3517 86.2808 33.3863 86.4478 33.4554C86.6147 33.5246 86.7621 33.6231 86.8899 33.7508Z" fill="#1363DF"/>
<path d="M99.126 37.2225C99.2537 37.3503 99.3522 37.4976 99.4213 37.6646C99.4905 37.8315 99.5251 38.0053 99.5251 38.186C99.5251 38.3667 99.4905 38.5406 99.4213 38.7075C99.3522 38.8744 99.2537 39.0218 99.126 39.1496C98.9982 39.2773 98.8508 39.3758 98.6839 39.445C98.5169 39.5141 98.3431 39.5487 98.1624 39.5487C97.9817 39.5487 97.8079 39.5141 97.641 39.445C97.474 39.3758 97.3267 39.2773 97.1989 39.1496C97.0711 39.0218 96.9726 38.8744 96.9035 38.7075C96.8343 38.5406 96.7998 38.3667 96.7998 38.186C96.7998 38.0053 96.8343 37.8315 96.9035 37.6646C96.9726 37.4976 97.0711 37.3503 97.1989 37.2225C97.3267 37.0947 97.474 36.9963 97.641 36.9271C97.8079 36.858 97.9817 36.8234 98.1624 36.8234C98.3431 36.8234 98.5169 36.858 98.6839 36.9271C98.8508 36.9963 98.9982 37.0947 99.126 37.2225Z" fill="#1363DF"/>
<path d="M101.047 48.3542C101.214 48.4234 101.361 48.5218 101.489 48.6496C101.617 48.7774 101.716 48.9247 101.785 49.0917C101.854 49.2586 101.888 49.4324 101.888 49.6131C101.888 49.7938 101.854 49.9676 101.785 50.1346C101.716 50.3015 101.617 50.4489 101.489 50.5767C101.361 50.7045 101.214 50.8029 101.047 50.872C100.88 50.9412 100.706 50.9758 100.526 50.9758C100.345 50.9758 100.171 50.9412 100.004 50.872C99.8373 50.8029 99.69 50.7044 99.5622 50.5767C99.4344 50.4489 99.336 50.3015 99.2668 50.1346C99.1977 49.9677 99.1631 49.7938 99.1631 49.6131C99.1631 49.4324 99.1977 49.2586 99.2668 49.0917C99.336 48.9247 99.4344 48.7774 99.5622 48.6496C99.69 48.5218 99.8373 48.4234 100.004 48.3542C100.171 48.2851 100.345 48.2505 100.526 48.2505C100.706 48.2505 100.88 48.2851 101.047 48.3542Z" fill="#1363DF"/>
<path d="M100.849 74.8567C100.89 75.0325 100.897 75.2096 100.868 75.388C100.839 75.5664 100.777 75.7324 100.682 75.8861C100.587 76.0398 100.466 76.1695 100.319 76.2751C100.173 76.3808 100.012 76.4544 99.8358 76.4959C99.6599 76.5374 99.4828 76.5437 99.3044 76.5147C99.126 76.4858 98.96 76.4238 98.8063 76.3288C98.6526 76.2338 98.5229 76.113 98.4173 75.9664C98.3116 75.8198 98.2381 75.6586 98.1966 75.4827C98.155 75.3068 98.1488 75.1297 98.1777 74.9514C98.2067 74.773 98.2686 74.607 98.3637 74.4533C98.4587 74.2995 98.5794 74.1699 98.726 74.0642C98.8726 73.9586 99.0339 73.885 99.2097 73.8435C99.3856 73.802 99.5627 73.7957 99.7411 73.8247C99.9194 73.8536 100.085 73.9156 100.239 74.0106C100.393 74.1056 100.523 74.2264 100.628 74.373C100.734 74.5196 100.807 74.6808 100.849 74.8567Z" fill="#1363DF"/>
<path d="M85.9261 19.9888C85.3375 19.9888 84.8604 20.466 84.8604 21.0545C84.8604 21.643 85.3375 22.1202 85.9261 22.1202C86.5146 22.1202 86.9918 21.643 86.9918 21.0545C86.9918 20.466 86.5146 19.9888 85.9261 19.9888Z" fill="#1363DF"/>
<path d="M81.5412 2.36721C82.1774 2.36721 82.6944 1.85026 82.6944 1.214C82.6944 0.577747 82.1774 0.060791 81.5412 0.060791C80.9049 0.060791 80.3879 0.577747 80.3879 1.214C80.3879 1.85026 80.9049 2.36721 81.5412 2.36721Z" fill="#1363DF"/>
<path d="M129.478 67.1776C130.321 67.1776 131.002 66.4936 131.002 65.6532C131.002 64.8128 130.318 64.1288 129.478 64.1288C128.637 64.1288 127.953 64.8128 127.953 65.6532C127.953 65.966 128.049 66.2576 128.211 66.5015L121.312 71.5969C121.1 71.512 120.872 71.467 120.631 71.467C120.313 71.467 120.013 71.5465 119.751 71.6897L106.867 60.2371C107.262 59.7758 107.503 59.1793 107.503 58.5245C107.503 58.4132 107.495 58.3045 107.482 58.1984L121.016 56.6953C121.196 57.3368 121.784 57.8061 122.482 57.8061C123.325 57.8061 124.006 57.1221 124.006 56.2817C124.006 55.6083 123.569 55.0357 122.961 54.8342L123.953 48.5512C123.953 48.5512 123.969 48.5512 123.974 48.5512C124.69 48.5512 125.27 47.9706 125.27 47.2548C125.27 46.5391 124.69 45.9585 123.974 45.9585C123.258 45.9585 122.678 46.5391 122.678 47.2548C122.678 47.7904 123.001 48.249 123.462 48.4452L122.466 54.7547C122.187 54.7547 121.927 54.8342 121.702 54.9668L109.783 40.7412C110.382 40.3701 110.785 39.7073 110.785 38.9491C110.785 38.8616 110.777 38.7741 110.767 38.6893H117.588C117.588 38.6893 117.588 38.6999 117.588 38.7078C117.588 39.4236 118.168 40.0042 118.884 40.0042C119.6 40.0042 120.18 39.4236 120.18 38.7078C120.18 37.9921 119.6 37.4115 118.884 37.4115C118.351 37.4115 117.895 37.7323 117.696 38.1909H110.642C110.438 37.666 110.035 37.2445 109.521 37.0191L108.68 26.4944C109.24 26.2611 109.632 25.7124 109.632 25.0681C109.632 24.2145 108.94 23.5226 108.086 23.5226C107.233 23.5226 106.541 24.2145 106.541 25.0681C106.541 25.1424 106.549 25.214 106.557 25.2829L96.761 28.3687C96.5966 27.3905 95.7615 26.6429 94.7462 26.6137L90.8306 14.2545C91.1116 13.9894 91.3184 13.65 91.4217 13.2683L97.0287 14.3155C97.0659 15.0365 97.6544 15.6092 98.3834 15.6092C99.1125 15.6092 99.7461 14.9994 99.7461 14.2465C99.7461 13.4936 99.1363 12.8839 98.3834 12.8839C97.8294 12.8839 97.3522 13.2179 97.1401 13.6925L91.4907 12.6373C91.4456 11.5133 90.523 10.6146 89.3884 10.6146C88.7548 10.6146 88.1875 10.8956 87.803 11.3383L69.3437 4.85118C69.4763 4.50124 69.5532 4.12479 69.5532 3.72978C69.5532 1.99069 68.1428 0.580322 66.4037 0.580322C64.6646 0.580322 63.2542 1.99069 63.2542 3.72978C63.2542 3.9074 63.2728 4.08237 63.302 4.25204L44.4264 7.43066C44.0526 6.4153 43.0797 5.68891 41.9344 5.68891C40.4684 5.68891 39.2781 6.87924 39.2781 8.34527C39.2781 8.48578 39.2913 8.62098 39.3125 8.75619L14.0347 28.5278C13.584 27.7245 12.7251 27.1784 11.7362 27.1784C10.2808 27.1784 9.10374 28.3581 9.10374 29.8109C9.10374 30.8793 9.73999 31.7965 10.6546 32.2101L1.60389 65.176C0.660114 65.5763 0 66.5121 0 67.6017C0 68.6913 0.69988 69.6749 1.68342 70.0566L8.44627 96.827C7.53431 97.5216 6.94577 98.6138 6.94577 99.8492C6.94577 101.949 8.64776 103.651 10.7474 103.651C11.3333 103.651 11.8847 103.516 12.3804 103.277L28.8303 120.14C28.6792 120.474 28.5917 120.843 28.5917 121.233C28.5917 122.688 29.7714 123.865 31.2242 123.865C32.2422 123.865 33.1223 123.287 33.5624 122.444L52.0668 128.984C52.0509 129.127 52.0403 129.271 52.0403 129.416C52.0403 131.508 53.737 133.205 55.8286 133.205C57.756 133.205 59.3413 131.765 59.5825 129.904L82.432 126.938C82.5699 127.889 83.3864 128.621 84.3753 128.621C85.4595 128.621 86.3397 127.741 86.3397 126.657C86.3397 126.569 86.3317 126.484 86.3211 126.402L96.9996 124.743L96.9678 124.244L86.1939 125.917C86.0931 125.671 85.9447 125.448 85.7591 125.262L99.5711 108.669C99.8018 108.736 100.048 108.773 100.3 108.773C100.865 108.773 101.387 108.592 101.817 108.29L108.391 110.379C108.391 110.379 108.391 110.382 108.391 110.385C108.391 111.275 109.112 111.996 110.003 111.996C110.894 111.996 111.615 111.275 111.615 110.385C111.615 109.494 110.894 108.773 110.003 108.773C109.29 108.773 108.683 109.237 108.473 109.881L102.254 107.906C102.678 107.439 102.938 106.819 102.938 106.14C102.938 105.093 102.326 104.189 101.437 103.765L101.904 96.4797C102.079 96.5433 102.267 96.5831 102.463 96.5831C103.354 96.5831 104.075 95.862 104.075 94.9713C104.075 94.7565 104.033 94.5498 103.956 94.3615L114.208 89.131C114.369 89.351 114.584 89.5313 114.833 89.6479L112.527 97.6807C111.671 97.7178 110.984 98.4229 110.984 99.2898C110.984 100.157 111.705 100.902 112.596 100.902C113.486 100.902 114.208 100.181 114.208 99.2898C114.208 98.5502 113.709 97.9272 113.028 97.739L115.31 89.7885C115.377 89.7964 115.443 89.8017 115.509 89.8017C116.106 89.8017 116.628 89.4756 116.906 88.9931L122.588 91.1723C122.585 91.2094 122.577 91.2439 122.577 91.281C122.577 91.9888 123.152 92.5641 123.86 92.5641C124.568 92.5641 125.143 91.9888 125.143 91.281C125.143 90.5732 124.568 89.9979 123.86 89.9979C123.367 89.9979 122.943 90.2816 122.728 90.6898L117.087 88.5265C117.11 88.4179 117.124 88.3039 117.124 88.1899C117.124 87.9778 117.081 87.7737 117.007 87.5881L120.443 85.5441L120.188 85.1146L116.753 87.1586C116.456 86.8034 116.01 86.5754 115.512 86.5754C115.12 86.5754 114.762 86.7159 114.481 86.9492L107.662 80.9525C107.795 80.698 107.869 80.409 107.869 80.1041C107.869 79.8311 107.808 79.5739 107.705 79.3406L119.003 74.1896C119.316 74.7729 119.929 75.1705 120.636 75.1705C120.917 75.1705 121.183 75.1069 121.421 74.9929L126.302 80.6847L126.681 80.3613L121.845 74.7198C122.238 74.3805 122.489 73.8794 122.489 73.3201C122.489 72.7607 122.216 72.2119 121.79 71.8726L128.563 66.8701C128.82 67.0662 129.138 67.1829 129.486 67.1829L129.478 67.1776ZM14.2441 30.6168L19.7663 32.9815C19.4826 33.4773 19.3156 34.0499 19.3156 34.6623C19.3156 35.5531 19.6629 36.3643 20.2276 36.9661L12.9001 47.7135C12.7993 47.679 12.6959 47.6552 12.5899 47.6446L12.0729 32.4222C13.0962 32.2896 13.9366 31.5738 14.2441 30.6142L14.2441 30.6168ZM74.9269 86.6575C74.6035 86.3739 74.2111 86.1697 73.7763 86.0716L73.6517 70.775C73.726 70.7777 73.8002 70.7856 73.8744 70.7856C74.9242 70.7856 75.8786 70.3933 76.6077 69.7491C79.5159 72.9012 85.9314 79.8629 88.6991 82.9301C88.3306 83.296 88.1 83.7997 88.0814 84.3564L74.9269 86.6522L74.9269 86.6575ZM79.1394 105.385C79.1394 105.639 79.1871 105.883 79.2693 106.111L65.6588 107.654C65.4334 107.116 65.0464 106.66 64.5639 106.344L72.6337 91.2094C72.8166 91.2492 73.0049 91.2704 73.1984 91.2704C73.6358 91.2704 74.0494 91.1617 74.4126 90.9735L80.0249 103.669C79.4894 104.051 79.1394 104.677 79.1394 105.385ZM42.1094 106.077C42.0829 105.053 41.4175 104.192 40.4923 103.879L46.0197 90.5625C46.2822 90.6209 46.5553 90.6527 46.8336 90.6527C47.4275 90.6527 47.9868 90.5122 48.4852 90.2683L60.8577 106.819C60.4309 107.285 60.1578 107.89 60.1101 108.558L42.1094 106.074V106.077ZM28.2073 86.289C28.6341 86.0054 28.9761 85.6024 29.1776 85.1252L43.0585 87.1108C43.1566 88.6405 44.1587 89.921 45.5373 90.4247L39.9965 103.77C39.9064 103.759 39.8163 103.754 39.7261 103.754C39.2198 103.754 38.7505 103.913 38.3635 104.184L28.2046 86.2917L28.2073 86.289ZM12.7065 78.0495L19.26 65.1866C19.9227 65.7539 20.779 66.0959 21.7201 66.0959C21.736 66.0959 21.7546 66.0959 21.7705 66.0959L26.1262 81.541C25.2885 81.7478 24.6071 82.3522 24.3023 83.1475L13.3746 79.55C13.3852 79.4731 13.3932 79.3963 13.3932 79.3194C13.3932 78.7892 13.1201 78.3226 12.7065 78.0522L12.7065 78.0495ZM26.044 34.201L33.1701 31.3326C33.3053 31.8098 33.6658 32.1889 34.1297 32.3559L34.1934 43.2093C34.0263 43.2995 33.8805 43.4214 33.7639 43.5699L25.5005 36.5578C25.8664 36.017 26.0811 35.3648 26.0811 34.665C26.0811 34.5085 26.0679 34.3548 26.0467 34.2037L26.044 34.201ZM89.0941 82.6279C86.3185 79.5447 79.8817 72.5618 76.9629 69.4018C77.6177 68.6701 78.018 67.7051 78.018 66.6473C78.018 66.5307 78.0101 66.4167 77.9995 66.3027L91.093 65.3775C91.2468 66.0296 91.7054 66.5678 92.3099 66.8276L90.0618 82.3283C89.7092 82.3495 89.3778 82.4556 89.0915 82.6306L89.0941 82.6279ZM62.9918 105.88C62.3264 105.88 61.7167 106.108 61.2262 106.485L48.9226 90.027C49.7127 89.5021 50.2932 88.6882 50.5159 87.7365L70.5712 88.8234C70.6375 89.7911 71.2234 90.6102 72.0531 91.0132L64.1132 106.108C63.7686 105.963 63.3868 105.883 62.9892 105.883L62.9918 105.88ZM29.3366 84.6136C29.3711 84.4465 29.387 84.2742 29.387 84.0966C29.387 83.0441 28.7666 82.1375 27.8759 81.7159L33.5279 72.4054C33.9044 72.6122 34.3365 72.7315 34.7952 72.7315C35.4208 72.7315 35.9961 72.5115 36.4494 72.1456L45.2987 83.41C44.0633 83.9587 43.1805 85.1464 43.0638 86.5541L29.3366 84.6136ZM24.9703 64.2455L32.2395 69.4707C32.1892 69.6722 32.16 69.8816 32.16 70.099C32.16 70.9129 32.5285 71.6393 33.1091 72.1244L27.4809 81.5701C27.2502 81.5039 27.0063 81.4667 26.7545 81.4667C26.6988 81.4667 26.6458 81.472 26.5901 81.4747L22.2901 66.0561C23.4301 65.8838 24.403 65.2025 24.9703 64.2508V64.2455ZM34.6706 32.4487C35.4075 32.4381 36.0199 31.9079 36.1578 31.208L46.1125 33.1512C46.1125 33.1698 46.1099 33.191 46.1099 33.2095C46.1099 33.7185 46.2901 34.1878 46.5897 34.5536L35.7018 43.371C35.4659 43.1722 35.1636 43.0476 34.8296 43.0476C34.8137 43.0476 34.7978 43.0529 34.7819 43.0529L34.6732 32.4513L34.6706 32.4487ZM57.5174 26.5633C57.5174 26.5633 57.5227 26.5633 57.528 26.5633L62.6922 41.7671C62.6021 41.8334 62.5173 41.9076 62.443 41.9925L50.1554 34.1241C50.2879 33.8458 50.3648 33.5383 50.3648 33.2095C50.3648 32.841 50.2694 32.4937 50.105 32.1915L56.5285 26.1312C56.7777 26.3963 57.1277 26.566 57.52 26.566L57.5174 26.5633ZM71.1597 28.6524C71.3639 28.6524 71.5627 28.6338 71.7589 28.6073L75.3351 45.0969C74.9985 45.2374 74.7201 45.4892 74.5398 45.8047L65.1286 43.1059C65.1286 43.0741 65.1339 43.0449 65.1339 43.0131C65.1339 42.4564 64.837 41.9713 64.3969 41.7009L69.7812 28.4297C70.216 28.5728 70.6799 28.6524 71.1624 28.6524L71.1597 28.6524ZM87.0475 51.4886L76.3585 63.3388C75.7832 62.9067 75.0965 62.6204 74.3436 62.5355L76.0589 48.2808C76.7429 48.2463 77.3155 47.8009 77.5355 47.1832L86.5544 49.768C86.5359 49.8767 86.5253 49.9907 86.5253 50.1047C86.5253 50.6349 86.7241 51.1201 87.0475 51.4886ZM70.1285 68.405L60.6085 72.7076C60.3275 72.3498 59.8901 72.1165 59.397 72.1165C59.1478 72.1165 58.9118 72.1774 58.7024 72.2835L49.8479 60.1973C50.4788 59.8049 51.0037 59.2641 51.3696 58.6173L70.0781 64.9931C69.8554 65.4994 69.7308 66.0588 69.7308 66.6473C69.7308 67.2756 69.874 67.8695 70.1258 68.405H70.1285ZM47.6846 83.182L47.4274 60.8601C47.4593 60.8601 47.4884 60.8654 47.5176 60.8654C48.1936 60.8654 48.8325 60.709 49.4078 60.4385L58.2994 72.5777C58.0264 72.8561 57.8567 73.2352 57.8567 73.6567C57.8567 73.9536 57.9415 74.2294 58.0874 74.4653L48.9677 83.744C48.5833 83.4815 48.1485 83.2907 47.6819 83.182H47.6846ZM48.236 35.3383C48.9067 35.3383 49.5032 35.0281 49.8929 34.543L62.1753 42.4087C62.0958 42.5943 62.0507 42.7984 62.0507 43.0131C62.0507 43.3021 62.1302 43.5699 62.2707 43.8005L50.8102 53.4769C50.0653 52.6471 49.0128 52.101 47.8278 52.0188L48.0664 35.3277C48.122 35.333 48.1777 35.3357 48.2334 35.3357L48.236 35.3383ZM75.5631 48.2304L73.8452 62.509C73.5748 62.509 73.3124 62.5382 73.0552 62.5885L64.4631 44.283C64.7097 44.1133 64.9032 43.8747 65.0172 43.5937L74.3569 46.2713C74.333 46.3853 74.3171 46.5046 74.3171 46.6265C74.3171 47.398 74.8473 48.0475 75.5631 48.2304ZM51.1257 53.8666L62.5942 44.1849C62.8619 44.4155 63.2119 44.5534 63.5936 44.5534C63.7394 44.5534 63.8799 44.5322 64.0125 44.4951L72.5674 62.7211C71.6131 63.0392 70.8151 63.694 70.3114 64.545L51.5976 58.1666C51.8229 57.6337 51.9502 57.0478 51.9502 56.4328C51.9502 55.4731 51.6426 54.5903 51.1257 53.8639V53.8666ZM36.187 44.4076C36.187 44.1027 36.0836 43.827 35.9165 43.599L46.99 34.9327C47.1676 35.06 47.3638 35.1633 47.5759 35.2323L47.3347 52.0135C46.0409 52.0665 44.8904 52.6709 44.1136 53.6015L35.7469 45.4017C36.0146 45.1525 36.1843 44.8026 36.1843 44.4076H36.187ZM44.3761 59.5584L36.5422 68.1346C36.0756 67.721 35.4659 67.4665 34.7951 67.4665C33.74 67.4665 32.8334 68.0868 32.4118 68.9829L25.201 63.8001C25.3971 63.3441 25.5058 62.8404 25.5058 62.3128C25.5058 61.6448 25.3309 61.0191 25.0286 60.4756L43.2812 57.7398C43.4959 58.4343 43.875 59.0547 44.3734 59.5584L44.3761 59.5584ZM46.8336 83.0839C46.4704 83.0839 46.1231 83.1369 45.7917 83.2323L36.8073 71.7957C37.1944 71.337 37.4277 70.7459 37.4277 70.099C37.4277 69.4972 37.2235 68.9431 36.8815 68.5004L44.7472 59.8898C45.3623 60.3829 46.1099 60.7116 46.9264 60.8229L47.1836 83.1024C47.0669 83.0918 46.9503 83.0839 46.8336 83.0839ZM58.4161 74.8417C58.6812 75.0618 59.0232 75.1943 59.397 75.1943C59.7284 75.1943 60.0359 75.0883 60.2851 74.9107L71.5574 86.5833C71.0298 87.0048 70.6666 87.6225 70.5818 88.3277L50.6008 87.246C50.614 87.1241 50.6193 86.9995 50.6193 86.8722C50.6193 85.7535 50.1315 84.7514 49.3601 84.0568L58.4161 74.8444L58.4161 74.8417ZM71.9842 86.3049L60.6403 74.5581C60.8259 74.3036 60.9372 73.9907 60.9372 73.6541C60.9372 73.4738 60.9054 73.3041 60.8498 73.1451L70.3697 68.8424C70.9794 69.8153 71.9815 70.5152 73.156 70.722L73.2806 86.0133C73.2541 86.0133 73.2275 86.008 73.1984 86.008C72.761 86.008 72.35 86.1167 71.9869 86.3049L71.9842 86.3049ZM91.0321 64.8791L77.9279 65.8069C77.7556 64.9692 77.3287 64.2269 76.7349 63.6596L87.4134 51.8226C87.758 52.0665 88.1769 52.2096 88.6276 52.2096C88.7919 52.2096 88.951 52.1884 89.1047 52.154L92.4186 62.912C91.6126 63.2062 91.0347 63.975 91.0294 64.8817L91.0321 64.8791ZM86.687 49.2855L77.6283 46.6875C77.6283 46.6663 77.631 46.6451 77.631 46.6239C77.631 45.7092 76.8887 44.9669 75.9741 44.9669C75.921 44.9669 75.868 44.9696 75.815 44.9749L72.244 28.5118C72.6364 28.4137 73.0049 28.2653 73.3469 28.0691L87.5936 48.2675C87.188 48.4955 86.8673 48.8534 86.6843 49.2855H86.687ZM69.3093 28.2441L63.9276 41.51C63.8189 41.4861 63.7049 41.4702 63.5883 41.4702C63.4292 41.4702 63.2755 41.4941 63.1323 41.5391L58.0131 26.4626C58.5168 26.2637 58.8747 25.7759 58.8747 25.2007C58.8747 25.1635 58.8668 25.1264 58.8641 25.0893L66.7749 24.8269C66.9843 26.3486 67.9652 27.6237 69.3119 28.2414L69.3093 28.2441ZM56.1547 25.2033C56.1547 25.3915 56.1919 25.5692 56.2608 25.7335L49.8267 31.8044C49.4369 31.3617 48.867 31.0807 48.2307 31.0807C48.2148 31.0807 48.2016 31.0807 48.1856 31.0807L42.9604 10.7922C43.2096 10.6888 43.4376 10.5483 43.6391 10.3759L56.5577 24.233C56.3085 24.4796 56.1521 24.8216 56.1521 25.198L56.1547 25.2033ZM41.9345 11.0016C42.1386 11.0016 42.3374 10.9751 42.5283 10.9327L47.6846 31.1549C46.9503 31.3485 46.375 31.9237 46.1788 32.6581L36.1658 30.7043C36.0942 30.1767 35.7575 29.7366 35.2936 29.5166L41.619 10.9804C41.7224 10.9936 41.8258 11.0016 41.9318 11.0016L41.9345 11.0016ZM34.0741 45.5369C34.2888 45.6801 34.546 45.7623 34.8217 45.7623C34.994 45.7623 35.1557 45.7278 35.3068 45.6695L43.8088 54.0044C43.3501 54.7016 43.0824 55.5367 43.0824 56.4328C43.0824 56.7111 43.1115 56.9842 43.1619 57.2493L24.7211 60.0144C24.5594 59.8023 24.3765 59.6061 24.1724 59.4338L34.0741 45.5369ZM92.7897 66.9654C92.9037 66.984 93.0177 66.9972 93.137 66.9972C94.3008 66.9972 95.2446 66.0535 95.2446 64.8897C95.2446 64.6961 95.2154 64.5079 95.1677 64.3303L102.8 60.1522C102.975 60.3723 103.182 60.5658 103.418 60.7222L90.6052 82.0314L92.7897 66.9681V66.9654ZM94.9768 63.8637C94.6163 63.2195 93.927 62.7821 93.137 62.7821C93.0575 62.7821 92.9806 62.7874 92.9064 62.7953L89.5766 51.9843C89.9398 51.8014 90.2394 51.5177 90.4462 51.1704L103.002 56.6687C102.53 57.1459 102.238 57.8007 102.238 58.5218C102.238 58.9566 102.347 59.3675 102.532 59.7307L94.9795 63.8637H94.9768ZM103.434 56.3135L90.645 50.7118C90.7033 50.5183 90.7351 50.3141 90.7351 50.1021C90.7351 49.8157 90.6768 49.5427 90.5734 49.2935L106.92 40.1076C107.116 40.4071 107.389 40.651 107.707 40.818L104.266 55.9609C103.964 56.0298 103.683 56.1518 103.431 56.3161L103.434 56.3135ZM106.7 39.6595L90.3295 48.8587C90.0644 48.4955 89.688 48.2198 89.2479 48.0846L94.3406 30.7891C94.4546 30.8076 94.5712 30.8209 94.6905 30.8209C95.2738 30.8209 95.804 30.5823 96.1857 30.1979L106.652 38.3791C106.602 38.5593 106.573 38.7476 106.573 38.9438C106.573 39.1956 106.618 39.4342 106.7 39.6569L106.7 39.6595ZM93.8607 30.6512L88.7522 47.9998C88.7124 47.9998 88.67 47.9945 88.6302 47.9945C88.4367 47.9945 88.2485 48.0236 88.0682 48.0713L73.7657 27.7934C74.5372 27.2287 75.1204 26.4254 75.3988 25.4896L92.5882 28.5887C92.5882 28.6311 92.5829 28.6709 92.5829 28.7133C92.5829 29.5829 93.1078 30.3278 93.8607 30.6512ZM66.7298 24.3232L58.7104 24.5671C58.4824 24.1376 58.0343 23.8407 57.5147 23.8407C57.3345 23.8407 57.1621 23.8778 57.0057 23.9414L43.9281 10.0949C44.1481 9.84573 44.3204 9.55676 44.4344 9.23864L67.0559 22.5416C66.8438 23.0586 66.7245 23.6233 66.7245 24.2171C66.7245 24.2516 66.7298 24.286 66.7298 24.3232ZM41.0066 10.8293L34.7952 29.3761C34.7448 29.3708 34.6944 29.3681 34.644 29.3681C33.7931 29.3681 33.1038 30.0574 33.1038 30.9084C33.1038 30.9137 33.1038 30.9216 33.1038 30.9269L25.9406 33.7371C25.7656 33.1247 25.4237 32.5839 24.9677 32.1676L40.5241 10.5933C40.6752 10.6888 40.8369 10.7683 41.0039 10.8319L41.0066 10.8293ZM25.1824 36.9448L33.5253 44.0258C33.4908 44.1451 33.4643 44.2724 33.4643 44.4023C33.4643 44.6939 33.5571 44.9616 33.7135 45.1817L23.7747 59.1316C23.2498 58.7922 22.6374 58.5775 21.9773 58.5324L23.157 38.0053C23.955 37.8966 24.6602 37.5095 25.1798 36.9422L25.1824 36.9448ZM21.4789 58.5324C20.5219 58.5907 19.6603 59.0017 19.024 59.6432L13.4223 50.1869C13.7139 49.9191 13.8995 49.5347 13.8995 49.1053C13.8995 48.636 13.6795 48.2198 13.3375 47.952L20.5934 37.3107C21.1608 37.7614 21.8765 38.0344 22.6533 38.0424L21.4736 58.5351L21.4789 58.5324ZM12.4308 50.5766C12.635 50.5766 12.8285 50.5342 13.0061 50.4599L18.6847 60.0462C18.2128 60.6771 17.9291 61.4592 17.9291 62.3102C17.9291 62.4136 17.9371 62.5143 17.945 62.615L5.04497 66.5466C4.86735 66.1436 4.59429 65.7963 4.2523 65.5286L11.8767 50.4679C12.0491 50.5395 12.2373 50.5766 12.4335 50.5766H12.4308ZM5.19873 67.0185L18.0166 63.1134C18.1651 63.7974 18.4991 64.4125 18.963 64.9029L12.2585 77.8533C12.1366 77.8215 12.0066 77.803 11.8741 77.803C11.6196 77.803 11.381 77.8666 11.1689 77.9779L4.6155 69.3302C5.01846 68.8662 5.26501 68.2645 5.26501 67.6017C5.26501 67.4002 5.24115 67.2067 5.19873 67.0185ZM12.1631 80.8013C12.6217 80.7138 13.0061 80.4169 13.2155 80.0166L24.1618 83.6194C24.1352 83.7731 24.1167 83.9296 24.1167 84.0913C24.1167 84.876 24.4613 85.5759 25.0048 86.0584L13.8385 97.6382C13.2739 96.8482 12.4149 96.2835 11.4208 96.1059L12.1631 80.7987L12.1631 80.8013ZM14.1089 98.0783L25.4157 86.3579C25.8081 86.5886 26.264 86.7238 26.7518 86.7238C27.1177 86.7238 27.4676 86.6495 27.7831 86.5143L38.0135 104.478C37.8121 104.687 37.6477 104.931 37.531 105.202L14.4854 100.499C14.5225 100.287 14.5464 100.069 14.5464 99.8465C14.5464 99.2076 14.3873 98.6085 14.1089 98.0783ZM42.067 106.578L60.1128 109.064C60.2268 110.186 60.9823 111.114 62.0056 111.485L58.029 126.336C57.4087 125.891 56.6478 125.625 55.826 125.625C55.0042 125.625 54.2062 125.904 53.5779 126.37L40.4658 108.399C41.285 108.131 41.908 107.434 42.067 106.575L42.067 106.578ZM58.4453 126.686L62.4828 111.615C62.6472 111.644 62.8142 111.662 62.9892 111.662C63.7951 111.662 64.5241 111.331 65.049 110.798L82.6468 125.71C82.5275 125.93 82.4479 126.174 82.4188 126.434L59.6117 129.39C59.6038 128.327 59.1584 127.37 58.4453 126.686ZM82.9304 125.321L65.3619 110.424C65.6906 109.955 65.8841 109.385 65.8841 108.77C65.8841 108.553 65.8576 108.341 65.8125 108.136L79.5159 106.583C79.8552 107.073 80.396 107.41 81.019 107.479L83.8053 124.774C83.4659 124.878 83.169 125.069 82.9331 125.321H82.9304ZM80.4596 103.431L74.8341 90.7004C75.4412 90.2179 75.8309 89.4756 75.8309 88.6405C75.8309 88.0626 75.6427 87.5297 75.3272 87.0949L88.1239 84.8601C88.2511 85.4645 88.6355 85.9735 89.1604 86.2678L82.5858 103.759C82.2226 103.46 81.756 103.28 81.247 103.28C80.9687 103.28 80.7062 103.335 80.4623 103.431L80.4596 103.431ZM82.9596 104.168L89.619 86.456C89.7993 86.5064 89.9875 86.5355 90.1837 86.5355C90.706 86.5355 91.1805 86.3447 91.549 86.0318L101.265 93.8896C101.005 94.1759 100.846 94.555 100.846 94.9712C100.846 95.0985 100.862 95.2231 100.891 95.3424L83.1425 104.478C83.0895 104.369 83.0312 104.266 82.9622 104.168L82.9596 104.168ZM102.455 93.3567C102.169 93.3567 101.899 93.4336 101.665 93.5635L91.8831 85.6634C92.1349 85.3161 92.286 84.8892 92.286 84.428C92.286 84.2609 92.2648 84.0992 92.2277 83.9428L104.226 80.5919C104.383 81.1619 104.804 81.6205 105.35 81.8273L102.752 93.3832C102.657 93.3647 102.556 93.3541 102.455 93.3541V93.3567ZM104.16 80.0935L92.058 83.4736C91.8221 83.0096 91.4191 82.6464 90.9287 82.4609L103.861 60.9555C104.136 61.0695 104.436 61.1357 104.746 61.149L105.677 78.2802C104.818 78.4366 104.163 79.1868 104.16 80.0935ZM121.323 55.2849C121.111 55.5314 120.978 55.8469 120.96 56.1942L107.373 57.7053C107.029 56.6502 106.04 55.8867 104.871 55.8867C104.847 55.8867 104.823 55.8893 104.799 55.8893L108.184 40.9904C108.343 41.0301 108.51 41.0513 108.683 41.0513C108.906 41.0513 109.12 41.0169 109.319 40.9532L121.326 55.2822L121.323 55.2849ZM108.089 26.6084C108.123 26.6084 108.158 26.6057 108.19 26.6031L109.009 36.868C108.9 36.8521 108.791 36.8388 108.68 36.8388C107.895 36.8388 107.214 37.2683 106.851 37.9019L96.4906 29.8055C96.6576 29.5325 96.7636 29.217 96.7902 28.8803L106.71 25.7547C106.965 26.2611 107.485 26.6084 108.089 26.6084ZM94.2398 26.6587C93.4922 26.8205 92.8958 27.3772 92.6731 28.1009L75.5101 25.0071C75.5552 24.7526 75.5843 24.4902 75.5843 24.2224C75.5843 23.223 75.2503 22.3057 74.6909 21.5634L87.6997 13.9761C88.0841 14.493 88.6965 14.8271 89.3884 14.8271C89.7569 14.8271 90.1042 14.7316 90.4064 14.5646L94.2398 26.6587ZM87.5141 11.7651C87.3683 12.0514 87.2835 12.3775 87.2835 12.7221C87.2835 13.0137 87.3444 13.2921 87.4505 13.5466L74.3675 21.1763C73.5589 20.3254 72.4216 19.7898 71.1544 19.7898C70.8071 19.7898 70.4705 19.8349 70.1444 19.9091L67.1116 6.79701C67.9732 6.59818 68.6969 6.04676 69.129 5.30446L87.5141 11.7651ZM63.4213 4.73979C63.8428 5.98578 65.0172 6.88184 66.4037 6.88184C66.4753 6.88184 66.5469 6.87654 66.6185 6.87124L69.6672 20.055C68.6412 20.4208 67.7876 21.1525 67.2706 22.0963L44.559 8.74288C44.5776 8.61298 44.5908 8.48308 44.5908 8.34788C44.5908 8.19942 44.5749 8.05626 44.5537 7.91575L63.4213 4.73979ZM39.4504 9.2837C39.5962 9.67076 39.8295 10.0154 40.1291 10.2911L24.578 31.8575C24.0398 31.4943 23.3903 31.2848 22.6931 31.2848C21.622 31.2848 20.6676 31.7859 20.0473 32.5653L14.3449 30.1237C14.3555 30.0229 14.3634 29.9222 14.3634 29.8188C14.3634 29.5351 14.3184 29.2621 14.2335 29.0049L39.4478 9.2837H39.4504ZM11.1265 32.3718C11.2723 32.4063 11.4208 32.4275 11.5745 32.4381L12.0915 47.6764C11.4446 47.8301 10.9648 48.4107 10.9648 49.1053C10.9648 49.5401 11.1557 49.9298 11.4552 50.2002L3.83078 65.2555C3.47289 65.0726 3.06728 64.9666 2.63515 64.9666C2.47609 64.9666 2.31968 64.9825 2.16857 65.009L11.1265 32.3718ZM2.23484 70.1998C2.36474 70.221 2.4973 70.2342 2.63515 70.2342C3.24755 70.2342 3.81222 70.0221 4.26025 69.6722L10.7792 78.2749C10.5221 78.5453 10.363 78.9111 10.363 79.3141C10.363 80.0776 10.9277 80.7059 11.6594 80.812L10.7553 96.0449C10.7553 96.0449 10.75 96.0449 10.7474 96.0449C10.0714 96.0449 9.43777 96.2226 8.88635 96.5327L2.23484 70.1998ZM12.8311 103.023C13.5575 102.545 14.1089 101.83 14.374 100.981L37.3879 105.679C37.3587 105.827 37.3428 105.978 37.3428 106.135C37.3428 106.821 37.6344 107.439 38.101 107.874L31.826 118.669C31.6324 118.624 31.431 118.597 31.2242 118.597C30.344 118.597 29.5699 119.03 29.0901 119.692L12.8311 103.023ZM33.748 121.98C33.8196 121.742 33.8567 121.492 33.8567 121.23C33.8567 120.162 33.2204 119.244 32.3058 118.831L38.4987 108.176C38.8566 108.391 39.2754 108.518 39.7261 108.518C39.7924 108.518 39.856 108.513 39.9196 108.508L53.2041 126.686C52.7031 127.168 52.3346 127.789 52.1596 128.486L33.748 121.98ZM85.3455 124.947C85.0592 124.782 84.7252 124.687 84.3726 124.687C84.3461 124.687 84.3169 124.69 84.2904 124.692L81.5148 107.471C82.5407 107.341 83.336 106.472 83.3519 105.414L97.6703 106.241C97.7074 107.198 98.2535 108.025 99.0489 108.455L85.3455 124.947ZM100.968 103.59C100.753 103.534 100.531 103.5 100.298 103.5C98.9773 103.5 97.8877 104.473 97.6968 105.74L83.2989 104.91C83.2936 104.886 83.2883 104.865 83.2804 104.844L101.109 95.8408C101.22 96.0105 101.363 96.1589 101.528 96.2782L100.966 103.59H100.968ZM114.149 87.315C113.99 87.5642 113.897 87.8611 113.897 88.1792C113.897 88.3542 113.927 88.5239 113.98 88.6829L103.712 93.9479C103.577 93.7836 103.413 93.6457 103.224 93.5423L105.767 81.9254C105.849 81.936 105.934 81.944 106.018 81.944C106.554 81.944 107.034 81.716 107.373 81.3528L114.152 87.315H114.149ZM107.437 78.9085C107.129 78.5426 106.684 78.2961 106.18 78.251L105.25 61.1172C105.722 61.0483 106.154 60.8574 106.512 60.5738L119.345 71.9813C118.998 72.3179 118.783 72.7872 118.783 73.3068C118.783 73.4446 118.799 73.5799 118.828 73.7098L107.437 78.9032L107.437 78.9085Z" fill="#1363DF"/>
<path d="M131.858 74.2031C131.858 74.5047 131.752 74.7621 131.538 74.9754C131.325 75.1887 131.068 75.2953 130.766 75.2953C130.464 75.2953 130.207 75.1887 129.994 74.9754C129.78 74.7621 129.674 74.5047 129.674 74.2031C129.674 73.9015 129.78 73.644 129.994 73.4307C130.207 73.2175 130.464 73.1108 130.766 73.1108C131.068 73.1108 131.325 73.2175 131.538 73.4307C131.752 73.644 131.858 73.9015 131.858 74.2031Z" fill="#1363DF"/>
<path d="M112.553 70.9249C112.635 71.2733 112.582 71.5998 112.394 71.9043C112.206 72.2088 111.938 72.4022 111.589 72.4844C111.241 72.5666 110.914 72.5136 110.61 72.3254C110.305 72.1372 110.112 71.8689 110.03 71.5205C109.947 71.1721 110 70.8456 110.189 70.5411C110.377 70.2366 110.645 70.0432 110.994 69.961C111.342 69.8788 111.668 69.9318 111.973 70.12C112.278 70.3082 112.471 70.5765 112.553 70.9249Z" fill="#1363DF"/>
<path d="M118.004 80.4674C118.004 80.8969 118.354 81.2468 118.784 81.2468C119.213 81.2468 119.563 80.8969 119.563 80.4674C119.563 80.0379 119.213 79.688 118.784 79.688C118.354 79.688 118.004 80.0379 118.004 80.4674Z" fill="#1363DF"/>
<path d="M98.4445 85.2261C98.015 85.2261 97.665 85.576 97.665 86.0055C97.665 86.435 98.015 86.7849 98.4445 86.7849C98.8739 86.7849 99.2239 86.435 99.2239 86.0055C99.2239 85.576 98.8739 85.2261 98.4445 85.2261Z" fill="#1363DF"/>
<path d="M95.5362 56.8306C95.1068 56.8306 94.7568 57.1805 94.7568 57.61C94.7568 58.0394 95.1068 58.3894 95.5362 58.3894C95.9657 58.3894 96.3157 58.0394 96.3157 57.61C96.3157 57.1805 95.9657 56.8306 95.5362 56.8306Z" fill="#1363DF"/>
<path d="M91.0851 94.1865C90.6556 94.1865 90.3057 94.5365 90.3057 94.9659C90.3057 95.3954 90.6556 95.7453 91.0851 95.7453C91.5145 95.7453 91.8645 95.3954 91.8645 94.9659C91.8645 94.5365 91.5145 94.1865 91.0851 94.1865Z" fill="#1363DF"/>
<path d="M77.8273 112.285C77.3978 112.285 77.0479 112.635 77.0479 113.065C77.0479 113.494 77.3978 113.844 77.8273 113.844C78.2567 113.844 78.6067 113.494 78.6067 113.065C78.6067 112.635 78.2567 112.285 77.8273 112.285Z" fill="#1363DF"/>
<path d="M121.571 64.0638C121.653 64.4122 121.6 64.7387 121.412 65.0432C121.224 65.3477 120.955 65.5411 120.607 65.6233C120.259 65.7056 119.932 65.6526 119.628 65.4643C119.323 65.2761 119.13 65.0078 119.048 64.6594C118.965 64.311 119.018 63.9845 119.207 63.68C119.395 63.3755 119.663 63.1821 120.011 63.0999C120.36 63.0177 120.686 63.0707 120.991 63.2589C121.295 63.4471 121.489 63.7154 121.571 64.0638Z" fill="#1363DF"/>
<path d="M112.431 50.6195C112.513 50.9679 112.46 51.2944 112.272 51.5989C112.083 51.9034 111.815 52.0967 111.467 52.179C111.118 52.2612 110.792 52.2082 110.487 52.02C110.183 51.8318 109.989 51.5635 109.907 51.2151C109.825 50.8667 109.878 50.5402 110.066 50.2357C110.254 49.9312 110.523 49.7378 110.871 49.6556C111.219 49.5734 111.546 49.6263 111.85 49.8146C112.155 50.0028 112.348 50.2711 112.431 50.6195Z" fill="#1363DF"/>
<path d="M76.0959 12.4247C76.1781 12.7731 76.1251 13.0995 75.9369 13.404C75.7487 13.7086 75.4803 13.9019 75.1319 13.9842C74.7835 14.0664 74.4571 14.0134 74.1526 13.8252C73.848 13.637 73.6547 13.3687 73.5724 13.0202C73.4902 12.6718 73.5432 12.3454 73.7314 12.0409C73.9196 11.7364 74.1879 11.543 74.5364 11.4608C74.8848 11.3785 75.2112 11.4315 75.5157 11.6197C75.8202 11.8079 76.0136 12.0763 76.0959 12.4247Z" fill="#1363DF"/>
<path d="M61.9154 12.4239C61.9977 12.7723 61.9447 13.0988 61.7565 13.4033C61.5682 13.7078 61.2999 13.9012 60.9515 13.9834C60.6031 14.0657 60.2766 14.0127 59.9721 13.8245C59.6676 13.6362 59.4743 13.3679 59.392 13.0195C59.3098 12.6711 59.3628 12.3446 59.551 12.0401C59.7392 11.7356 60.0075 11.5423 60.3559 11.46C60.7043 11.3778 61.0308 11.4308 61.3353 11.619C61.6398 11.8072 61.8332 12.0755 61.9154 12.4239Z" fill="#1363DF"/>
<path d="M132.028 52.6488C132.11 52.9972 132.057 53.3237 131.869 53.6282C131.681 53.9327 131.412 54.126 131.064 54.2083C130.715 54.2905 130.389 54.2375 130.084 54.0493C129.78 53.8611 129.587 53.5928 129.504 53.2444C129.422 52.896 129.475 52.5695 129.663 52.265C129.852 51.9605 130.12 51.7671 130.468 51.6849C130.817 51.6026 131.143 51.6556 131.448 51.8439C131.752 52.0321 131.946 52.3004 132.028 52.6488Z" fill="#1363DF"/>
<path d="M116.867 30.5824C117.174 30.9853 117.752 31.0595 118.152 30.752C118.553 30.4445 118.63 29.8666 118.322 29.4663C118.015 29.0633 117.437 28.9891 117.036 29.2966C116.633 29.6041 116.559 30.182 116.867 30.5824Z" fill="#1363DF"/>
<path d="M98.3889 20.1743C97.9859 20.4818 97.9117 21.0597 98.2192 21.46C98.5267 21.8604 99.1046 21.9372 99.505 21.6297C99.9079 21.3222 99.9821 20.7443 99.6746 20.3439C99.3671 19.941 98.7892 19.8668 98.3889 20.1743Z" fill="#1363DF"/>
</g>
</svg>
