<svg width="133" height="134" viewBox="0 0 133 134" fill="none" xmlns="http://www.w3.org/2000/svg">
<mask id="mask0_622_19" style="mask-type:luminance" maskUnits="userSpaceOnUse" x="0" y="0" width="133" height="134">
<path d="M0.967529 0.361816H132.968V133.362H0.967529V0.361816Z" fill="white"/>
</mask>
<g mask="url(#mask0_622_19)">
<path d="M122.315 104.275C122.315 104.63 122.189 104.932 121.939 105.183C121.688 105.433 121.386 105.558 121.031 105.558C120.677 105.558 120.375 105.433 120.124 105.183C119.874 104.932 119.748 104.63 119.748 104.275C119.748 103.921 119.874 103.619 120.124 103.368C120.375 103.117 120.677 102.992 121.031 102.992C121.386 102.992 121.688 103.117 121.939 103.368C122.189 103.619 122.315 103.921 122.315 104.275Z" fill="white"/>
<path d="M105.677 118.739C105.819 118.881 105.927 119.043 106.004 119.228C106.08 119.412 106.118 119.605 106.118 119.804C106.118 120.004 106.08 120.196 106.004 120.38C105.927 120.565 105.819 120.728 105.677 120.869C105.536 121.01 105.373 121.119 105.189 121.195C105.004 121.272 104.812 121.31 104.613 121.31C104.413 121.31 104.221 121.272 104.036 121.195C103.852 121.119 103.689 121.01 103.548 120.869C103.407 120.728 103.298 120.565 103.221 120.38C103.145 120.196 103.107 120.004 103.107 119.804C103.107 119.605 103.145 119.412 103.221 119.228C103.298 119.043 103.407 118.881 103.548 118.739C103.689 118.598 103.852 118.489 104.036 118.413C104.221 118.337 104.413 118.298 104.613 118.298C104.812 118.298 105.004 118.337 105.189 118.413C105.373 118.489 105.536 118.598 105.677 118.739Z" fill="white"/>
<path d="M92.6444 112.354C92.6874 112.537 92.6939 112.72 92.6639 112.905C92.6339 113.09 92.5696 113.262 92.4711 113.422C92.3726 113.581 92.2473 113.716 92.0953 113.825C91.9433 113.935 91.7761 114.011 91.5937 114.054C91.4114 114.097 91.2277 114.104 91.0427 114.074C90.8578 114.044 90.6856 113.979 90.5262 113.881C90.3668 113.782 90.2324 113.657 90.1228 113.505C90.0133 113.353 89.937 113.186 89.8939 113.003C89.8509 112.821 89.8444 112.637 89.8744 112.452C89.9044 112.267 89.9687 112.095 90.0672 111.936C90.1657 111.777 90.291 111.642 90.443 111.532C90.595 111.423 90.7622 111.347 90.9446 111.304C91.1269 111.261 91.3106 111.254 91.4955 111.284C91.6805 111.314 91.8527 111.378 92.0121 111.477C92.1714 111.575 92.3059 111.701 92.4155 111.853C92.525 112.005 92.6013 112.172 92.6444 112.354Z" fill="white"/>
<path d="M72.0317 123.222C72.0317 123.572 71.908 123.871 71.6606 124.118C71.4131 124.366 71.1144 124.489 70.7645 124.489C70.4146 124.489 70.1159 124.366 69.8685 124.118C69.621 123.871 69.4973 123.572 69.4973 123.222C69.4973 122.872 69.621 122.574 69.8685 122.326C70.1159 122.079 70.4146 121.955 70.7645 121.955C71.1144 121.955 71.4131 122.079 71.6606 122.326C71.908 122.574 72.0317 122.872 72.0317 123.222Z" fill="white"/>
<path d="M84.4425 91.399C84.64 91.4808 84.8143 91.5973 84.9654 91.7484C85.1166 91.8996 85.233 92.0739 85.3148 92.2714C85.3966 92.4688 85.4375 92.6745 85.4375 92.8882C85.4375 93.1019 85.3966 93.3075 85.3149 93.505C85.233 93.7025 85.1166 93.8768 84.9654 94.0279C84.8143 94.1791 84.64 94.2955 84.4425 94.3773C84.245 94.4591 84.0394 94.5 83.8257 94.5C83.6119 94.5 83.4063 94.4591 83.2089 94.3773C83.0114 94.2955 82.8371 94.1791 82.6859 94.0279C82.5348 93.8768 82.4183 93.7025 82.3366 93.505C82.2548 93.3075 82.2138 93.1019 82.2138 92.8882C82.2139 92.6744 82.2548 92.4688 82.3366 92.2714C82.4183 92.0739 82.5348 91.8996 82.6859 91.7484C82.8371 91.5973 83.0114 91.4808 83.2089 91.399C83.4063 91.3172 83.6119 91.2763 83.8257 91.2763C84.0394 91.2763 84.2451 91.3172 84.4425 91.399Z" fill="white"/>
<path d="M118.256 19.6375C118.256 19.9414 118.148 20.2007 117.933 20.4155C117.718 20.6303 117.459 20.7377 117.155 20.7377C116.852 20.7377 116.592 20.6303 116.377 20.4155C116.163 20.2007 116.055 19.9414 116.055 19.6375C116.055 19.3337 116.163 19.0744 116.377 18.8596C116.592 18.6448 116.852 18.5374 117.155 18.5374C117.459 18.5374 117.718 18.6448 117.933 18.8596C118.148 19.0744 118.256 19.3337 118.256 19.6375Z" fill="white"/>
<path d="M128.682 39.0167C129.26 39.0167 129.729 38.5475 129.729 37.9695C129.729 37.3916 129.26 36.9224 128.682 36.9224C128.104 36.9224 127.635 37.3916 127.635 37.9695C127.635 38.5475 128.104 39.0167 128.682 39.0167Z" fill="white"/>
<path d="M87.8574 34.1126C87.9852 34.2404 88.0836 34.3878 88.1528 34.5547C88.2219 34.7217 88.2565 34.8955 88.2565 35.0762C88.2565 35.2569 88.2219 35.4307 88.1528 35.5976C88.0836 35.7646 87.9852 35.9119 87.8574 36.0397C87.7296 36.1675 87.5823 36.2659 87.4153 36.3351C87.2484 36.4042 87.0746 36.4388 86.8939 36.4388C86.7132 36.4388 86.5393 36.4042 86.3724 36.3351C86.2055 36.2659 86.0581 36.1675 85.9303 36.0397C85.8026 35.9119 85.7041 35.7646 85.6349 35.5976C85.5658 35.4307 85.5312 35.2569 85.5312 35.0762C85.5312 34.8955 85.5658 34.7217 85.6349 34.5547C85.7041 34.3878 85.8026 34.2404 85.9303 34.1126C86.0581 33.9849 86.2055 33.8864 86.3724 33.8173C86.5393 33.7481 86.7132 33.7135 86.8939 33.7135C87.0746 33.7135 87.2484 33.7481 87.4153 33.8173C87.5823 33.8864 87.7296 33.9849 87.8574 34.1126Z" fill="white"/>
<path d="M100.093 37.5843C100.221 37.7121 100.32 37.8595 100.389 38.0264C100.458 38.1933 100.493 38.3672 100.493 38.5479C100.493 38.7285 100.458 38.9024 100.389 39.0693C100.32 39.2363 100.221 39.3836 100.093 39.5114C99.9657 39.6392 99.8183 39.7376 99.6514 39.8068C99.4845 39.8759 99.3106 39.9105 99.1299 39.9105C98.9492 39.9105 98.7754 39.8759 98.6085 39.8068C98.4415 39.7376 98.2942 39.6392 98.1664 39.5114C98.0386 39.3836 97.9402 39.2363 97.871 39.0693C97.8019 38.9024 97.7673 38.7286 97.7673 38.5479C97.7673 38.3672 97.8019 38.1933 97.871 38.0264C97.9402 37.8595 98.0386 37.7121 98.1664 37.5843C98.2942 37.4565 98.4415 37.3581 98.6085 37.2889C98.7754 37.2198 98.9493 37.1852 99.1299 37.1852C99.3106 37.1852 99.4845 37.2198 99.6514 37.2889C99.8183 37.3581 99.9657 37.4565 100.093 37.5843Z" fill="white"/>
<path d="M102.015 48.716C102.182 48.7852 102.329 48.8837 102.457 49.0114C102.585 49.1392 102.683 49.2866 102.752 49.4535C102.821 49.6204 102.856 49.7943 102.856 49.975C102.856 50.1557 102.821 50.3295 102.752 50.4964C102.683 50.6633 102.585 50.8107 102.457 50.9385C102.329 51.0663 102.182 51.1647 102.015 51.2339C101.848 51.303 101.674 51.3376 101.493 51.3376C101.313 51.3376 101.139 51.303 100.972 51.2339C100.805 51.1647 100.658 51.0663 100.53 50.9385C100.402 50.8107 100.303 50.6634 100.234 50.4964C100.165 50.3295 100.131 50.1557 100.131 49.975C100.131 49.7943 100.165 49.6204 100.234 49.4535C100.304 49.2865 100.402 49.1392 100.53 49.0114C100.657 48.8836 100.805 48.7852 100.972 48.716C101.139 48.6469 101.313 48.6123 101.493 48.6123C101.674 48.6123 101.848 48.6469 102.015 48.716Z" fill="white"/>
<path d="M101.816 75.2185C101.858 75.3944 101.864 75.5715 101.835 75.7498C101.806 75.9282 101.744 76.0942 101.649 76.2479C101.554 76.4016 101.434 76.5313 101.287 76.637C101.14 76.7426 100.979 76.8162 100.803 76.8577C100.627 76.8992 100.45 76.9055 100.272 76.8765C100.094 76.8476 99.9276 76.7856 99.7738 76.6906C99.6201 76.5956 99.4905 76.4748 99.3848 76.3282C99.2792 76.1816 99.2056 76.0204 99.1641 75.8445C99.1226 75.6686 99.1163 75.4915 99.1452 75.3132C99.1742 75.1348 99.2362 74.9688 99.3312 74.8151C99.4262 74.6614 99.547 74.5317 99.6936 74.426C99.8402 74.3204 100.001 74.2468 100.177 74.2053C100.353 74.1638 100.53 74.1575 100.709 74.1865C100.887 74.2154 101.053 74.2774 101.207 74.3724C101.36 74.4674 101.49 74.5882 101.596 74.7348C101.701 74.8814 101.775 75.0426 101.816 75.2185Z" fill="white"/>
<path d="M86.8936 20.3506C86.3051 20.3506 85.8279 20.8278 85.8279 21.4163C85.8279 22.0048 86.3051 22.482 86.8936 22.482C87.4821 22.482 87.9593 22.0048 87.9593 21.4163C87.9593 20.8278 87.4821 20.3506 86.8936 20.3506Z" fill="white"/>
<path d="M82.5087 2.72903C83.1449 2.72903 83.6619 2.21207 83.6619 1.57582C83.6619 0.939564 83.1449 0.422607 82.5087 0.422607C81.8724 0.422607 81.3555 0.939564 81.3555 1.57582C81.3555 2.21207 81.8724 2.72903 82.5087 2.72903Z" fill="white"/>
<path d="M130.445 67.5394C131.288 67.5394 131.97 66.8554 131.97 66.015C131.97 65.1746 131.286 64.4907 130.445 64.4907C129.605 64.4907 128.921 65.1746 128.921 66.015C128.921 66.3278 129.016 66.6194 129.178 66.8633L122.28 71.9587C122.068 71.8738 121.84 71.8288 121.599 71.8288C121.281 71.8288 120.981 71.9083 120.719 72.0515L107.834 60.5989C108.229 60.1376 108.471 59.5411 108.471 58.8863C108.471 58.775 108.463 58.6663 108.449 58.5602L121.983 57.0571C122.163 57.6986 122.752 58.1679 123.449 58.1679C124.292 58.1679 124.973 57.4839 124.973 56.6435C124.973 55.9701 124.536 55.3975 123.929 55.196L124.92 48.913C124.92 48.913 124.936 48.913 124.942 48.913C125.657 48.913 126.238 48.3325 126.238 47.6167C126.238 46.9009 125.657 46.3203 124.942 46.3203C124.226 46.3203 123.645 46.9009 123.645 47.6167C123.645 48.1522 123.969 48.6108 124.43 48.807L123.433 55.1165C123.155 55.1165 122.895 55.196 122.67 55.3286L110.751 41.103C111.35 40.7319 111.753 40.0691 111.753 39.3109C111.753 39.2234 111.745 39.1359 111.734 39.0511H118.555C118.555 39.0511 118.555 39.0617 118.555 39.0697C118.555 39.7854 119.136 40.366 119.852 40.366C120.567 40.366 121.148 39.7854 121.148 39.0697C121.148 38.3539 120.567 37.7733 119.852 37.7733C119.319 37.7733 118.863 38.0941 118.664 38.5527H111.609C111.405 38.0278 111.002 37.6063 110.488 37.3809L109.648 26.8562C110.207 26.6229 110.599 26.0742 110.599 25.43C110.599 24.5763 109.907 23.8844 109.054 23.8844C108.2 23.8844 107.508 24.5763 107.508 25.43C107.508 25.5042 107.516 25.5758 107.524 25.6447L97.7285 28.7305C97.5641 27.7523 96.7291 27.0047 95.7137 26.9755L91.7981 14.6163C92.0791 14.3512 92.2859 14.0119 92.3893 13.6301L97.9963 14.6773C98.0334 15.3984 98.6219 15.971 99.351 15.971C100.08 15.971 100.714 15.3612 100.714 14.6083C100.714 13.8554 100.104 13.2457 99.351 13.2457C98.7969 13.2457 98.3197 13.5797 98.1076 14.0543L92.4582 12.9992C92.4131 11.8751 91.4906 10.9764 90.3559 10.9764C89.7223 10.9764 89.155 11.2574 88.7706 11.7001L70.3112 5.21299C70.4438 4.86305 70.5207 4.4866 70.5207 4.0916C70.5207 2.3525 69.1103 0.942139 67.3712 0.942139C65.6321 0.942139 64.2218 2.3525 64.2218 4.0916C64.2218 4.26922 64.2403 4.44419 64.2695 4.61385L45.3939 7.79247C45.0201 6.77712 44.0472 6.05073 42.902 6.05073C41.4359 6.05073 40.2456 7.24105 40.2456 8.70709C40.2456 8.8476 40.2588 8.9828 40.2801 9.118L15.0022 28.8896C14.5516 28.0863 13.6926 27.5402 12.7038 27.5402C11.2483 27.5402 10.0713 28.7199 10.0713 30.1727C10.0713 31.2411 10.7075 32.1583 11.6221 32.5719L2.57142 65.5378C1.62764 65.9381 0.967529 66.8739 0.967529 67.9635C0.967529 69.0531 1.66741 70.0367 2.65095 70.4184L9.4138 97.1888C8.50184 97.8834 7.9133 98.9756 7.9133 100.211C7.9133 102.311 9.61528 104.013 11.7149 104.013C12.3008 104.013 12.8522 103.877 13.348 103.639L29.7978 120.502C29.6467 120.836 29.5592 121.205 29.5592 121.594C29.5592 123.05 30.7389 124.227 32.1917 124.227C33.2097 124.227 34.0899 123.649 34.5299 122.806L53.0343 129.346C53.0184 129.489 53.0078 129.632 53.0078 129.778C53.0078 131.87 54.7045 133.567 56.7962 133.567C58.7235 133.567 60.3088 132.127 60.5501 130.266L83.3996 127.3C83.5374 128.251 84.3539 128.983 85.3428 128.983C86.4271 128.983 87.3072 128.103 87.3072 127.019C87.3072 126.931 87.2993 126.846 87.2887 126.764L97.9671 125.104L97.9353 124.606L87.1614 126.279C87.0607 126.032 86.9122 125.81 86.7266 125.624L100.539 109.031C100.769 109.097 101.016 109.134 101.268 109.134C101.832 109.134 102.355 108.954 102.784 108.652L109.359 110.741C109.359 110.741 109.359 110.744 109.359 110.746C109.359 111.637 110.08 112.358 110.971 112.358C111.861 112.358 112.582 111.637 112.582 110.746C112.582 109.856 111.861 109.134 110.971 109.134C110.257 109.134 109.65 109.598 109.441 110.243L103.222 108.268C103.646 107.801 103.905 107.181 103.905 106.502C103.905 105.455 103.293 104.551 102.405 104.127L102.872 96.8415C103.047 96.9052 103.235 96.9449 103.431 96.9449C104.322 96.9449 105.043 96.2238 105.043 95.3331C105.043 95.1184 105 94.9116 104.923 94.7234L115.175 89.4928C115.337 89.7128 115.552 89.8931 115.801 90.0098L113.494 98.0425C112.638 98.0796 111.951 98.7848 111.951 99.6517C111.951 100.519 112.673 101.264 113.563 101.264C114.454 101.264 115.175 100.542 115.175 99.6517C115.175 98.912 114.677 98.289 113.995 98.1008L116.278 90.1503C116.344 90.1582 116.41 90.1635 116.477 90.1635C117.073 90.1635 117.596 89.8374 117.874 89.3549L123.555 91.5341C123.552 91.5712 123.544 91.6057 123.544 91.6428C123.544 92.3507 124.12 92.9259 124.828 92.9259C125.535 92.9259 126.111 92.3506 126.111 91.6428C126.111 90.935 125.535 90.3597 124.828 90.3597C124.335 90.3597 123.91 90.6434 123.696 91.0516L118.054 88.8884C118.078 88.7797 118.091 88.6657 118.091 88.5517C118.091 88.3396 118.049 88.1355 117.975 87.9499L121.41 85.9059L121.156 85.4765L117.72 87.5204C117.423 87.1652 116.978 86.9372 116.479 86.9372C116.087 86.9372 115.729 87.0777 115.448 87.311L108.63 81.3143C108.762 81.0598 108.836 80.7708 108.836 80.466C108.836 80.1929 108.775 79.9357 108.672 79.7024L119.971 74.5514C120.284 75.1347 120.896 75.5323 121.604 75.5323C121.885 75.5323 122.15 75.4687 122.389 75.3547L127.269 81.0465L127.648 80.7231L122.813 75.0817C123.205 74.7423 123.457 74.2413 123.457 73.6819C123.457 73.1225 123.184 72.5738 122.757 72.2344L129.531 67.2319C129.788 67.4281 130.106 67.5447 130.453 67.5447L130.445 67.5394ZM15.2117 30.9786L20.7338 33.3434C20.4502 33.8391 20.2831 34.4117 20.2831 35.0241C20.2831 35.9149 20.6304 36.7261 21.1951 37.3279L13.8676 48.0753C13.7668 48.0408 13.6635 48.017 13.5574 48.0064L13.0405 32.784C14.0638 32.6514 14.9041 31.9357 15.2117 30.976L15.2117 30.9786ZM75.8944 87.0193C75.571 86.7357 75.1786 86.5316 74.7439 86.4335L74.6193 71.1369C74.6935 71.1395 74.7677 71.1475 74.8419 71.1475C75.8918 71.1475 76.8461 70.7551 77.5752 70.1109C80.4834 73.263 86.899 80.2247 89.6667 83.292C89.2982 83.6578 89.0675 84.1615 89.049 84.7182L75.8944 87.014L75.8944 87.0193ZM80.1069 105.746C80.1069 106.001 80.1547 106.245 80.2368 106.473L66.6263 108.016C66.401 107.478 66.0139 107.022 65.5314 106.706L73.6012 91.5712C73.7842 91.611 73.9724 91.6322 74.1659 91.6322C74.6033 91.6322 75.0169 91.5235 75.3801 91.3353L80.9924 104.031C80.4569 104.413 80.1069 105.039 80.1069 105.746ZM43.077 106.438C43.0504 105.415 42.385 104.553 41.4598 104.241L46.9873 90.9243C47.2497 90.9827 47.5228 91.0145 47.8011 91.0145C48.395 91.0145 48.9544 90.874 49.4528 90.6301L61.8252 107.181C61.3984 107.647 61.1254 108.252 61.0776 108.92L43.077 106.436V106.438ZM29.1748 86.6508C29.6016 86.3672 29.9436 85.9642 30.1451 85.487L44.026 87.4727C44.1241 89.0023 45.1262 90.2828 46.5048 90.7865L40.9641 104.132C40.8739 104.121 40.7838 104.116 40.6937 104.116C40.1873 104.116 39.7181 104.275 39.331 104.545L29.1722 86.6535L29.1748 86.6508ZM13.6741 78.4114L20.2275 65.5484C20.8902 66.1157 21.7465 66.4577 22.6877 66.4577C22.7036 66.4577 22.7221 66.4577 22.738 66.4577L27.0937 81.9028C26.256 82.1096 25.5747 82.714 25.2698 83.5093L14.3421 79.9118C14.3527 79.835 14.3607 79.7581 14.3607 79.6812C14.3607 79.151 14.0876 78.6844 13.6741 78.414L13.6741 78.4114ZM27.0115 34.5628L34.1376 31.6944C34.2728 32.1716 34.6333 32.5507 35.0973 32.7177L35.1609 43.5711C34.9939 43.6613 34.8481 43.7832 34.7314 43.9317L26.4681 36.9196C26.8339 36.3788 27.0487 35.7267 27.0487 35.0268C27.0487 34.8704 27.0354 34.7166 27.0142 34.5655L27.0115 34.5628ZM90.0617 82.9897C87.286 79.9065 80.8492 72.9237 77.9304 69.7636C78.5852 69.0319 78.9855 68.0669 78.9855 67.0091C78.9855 66.8925 78.9776 66.7785 78.967 66.6645L92.0606 65.7393C92.2143 66.3914 92.673 66.9296 93.2774 67.1894L91.0293 82.6902C90.6767 82.7114 90.3453 82.8174 90.059 82.9924L90.0617 82.9897ZM63.9593 106.242C63.2939 106.242 62.6842 106.47 62.1937 106.847L49.8902 90.3888C50.6802 89.8639 51.2608 89.05 51.4835 88.0983L71.5387 89.1852C71.605 90.1529 72.1909 90.9721 73.0207 91.375L65.0807 106.47C64.7361 106.324 64.3544 106.245 63.9567 106.245L63.9593 106.242ZM30.3042 84.9754C30.3386 84.8083 30.3545 84.636 30.3545 84.4584C30.3545 83.4059 29.7342 82.4993 28.8434 82.0778L34.4955 72.7672C34.8719 72.974 35.3041 73.0933 35.7627 73.0933C36.3883 73.0933 36.9636 72.8733 37.417 72.5074L46.2662 83.7718C45.0308 84.3206 44.148 85.5082 44.0313 86.9159L30.3042 84.9754ZM25.9379 64.6073L33.2071 69.8325C33.1567 70.034 33.1275 70.2434 33.1275 70.4608C33.1275 71.2747 33.496 72.0011 34.0766 72.4862L28.4484 81.932C28.2178 81.8657 27.9739 81.8286 27.722 81.8286C27.6664 81.8286 27.6133 81.8339 27.5577 81.8365L23.2576 66.418C24.3976 66.2456 25.3705 65.5643 25.9379 64.6126V64.6073ZM35.6381 32.8105C36.3751 32.7999 36.9875 32.2697 37.1253 31.5698L47.0801 33.513C47.0801 33.5316 47.0774 33.5528 47.0774 33.5713C47.0774 34.0803 47.2577 34.5496 47.5572 34.9154L36.6693 43.7328C36.4334 43.534 36.1312 43.4094 35.7971 43.4094C35.7812 43.4094 35.7653 43.4147 35.7494 43.4147L35.6407 32.8131L35.6381 32.8105ZM58.4849 26.9251C58.4849 26.9251 58.4902 26.9251 58.4955 26.9251L63.6598 42.129C63.5696 42.1952 63.4848 42.2695 63.4106 42.3543L51.1229 34.486C51.2555 34.2076 51.3323 33.9001 51.3323 33.5713C51.3323 33.2029 51.2369 32.8556 51.0725 32.5533L57.4961 26.493C57.7453 26.7581 58.0952 26.9278 58.4876 26.9278L58.4849 26.9251ZM72.1273 29.0142C72.3314 29.0142 72.5302 28.9956 72.7264 28.9691L76.3027 45.4587C75.966 45.5992 75.6876 45.851 75.5074 46.1665L66.0961 43.4677C66.0961 43.4359 66.1014 43.4068 66.1014 43.375C66.1014 42.8182 65.8045 42.3331 65.3644 42.0627L70.7487 28.7915C71.1835 28.9346 71.6474 29.0142 72.1299 29.0142L72.1273 29.0142ZM88.0151 51.8504L77.326 63.7006C76.7507 63.2685 76.0641 62.9822 75.3112 62.8973L77.0264 48.6426C77.7104 48.6081 78.283 48.1628 78.5031 47.5451L87.5219 50.1298C87.5034 50.2385 87.4928 50.3525 87.4928 50.4665C87.4928 50.9967 87.6916 51.4819 88.0151 51.8504ZM71.096 68.7668L61.576 73.0695C61.295 72.7116 60.8576 72.4783 60.3645 72.4783C60.1153 72.4783 59.8794 72.5393 59.6699 72.6453L50.8154 60.5591C51.4463 60.1668 51.9713 59.6259 52.3371 58.9791L71.0456 65.3549C70.8229 65.8612 70.6983 66.4206 70.6983 67.0091C70.6983 67.6374 70.8415 68.2313 71.0933 68.7668H71.096ZM48.6521 83.5438L48.395 61.2219C48.4268 61.2219 48.4559 61.2272 48.4851 61.2272C49.1611 61.2272 49.8 61.0708 50.3753 60.8004L59.267 72.9396C58.9939 73.2179 58.8242 73.597 58.8242 74.0185C58.8242 74.3155 58.9091 74.5912 59.0549 74.8271L49.9352 84.1058C49.5508 83.8434 49.1161 83.6525 48.6495 83.5438H48.6521ZM49.2035 35.7001C49.8743 35.7001 50.4708 35.39 50.8605 34.9048L63.1428 42.7705C63.0633 42.9561 63.0182 43.1602 63.0182 43.3749C63.0182 43.6639 63.0977 43.9317 63.2383 44.1623L51.7777 53.8387C51.0328 53.0089 49.9803 52.4628 48.7953 52.3806L49.0339 35.6895C49.0896 35.6948 49.1452 35.6975 49.2009 35.6975L49.2035 35.7001ZM76.5307 48.5922L74.8128 62.8708C74.5424 62.8708 74.2799 62.9 74.0228 62.9504L65.4307 44.6448C65.6772 44.4751 65.8708 44.2365 65.9847 43.9555L75.3244 46.6331C75.3006 46.7471 75.2847 46.8664 75.2847 46.9883C75.2847 47.7598 75.8149 48.4093 76.5307 48.5922ZM52.0932 54.2284L63.5617 44.5467C63.8294 44.7774 64.1794 44.9152 64.5611 44.9152C64.7069 44.9152 64.8475 44.894 64.98 44.8569L73.535 63.0829C72.5806 63.401 71.7826 64.0559 71.2789 64.9068L52.5651 58.5284C52.7904 57.9955 52.9177 57.4097 52.9177 56.7946C52.9177 55.8349 52.6102 54.9521 52.0932 54.2257V54.2284ZM37.1545 44.7694C37.1545 44.4645 37.0511 44.1888 36.8841 43.9608L47.9576 35.2945C48.1352 35.4218 48.3313 35.5252 48.5434 35.5941L48.3022 52.3753C47.0085 52.4283 45.8579 53.0327 45.0812 53.9633L36.7144 45.7635C36.9822 45.5143 37.1518 45.1644 37.1518 44.7694H37.1545ZM45.3436 59.9202L37.5097 68.4964C37.0431 68.0828 36.4334 67.8283 35.7627 67.8283C34.7076 67.8283 33.8009 68.4487 33.3794 69.3447L26.1685 64.1619C26.3647 63.7059 26.4734 63.2022 26.4734 62.6746C26.4734 62.0066 26.2984 61.3809 25.9962 60.8375L44.2487 58.1016C44.4635 58.7961 44.8426 59.4165 45.341 59.9202L45.3436 59.9202ZM47.8011 83.4457C47.4379 83.4457 47.0907 83.4987 46.7593 83.5942L37.7748 72.1575C38.1619 71.6989 38.3952 71.1077 38.3952 70.4608C38.3952 69.859 38.191 69.305 37.8491 68.8622L45.7148 60.2516C46.3298 60.7447 47.0774 61.0734 47.8939 61.1848L48.1511 83.4643C48.0344 83.4537 47.9178 83.4457 47.8011 83.4457ZM59.3836 75.2036C59.6487 75.4236 59.9907 75.5561 60.3645 75.5561C60.6959 75.5561 61.0034 75.4501 61.2526 75.2725L72.5249 86.9451C71.9974 87.3666 71.6342 87.9843 71.5493 88.6895L51.5683 87.6078C51.5816 87.4859 51.5869 87.3613 51.5869 87.234C51.5869 86.1153 51.0991 85.1132 50.3276 84.4186L59.3836 75.2062L59.3836 75.2036ZM72.9517 86.6667L61.6078 74.9199C61.7934 74.6654 61.9048 74.3526 61.9048 74.0159C61.9048 73.8356 61.873 73.6659 61.8173 73.5069L71.3372 69.2042C71.947 70.1771 72.9491 70.877 74.1235 71.0838L74.2481 86.3751C74.2216 86.3751 74.1951 86.3698 74.1659 86.3698C73.7285 86.3698 73.3176 86.4785 72.9544 86.6667L72.9517 86.6667ZM91.9996 65.2409L78.8954 66.1687C78.7231 65.331 78.2963 64.5887 77.7024 64.0214L88.3809 52.1844C88.7255 52.4283 89.1444 52.5715 89.5951 52.5715C89.7594 52.5715 89.9185 52.5503 90.0723 52.5158L93.3861 63.2738C92.5802 63.5681 92.0022 64.3369 91.9969 65.2435L91.9996 65.2409ZM87.6545 49.6473L78.5958 47.0493C78.5958 47.0281 78.5985 47.0069 78.5985 46.9857C78.5985 46.0711 77.8562 45.3288 76.9416 45.3288C76.8886 45.3288 76.8355 45.3314 76.7825 45.3367L73.2115 28.8736C73.6039 28.7756 73.9724 28.6271 74.3144 28.4309L88.5612 48.6293C88.1556 48.8573 87.8348 49.2152 87.6519 49.6473H87.6545ZM70.2768 28.6059L64.8952 41.8718C64.7865 41.8479 64.6725 41.832 64.5558 41.832C64.3968 41.832 64.243 41.8559 64.0998 41.9009L58.9807 26.8244C59.4844 26.6255 59.8422 26.1378 59.8422 25.5625C59.8422 25.5254 59.8343 25.4882 59.8316 25.4511L67.7424 25.1887C67.9518 26.7104 68.9327 27.9855 70.2795 28.6032L70.2768 28.6059ZM57.1223 25.5651C57.1223 25.7533 57.1594 25.931 57.2283 26.0953L50.7942 32.1663C50.4045 31.7235 49.8345 31.4425 49.1982 31.4425C49.1823 31.4425 49.1691 31.4425 49.1532 31.4425L43.9279 11.154C44.1771 11.0506 44.4051 10.9101 44.6066 10.7378L57.5252 24.5948C57.276 24.8414 57.1196 25.1834 57.1196 25.5598L57.1223 25.5651ZM42.902 11.3634C43.1061 11.3634 43.3049 11.3369 43.4958 11.2945L48.6521 31.5168C47.9178 31.7103 47.3425 32.2856 47.1463 33.0199L37.1333 31.0661C37.0617 30.5385 36.725 30.0984 36.2611 29.8784L42.5865 11.3422C42.6899 11.3555 42.7933 11.3634 42.8993 11.3634L42.902 11.3634ZM35.0416 45.8987C35.2563 46.0419 35.5135 46.1241 35.7892 46.1241C35.9615 46.1241 36.1232 46.0896 36.2743 46.0313L44.7763 54.3662C44.3177 55.0635 44.0499 55.8985 44.0499 56.7946C44.0499 57.073 44.0791 57.346 44.1294 57.6111L25.6887 60.3762C25.5269 60.1641 25.344 59.9679 25.1399 59.7956L35.0416 45.8987ZM93.7572 67.3272C93.8712 67.3458 93.9852 67.3591 94.1045 67.3591C95.2684 67.3591 96.2121 66.4153 96.2121 65.2515C96.2121 65.0579 96.183 64.8697 96.1352 64.6921L103.768 60.514C103.943 60.7341 104.149 60.9276 104.385 61.084L91.5728 82.3932L93.7572 67.3299V67.3272ZM95.9444 64.2255C95.5838 63.5813 94.8946 63.1439 94.1045 63.1439C94.025 63.1439 93.9481 63.1492 93.8739 63.1571L90.5442 52.3461C90.9074 52.1632 91.2069 51.8795 91.4137 51.5322L103.969 57.0305C103.497 57.5077 103.206 58.1625 103.206 58.8836C103.206 59.3184 103.314 59.7293 103.5 60.0925L95.947 64.2255H95.9444ZM104.401 56.6753L91.6125 51.0736C91.6709 50.8801 91.7027 50.676 91.7027 50.4639C91.7027 50.1776 91.6444 49.9045 91.541 49.6553L107.887 40.4694C108.084 40.7689 108.357 41.0128 108.675 41.1799L105.234 56.3227C104.931 56.3916 104.65 56.5136 104.399 56.6779L104.401 56.6753ZM107.667 40.0213L91.2971 49.2205C91.032 48.8573 90.6555 48.5816 90.2154 48.4464L95.3081 31.1509C95.4221 31.1695 95.5388 31.1827 95.6581 31.1827C96.2413 31.1827 96.7715 30.9441 97.1533 30.5597L107.62 38.7409C107.569 38.9212 107.54 39.1094 107.54 39.3056C107.54 39.5574 107.585 39.796 107.667 40.0187L107.667 40.0213ZM94.8283 31.0131L89.7197 48.3616C89.6799 48.3616 89.6375 48.3563 89.5977 48.3563C89.4042 48.3563 89.216 48.3854 89.0357 48.4332L74.7333 28.1552C75.5047 27.5905 76.0879 26.7873 76.3663 25.8514L93.5558 28.9505C93.5558 28.9929 93.5505 29.0327 93.5505 29.0751C93.5505 29.9447 94.0754 30.6896 94.8283 31.0131ZM67.6973 24.685L59.6779 24.9289C59.4499 24.4994 59.0019 24.2025 58.4823 24.2025C58.302 24.2025 58.1297 24.2396 57.9733 24.3032L44.8956 10.4567C45.1156 10.2075 45.2879 9.91858 45.4019 9.60045L68.0234 22.9035C67.8113 23.4204 67.692 23.9851 67.692 24.5789C67.692 24.6134 67.6973 24.6479 67.6973 24.685ZM41.9741 11.1911L35.7627 29.7379C35.7123 29.7326 35.6619 29.7299 35.6116 29.7299C34.7606 29.7299 34.0713 30.4192 34.0713 31.2702C34.0713 31.2755 34.0713 31.2835 34.0713 31.2888L26.9081 34.0989C26.7332 33.4865 26.3912 32.9457 25.9352 32.5295L41.4916 10.9551C41.6427 11.0506 41.8044 11.1301 41.9715 11.1937L41.9741 11.1911ZM26.1499 37.3067L34.4928 44.3876C34.4584 44.5069 34.4319 44.6342 34.4319 44.7641C34.4319 45.0557 34.5246 45.3235 34.6811 45.5435L24.7422 59.4934C24.2173 59.154 23.6049 58.9393 22.9448 58.8942L24.1245 38.3671C24.9225 38.2584 25.6277 37.8713 26.1473 37.304L26.1499 37.3067ZM22.4464 58.8942C21.4894 58.9526 20.6278 59.3635 19.9915 60.005L14.3898 50.5487C14.6815 50.2809 14.867 49.8965 14.867 49.4671C14.867 48.9978 14.647 48.5816 14.305 48.3139L21.561 37.6725C22.1283 38.1232 22.8441 38.3962 23.6208 38.4042L22.4411 58.8969L22.4464 58.8942ZM13.3983 50.9384C13.6025 50.9384 13.796 50.896 13.9736 50.8218L19.6522 60.408C19.1803 61.0389 18.8966 61.821 18.8966 62.672C18.8966 62.7754 18.9046 62.8761 18.9126 62.9769L6.0125 66.9084C5.83488 66.5054 5.56182 66.1581 5.21983 65.8904L12.8443 50.8297C13.0166 50.9013 13.2048 50.9384 13.401 50.9384H13.3983ZM6.16626 67.3803L18.9841 63.4753C19.1326 64.1592 19.4666 64.7743 19.9306 65.2647L13.226 78.2151C13.1041 78.1833 12.9742 78.1648 12.8416 78.1648C12.5871 78.1648 12.3485 78.2284 12.1364 78.3398L5.58303 69.692C5.98599 69.2281 6.23254 68.6263 6.23254 67.9635C6.23254 67.762 6.20868 67.5685 6.16626 67.3803ZM13.1306 81.1631C13.5892 81.0756 13.9736 80.7787 14.1831 80.3784L25.1293 83.9812C25.1028 84.135 25.0842 84.2914 25.0842 84.4531C25.0842 85.2378 25.4289 85.9377 25.9723 86.4202L14.8061 98C14.2414 97.21 13.3824 96.6453 12.3883 96.4677L13.1306 81.1605L13.1306 81.1631ZM15.0765 98.4401L26.3832 86.7197C26.7756 86.9504 27.2316 87.0856 27.7194 87.0856C28.0852 87.0856 28.4352 87.0114 28.7506 86.8762L38.9811 104.84C38.7796 105.049 38.6152 105.293 38.4986 105.563L15.4529 100.86C15.49 100.648 15.5139 100.431 15.5139 100.208C15.5139 99.5694 15.3548 98.9703 15.0765 98.4401ZM43.0345 106.939L61.0803 109.426C61.1943 110.547 61.9498 111.475 62.9732 111.846L58.9966 126.698C58.3762 126.252 57.6154 125.987 56.7935 125.987C55.9717 125.987 55.1737 126.266 54.5454 126.732L41.4333 108.761C42.2525 108.493 42.8755 107.796 43.0345 106.937L43.0345 106.939ZM59.4128 127.048L63.4503 111.976C63.6147 112.006 63.7817 112.024 63.9567 112.024C64.7626 112.024 65.4917 111.693 66.0166 111.16L83.6143 126.072C83.495 126.292 83.4155 126.536 83.3863 126.796L60.5793 129.752C60.5713 128.689 60.1259 127.732 59.4128 127.048ZM83.898 125.682L66.3294 110.786C66.6581 110.317 66.8517 109.747 66.8517 109.132C66.8517 108.914 66.8251 108.702 66.7801 108.498L80.4834 106.945C80.8227 107.435 81.3635 107.772 81.9865 107.841L84.7728 125.136C84.4335 125.24 84.1366 125.43 83.9006 125.682H83.898ZM81.4272 103.793L75.8016 91.0622C76.4087 90.5797 76.7984 89.8374 76.7984 89.0023C76.7984 88.4244 76.6102 87.8915 76.2947 87.4567L89.0914 85.2219C89.2186 85.8263 89.603 86.3354 90.1279 86.6296L83.5533 104.121C83.1901 103.822 82.7235 103.641 82.2145 103.641C81.9362 103.641 81.6737 103.697 81.4298 103.793L81.4272 103.793ZM83.9271 104.53L90.5866 86.8178C90.7668 86.8682 90.9551 86.8974 91.1513 86.8974C91.6735 86.8974 92.1481 86.7065 92.5165 86.3937L102.233 94.2514C101.973 94.5377 101.814 94.9168 101.814 95.333C101.814 95.4603 101.83 95.5849 101.859 95.7042L84.11 104.84C84.057 104.731 83.9987 104.628 83.9298 104.53L83.9271 104.53ZM103.423 93.7185C103.137 93.7185 102.866 93.7954 102.633 93.9253L92.8506 86.0252C93.1024 85.6779 93.2535 85.2511 93.2535 84.7898C93.2535 84.6228 93.2323 84.461 93.1952 84.3046L105.194 80.9537C105.35 81.5237 105.772 81.9823 106.318 82.1891L103.72 93.745C103.624 93.7265 103.524 93.7159 103.423 93.7159V93.7185ZM105.128 80.4553L93.0256 83.8354C92.7896 83.3715 92.3867 83.0083 91.8962 82.8227L104.828 61.3173C105.104 61.4313 105.403 61.4976 105.714 61.5108L106.644 78.642C105.785 78.7984 105.13 79.5486 105.128 80.4553ZM122.291 55.6467C122.079 55.8932 121.946 56.2087 121.927 56.556L108.341 58.0671C107.996 57.012 107.007 56.2485 105.838 56.2485C105.814 56.2485 105.79 56.2511 105.767 56.2511L109.152 41.3522C109.311 41.3919 109.478 41.4131 109.65 41.4131C109.873 41.4131 110.088 41.3787 110.287 41.3151L122.293 55.644L122.291 55.6467ZM109.057 26.9702C109.091 26.9702 109.125 26.9675 109.157 26.9649L109.976 37.2298C109.868 37.2139 109.759 37.2006 109.648 37.2006C108.863 37.2006 108.182 37.6301 107.818 38.2637L97.4581 30.1674C97.6251 29.8943 97.7312 29.5788 97.7577 29.2421L107.678 26.1165C107.932 26.6229 108.452 26.9702 109.057 26.9702ZM95.2074 27.0206C94.4598 27.1823 93.8633 27.739 93.6406 28.4627L76.4776 25.3689C76.5227 25.1144 76.5519 24.852 76.5519 24.5842C76.5519 23.5848 76.2178 22.6675 75.6585 21.9252L88.6672 14.3379C89.0516 14.8548 89.664 15.1889 90.3559 15.1889C90.7244 15.1889 91.0717 15.0934 91.3739 14.9264L95.2074 27.0206ZM88.4816 12.1269C88.3358 12.4132 88.251 12.7393 88.251 13.0839C88.251 13.3756 88.312 13.6539 88.418 13.9084L75.335 21.5382C74.5265 20.6872 73.3892 20.1517 72.122 20.1517C71.7747 20.1517 71.438 20.1967 71.1119 20.271L68.0791 7.15882C68.9407 6.95999 69.6644 6.40857 70.0965 5.66628L88.4816 12.1269ZM64.3888 5.1016C64.8103 6.3476 65.9847 7.24366 67.3713 7.24366C67.4428 7.24366 67.5144 7.23836 67.586 7.23305L70.6347 20.4168C69.6087 20.7826 68.7551 21.5143 68.2382 22.4581L45.5265 9.1047C45.5451 8.9748 45.5583 8.8449 45.5583 8.70969C45.5583 8.56123 45.5424 8.41808 45.5212 8.27757L64.3888 5.1016ZM40.4179 9.64552C40.5637 10.0326 40.797 10.3772 41.0966 10.6529L25.5455 32.2193C25.0073 31.8561 24.3578 31.6467 23.6606 31.6467C22.5896 31.6467 21.6352 32.1477 21.0148 32.9271L15.3124 30.4855C15.323 30.3847 15.331 30.284 15.331 30.1806C15.331 29.897 15.2859 29.6239 15.2011 29.3667L40.4153 9.64552H40.4179ZM12.094 32.7336C12.2398 32.7681 12.3883 32.7893 12.5421 32.7999L13.059 48.0382C12.4122 48.1919 11.9323 48.7725 11.9323 49.4671C11.9323 49.9019 12.1232 50.2916 12.4228 50.562L4.79831 65.6174C4.44042 65.4344 4.0348 65.3284 3.60268 65.3284C3.44362 65.3284 3.28721 65.3443 3.1361 65.3708L12.094 32.7336ZM3.20237 70.5616C3.33227 70.5828 3.46483 70.596 3.60268 70.596C4.21508 70.596 4.77975 70.384 5.22778 70.034L11.7467 78.6367C11.4896 78.9071 11.3305 79.273 11.3305 79.6759C11.3305 80.4394 11.8952 81.0677 12.6269 81.1738L11.7229 96.4068C11.7229 96.4068 11.7176 96.4068 11.7149 96.4068C11.0389 96.4068 10.4053 96.5844 9.85388 96.8945L3.20237 70.5616ZM13.7987 103.384C14.525 102.907 15.0765 102.191 15.3416 101.343L38.3554 106.041C38.3263 106.189 38.3103 106.34 38.3103 106.497C38.3103 107.183 38.602 107.801 39.0686 108.236L32.7935 119.031C32.6 118.986 32.3985 118.959 32.1917 118.959C31.3116 118.959 30.5374 119.391 30.0576 120.054L13.7987 103.384ZM34.7155 122.342C34.7871 122.103 34.8242 121.854 34.8242 121.592C34.8242 120.523 34.188 119.606 33.2733 119.193L39.4662 108.538C39.8241 108.753 40.243 108.88 40.6936 108.88C40.7599 108.88 40.8236 108.875 40.8872 108.869L54.1716 127.048C53.6706 127.53 53.3021 128.151 53.1271 128.848L34.7155 122.342ZM86.3131 125.309C86.0268 125.144 85.6927 125.049 85.3401 125.049C85.3136 125.049 85.2845 125.051 85.2579 125.054L82.4823 107.833C83.5082 107.703 84.3036 106.833 84.3195 105.776L98.6378 106.603C98.675 107.56 99.2211 108.387 100.016 108.816L86.3131 125.309ZM101.936 103.952C101.721 103.896 101.498 103.862 101.265 103.862C99.9448 103.862 98.8552 104.834 98.6644 106.102L84.2665 105.272C84.2612 105.248 84.2558 105.227 84.2479 105.206L102.076 96.2026C102.188 96.3723 102.331 96.5208 102.495 96.6401L101.933 103.952H101.936ZM115.117 87.6768C114.958 87.926 114.865 88.2229 114.865 88.5411C114.865 88.716 114.894 88.8857 114.947 89.0448L104.68 94.3098C104.544 94.1454 104.38 94.0075 104.192 93.9042L106.734 82.2872C106.816 82.2978 106.901 82.3058 106.986 82.3058C107.522 82.3058 108.001 82.0778 108.341 81.7146L115.119 87.6768H115.117ZM108.404 79.2703C108.097 78.9045 107.651 78.6579 107.148 78.6128L106.217 61.479C106.689 61.4101 107.121 61.2192 107.479 60.9356L120.313 72.3431C119.966 72.6798 119.751 73.149 119.751 73.6686C119.751 73.8065 119.767 73.9417 119.796 74.0716L108.404 79.265L108.404 79.2703Z" fill="white"/>
<path d="M132.826 74.5649C132.826 74.8665 132.719 75.1239 132.506 75.3372C132.293 75.5505 132.035 75.6571 131.734 75.6571C131.432 75.6571 131.175 75.5505 130.961 75.3372C130.748 75.1239 130.641 74.8665 130.641 74.5649C130.641 74.2633 130.748 74.0058 130.961 73.7926C131.175 73.5793 131.432 73.4727 131.734 73.4727C132.035 73.4727 132.293 73.5793 132.506 73.7926C132.719 74.0058 132.826 74.2633 132.826 74.5649Z" fill="white"/>
<path d="M113.521 71.2867C113.603 71.6351 113.55 71.9616 113.362 72.2661C113.174 72.5706 112.905 72.764 112.557 72.8462C112.209 72.9284 111.882 72.8755 111.578 72.6872C111.273 72.499 111.08 72.2307 110.997 71.8823C110.915 71.5339 110.968 71.2074 111.156 70.9029C111.345 70.5984 111.613 70.405 111.961 70.3228C112.31 70.2406 112.636 70.2936 112.941 70.4818C113.245 70.67 113.439 70.9383 113.521 71.2867Z" fill="white"/>
<path d="M118.971 80.8292C118.971 81.2587 119.321 81.6086 119.751 81.6086C120.18 81.6086 120.53 81.2587 120.53 80.8292C120.53 80.3997 120.18 80.0498 119.751 80.0498C119.321 80.0498 118.971 80.3997 118.971 80.8292Z" fill="white"/>
<path d="M99.4117 85.5879C98.9823 85.5879 98.6323 85.9378 98.6323 86.3673C98.6323 86.7968 98.9823 87.1467 99.4117 87.1467C99.8412 87.1467 100.191 86.7968 100.191 86.3673C100.191 85.9378 99.8412 85.5879 99.4117 85.5879Z" fill="white"/>
<path d="M96.5035 57.1924C96.0741 57.1924 95.7241 57.5423 95.7241 57.9718C95.7241 58.4013 96.0741 58.7512 96.5035 58.7512C96.933 58.7512 97.2829 58.4013 97.2829 57.9718C97.2829 57.5423 96.933 57.1924 96.5035 57.1924Z" fill="white"/>
<path d="M92.0524 94.5483C91.6229 94.5483 91.2729 94.8983 91.2729 95.3278C91.2729 95.7572 91.6229 96.1072 92.0524 96.1072C92.4818 96.1072 92.8318 95.7572 92.8318 95.3278C92.8318 94.8983 92.4818 94.5483 92.0524 94.5483Z" fill="white"/>
<path d="M78.7945 112.647C78.3651 112.647 78.0151 112.997 78.0151 113.427C78.0151 113.856 78.3651 114.206 78.7945 114.206C79.224 114.206 79.574 113.856 79.574 113.427C79.574 112.997 79.224 112.647 78.7945 112.647Z" fill="white"/>
<path d="M122.538 64.4256C122.621 64.7741 122.568 65.1005 122.379 65.405C122.191 65.7095 121.923 65.9029 121.575 65.9851C121.226 66.0674 120.9 66.0144 120.595 65.8262C120.291 65.6379 120.097 65.3696 120.015 65.0212C119.933 64.6728 119.986 64.3463 120.174 64.0418C120.362 63.7373 120.631 63.544 120.979 63.4617C121.327 63.3795 121.654 63.4325 121.958 63.6207C122.263 63.8089 122.456 64.0772 122.538 64.4256Z" fill="white"/>
<path d="M113.398 50.9813C113.48 51.3297 113.427 51.6562 113.239 51.9607C113.051 52.2652 112.782 52.4586 112.434 52.5408C112.086 52.623 111.759 52.57 111.455 52.3818C111.15 52.1936 110.957 51.9253 110.874 51.5769C110.792 51.2285 110.845 50.902 111.033 50.5975C111.222 50.293 111.49 50.0996 111.838 50.0174C112.187 49.9352 112.513 49.9882 112.818 50.1764C113.122 50.3646 113.316 50.6329 113.398 50.9813Z" fill="white"/>
<path d="M77.0634 12.7865C77.1456 13.1349 77.0926 13.4614 76.9044 13.7659C76.7162 14.0704 76.4479 14.2637 76.0995 14.346C75.7511 14.4282 75.4246 14.3752 75.1201 14.187C74.8156 13.9988 74.6222 13.7305 74.54 13.3821C74.4577 13.0337 74.5107 12.7072 74.6989 12.4027C74.8872 12.0982 75.1555 11.9048 75.5039 11.8226C75.8523 11.7403 76.1787 11.7933 76.4833 11.9815C76.7878 12.1698 76.9811 12.4381 77.0634 12.7865Z" fill="white"/>
<path d="M62.883 12.7858C62.9652 13.1342 62.9122 13.4606 62.724 13.7651C62.5358 14.0696 62.2675 14.263 61.919 14.3452C61.5706 14.4275 61.2442 14.3745 60.9397 14.1863C60.6352 13.9981 60.4418 13.7297 60.3596 13.3813C60.2773 13.0329 60.3303 12.7065 60.5185 12.402C60.7067 12.0974 60.9751 11.9041 61.3235 11.8218C61.6719 11.7396 61.9983 11.7926 62.3028 11.9808C62.6074 12.169 62.8007 12.4373 62.883 12.7858Z" fill="white"/>
<path d="M132.996 53.0106C133.078 53.359 133.025 53.6855 132.837 53.99C132.648 54.2945 132.38 54.4879 132.032 54.5701C131.683 54.6523 131.357 54.5993 131.052 54.4111C130.748 54.2229 130.554 53.9546 130.472 53.6062C130.39 53.2578 130.443 52.9313 130.631 52.6268C130.819 52.3223 131.088 52.1289 131.436 52.0467C131.784 51.9645 132.111 52.0175 132.415 52.2057C132.72 52.3939 132.913 52.6622 132.996 53.0106Z" fill="white"/>
<path d="M117.834 30.9442C118.142 31.3471 118.72 31.4214 119.12 31.1138C119.52 30.8063 119.597 30.2284 119.29 29.8281C118.982 29.4251 118.404 29.3509 118.004 29.6584C117.601 29.9659 117.527 30.5439 117.834 30.9442Z" fill="white"/>
<path d="M99.3564 20.5361C98.9534 20.8436 98.8792 21.4215 99.1867 21.8219C99.4942 22.2222 100.072 22.299 100.472 21.9915C100.875 21.684 100.95 21.1061 100.642 20.7058C100.335 20.3028 99.7567 20.2286 99.3564 20.5361Z" fill="white"/>
</g>
</svg>
