<svg width="800" height="800" viewBox="0 0 800 800" fill="none" xmlns="http://www.w3.org/2000/svg">
<path d="M68.3333 509.3L69.1667 514.9L70.0333 514.7C75.9564 542.399 89.601 567.854 109.389 588.122C129.176 608.389 154.298 622.639 181.847 629.224C209.396 635.808 238.246 634.458 265.06 625.33C291.873 616.201 315.554 599.667 333.363 577.64C351.171 555.614 362.379 528.995 365.689 500.864C368.999 472.733 364.277 444.24 352.069 418.681C339.86 393.122 320.664 371.542 296.702 356.438C272.74 341.334 244.992 333.324 216.667 333.333C209.233 333.333 202.1 334.467 195 335.5C197.3 327.767 199.667 319.9 203.467 312.833C207.267 302.567 213.2 293.667 219.1 284.7C224.033 275 232.733 268.433 239.133 260.133C245.833 252.067 254.967 246.7 262.2 240C269.3 233 278.6 229.5 286 224.567C293.733 220.133 300.467 215.233 307.667 212.9L325.633 205.5L341.433 198.933L325.3 134.3L305.4 139.1C299.033 140.7 291.267 142.567 282.433 144.8C273.4 146.467 263.767 151.033 253.033 155.2C242.467 159.967 230.167 163.133 218.767 170.767C207.3 178.033 194.067 184.1 182.4 193.833C171.1 203.867 157.467 212.567 147.4 225.3C136.4 237.233 125.533 249.767 117.1 264.033C107.333 277.633 100.7 292.567 93.7 307.333C87.3667 322.1 82.2667 337.2 78.1 351.867C70.2 381.267 66.6666 409.2 65.3 433.1C64.1666 457.033 64.8333 476.933 66.2333 491.333C66.7017 497.347 67.4022 503.34 68.3333 509.3ZM435 509.3L435.833 514.9L436.7 514.7C442.623 542.399 456.268 567.854 476.055 588.122C495.843 608.389 520.964 622.639 548.513 629.224C576.062 635.808 604.913 634.458 631.726 625.33C658.54 616.201 682.221 599.667 700.029 577.64C717.838 555.614 729.045 528.995 732.356 500.864C735.666 472.733 730.944 444.24 718.735 418.681C706.527 393.122 687.331 371.542 663.369 356.438C639.407 341.334 611.658 333.324 583.333 333.333C575.9 333.333 568.767 334.467 561.667 335.5C563.967 327.767 566.333 319.9 570.133 312.833C573.933 302.567 579.867 293.667 585.767 284.7C590.7 275 599.4 268.433 605.8 260.133C612.5 252.067 621.633 246.7 628.867 240C635.967 233 645.267 229.5 652.667 224.567C660.4 220.133 667.133 215.233 674.333 212.9L692.3 205.5C702.333 201.4 708.067 199 708.067 199L691.933 134.367L672.033 139.167C665.667 140.767 657.9 142.633 649.067 144.867C640.033 146.533 630.4 151.1 619.667 155.267C609.1 160.033 596.8 163.2 585.4 170.833C573.933 178.1 560.7 184.167 549.033 193.9C537.733 203.933 524.1 212.633 514.033 225.367C503.033 237.3 492.167 249.833 483.733 264.1C473.967 277.7 467.333 292.633 460.333 307.4C454 322.167 448.9 337.267 444.733 351.933C436.833 381.333 433.3 409.267 431.933 433.167C430.8 457.1 431.467 477 432.867 491.4C433.364 497.39 434.076 503.361 435 509.3Z" fill="#1363DF"/>
</svg>
